<svg id="Calque_1" data-name="Calque 1" xmlns="http://www.w3.org/2000/svg" viewBox="0 0 200 200"><defs><style>.cls-1,.cls-3{opacity:0.3;}.cls-2,.cls-3{fill:#005187;}</style></defs><title>bg-icon</title><g class="cls-1"><path class="cls-2" d="M24.4,20.45h.91a.17.17,0,0,1,.17.17v4.26a.17.17,0,0,1-.17.17H24.4a.16.16,0,0,1-.16-.16V20.61A.16.16,0,0,1,24.4,20.45Z"/><path class="cls-2" d="M25.33,31a1.34,1.34,0,0,0-.39-.84,1.29,1.29,0,0,1,.7.7c3.27-.77,6.31-5,6-11.72-.65,1.33-1.1,2.34-1.42,3a1.39,1.39,0,0,1,.15,1.07,1.14,1.14,0,0,0-.3-.8A10.49,10.49,0,0,1,27.15,26,2.25,2.25,0,0,1,27,27.69a3,3,0,0,0-.08-1.43,11.46,11.46,0,0,1-1.06.51,1.93,1.93,0,0,1-.29,1.12,2,2,0,0,0,0-1.06,3.4,3.4,0,0,0-3,2.84,11.52,11.52,0,0,1-3.32-.6l-.67-.14.55.39a9.24,9.24,0,0,0,3.54.81A2.65,2.65,0,0,0,25.33,31Z"/><path class="cls-2" d="M21.64,25l.25-1h1v.31h.62V21.13h-.62v.31h-1l-.25-1-2-1.37c-.32-.21-.74,0-.74.74v.56h-.56V25.1h.56v.68c0,.76.42.83.74.62Z"/></g><g class="cls-1"><rect class="cls-2" x="168.17" y="174.3" width="6.89" height="1.85" rx="0.25" ry="0.25"/><path class="cls-2" d="M183.94,174.51a2,2,0,0,0-1.26.59,1.93,1.93,0,0,1,1-1.06c-1.16-4.91-7.55-9.46-17.58-9,2,1,3.52,1.65,4.55,2.14a2.09,2.09,0,0,1,1.6-.23,1.7,1.7,0,0,0-1.2.45,15.73,15.73,0,0,1,5.48,4.33,3.37,3.37,0,0,1,2.46.29,4.43,4.43,0,0,0-2.15.12,17.19,17.19,0,0,1,.76,1.6,2.9,2.9,0,0,1,1.68.44,3,3,0,0,0-1.58-.06,5.11,5.11,0,0,0,4.26,4.51,17.27,17.27,0,0,1-.91,5l-.21,1,.59-.82a13.86,13.86,0,0,0,1.22-5.31C183.81,177.62,184.16,176.46,183.94,174.51Z"/><path class="cls-2" d="M175.06,180l-1.49-.37v-1.57H174v-.93h-4.84v.93h.47v1.57l-1.49.37-2,3c-.32.47,0,1.11,1.12,1.11h.84v.83h7.08v-.83h1c1.15,0,1.25-.64.93-1.11Z"/></g><path class="cls-3" d="M81.5,28a.08.08,0,0,0-.07,0h-.29l0,0a.09.09,0,0,0,0,0v-.15a1.53,1.53,0,0,0,0-1.23v-.17l-.51-2.21a1.49,1.49,0,0,0-.61-1,4.69,4.69,0,0,0-3-1.74V20a0,0,0,0,0,0,0H68.71a0,0,0,0,0,0,0v6.27a.41.41,0,0,0-.28.38v.93a.41.41,0,0,0,.18.34h0a.09.09,0,0,0-.08.1l.17.85a.09.09,0,0,0,.08.07H69.9a.09.09,0,0,0,.08-.07l.05-.26h.19a1.42,1.42,0,0,0-.07.41A1.44,1.44,0,0,0,73,29.5h.5a.42.42,0,0,0,.42-.34h1.45a.08.08,0,0,0,.08-.08V29h.34v.09a.08.08,0,0,0,.08.08H76a.08.08,0,0,0,.08-.08V29h.25a.25.25,0,0,0,.25-.25v-.09h.34s0,.06,0,.09a.08.08,0,0,0,.17,0h.21a1.43,1.43,0,0,0,0,.34,1.44,1.44,0,0,0,2.88,0,1.43,1.43,0,0,0,0-.34h.18l0,.19a.08.08,0,0,0,.08.07h.85a.08.08,0,0,0,.08-.07l.17-.85A.08.08,0,0,0,81.5,28Zm-9.91,1.84a.76.76,0,1,1,.76-.76A.76.76,0,0,1,71.59,29.84ZM77,28.48H76.6v-1.1a.25.25,0,0,0-.25-.25h-.25V27A.08.08,0,0,0,76,27h-.17a.08.08,0,0,0-.08.08v.09H74.56V27a.08.08,0,0,0-.08-.08h-.17a.08.08,0,0,0-.08.08v.09H74a.25.25,0,0,0-.25.25v1.1h-.36A1.78,1.78,0,0,0,70,28h-.46a.41.41,0,0,0,.18-.34v-.85H77v1.44a.08.08,0,0,0,0,0A1.76,1.76,0,0,0,77,28.48Zm1.76,1.36a.76.76,0,1,1,.76-.76A.76.76,0,0,1,78.72,29.84Zm1.64-3.9h-.57l-.31-.47a.08.08,0,0,0-.07,0H77.75l-.31-.61V23.68l.29-.29H79.4a.78.78,0,0,1,.77.61l.33,1.5Z"/><path class="cls-3" d="M121.79,24.4a5.9,5.9,0,0,0-1.21,1.86c-1.53,0-1.55,3.66-.28,2.81a5.5,5.5,0,0,0,1.33,3.84c-.16.31-.56.19-1-.22.22,1.06,1.06,1.17,1.5.93.15,1.08,1.73,1.68,3.56,1.36a3.13,3.13,0,0,1-2.34-1,5,5,0,0,0,1.75.3c2.67,0,4.8-1.89,4.8-5.27,1,.85,1.27-2.85-.28-2.81a5.87,5.87,0,0,0-1.21-1.87C132.9,22.52,134,19.47,134,15H116C116,19.48,117.23,22.52,121.79,24.4ZM125.25,15a7.27,7.27,0,0,1,1.47,1.85l-.79,3.76h-.47l1.43,1.43,1.24-1.24a26.65,26.65,0,0,1,.45,3.2l-.39.19a4.28,4.28,0,0,0-6.21,0l-.35-.18a26.8,26.8,0,0,1,.45-3.18l1.21,1.21,1.43-1.43h-.47l-.78-3.71A7.3,7.3,0,0,1,125,15l.12,0Z"/><g class="cls-1"><path class="cls-2" d="M186.6,20V15.33h-9.29V20Zm-9-3.1,1.22-1.22.54.54-1.22,1.22Zm.27,1.49,2.44-2.44.54.54-2.44,2.44Z"/><polygon class="cls-2" points="171.96 23.49 166.43 23.49 165.66 23.49 163.4 23.49 163.4 26.56 165.66 26.56 166.43 26.56 171.96 26.56 173.59 25.03 171.96 23.49"/><polygon class="cls-2" points="171.96 15.83 166.43 15.83 165.66 15.83 163.4 15.83 163.4 18.9 165.66 18.9 166.43 18.9 171.96 18.9 173.59 17.36 171.96 15.83"/><polygon class="cls-2" points="171.96 19.66 166.43 19.66 165.66 19.66 163.4 19.66 163.4 22.73 165.66 22.73 166.43 22.73 171.96 22.73 173.59 21.2 171.96 19.66"/><polygon class="cls-2" points="163.4 15.06 165.66 15.06 166.43 15.06 171.96 15.06 173.59 13.53 172.92 12.9 172.1 12.13 171.96 12 163.4 12 163.4 15.06"/><polygon class="cls-2" points="171.96 31.18 166.43 31.18 165.66 31.18 163.4 31.18 163.4 34.24 165.66 34.24 166.43 34.24 171.96 34.24 173.59 32.71 171.96 31.18"/><polygon class="cls-2" points="171.96 35.01 166.43 35.01 165.66 35.01 163.4 35.01 163.4 38.07 165.66 38.07 166.43 38.07 171.96 38.07 173.59 36.54 171.96 35.01"/><polygon class="cls-2" points="163.4 30.41 165.66 30.41 166.43 30.41 171.96 30.41 173.59 28.88 172.92 28.25 172.1 27.48 171.96 27.35 163.4 27.35 163.4 30.41"/><path class="cls-2" d="M174.76,13.53l-2,1.92,2,1.92-2,1.92,2,1.92-2,1.92,2,1.92-2,1.92,2,1.92-2,1.9,2,1.92-2,1.92,2,1.92-.67.63H186.6l0-8.28,0-8.15H176.55V14.57H186.6V12.9H174.09Zm10.28,8V36.36h-8.46V21.5Z"/></g><path class="cls-3" d="M29.24,165a.13.13,0,0,0,0,.1v.45l-.07,0h-.3a2.39,2.39,0,0,0-1.92,0h-.26l-3.45.8a2.34,2.34,0,0,0-1.61,1c-1.6,1-2.29,3-2.72,4.68H16.8a.07.07,0,0,0-.07.07v13a.07.07,0,0,0,.07.07h9.8a.63.63,0,0,0,.6.44h1.46a.64.64,0,0,0,.53-.29v0a.13.13,0,0,0,.16.13l1.33-.27a.13.13,0,0,0,.11-.13v-1.86a.13.13,0,0,0-.11-.13l-.41-.08v-.29a2.22,2.22,0,0,0,.65.11,2.25,2.25,0,0,0,.66-4.4v-.77a.66.66,0,0,0-.53-.65v-2.27a.13.13,0,0,0-.13-.13h-.13V174h.13a.13.13,0,0,0,.13-.13v-.26a.13.13,0,0,0-.13-.13h-.13v-.4a.4.4,0,0,0-.4-.4h-.13v-.54h.13a.13.13,0,1,0,0-.26h0v-.33a2.23,2.23,0,0,0,.53.07,2.25,2.25,0,0,0,0-4.51,2.23,2.23,0,0,0-.53.07v-.28l.29-.06a.13.13,0,0,0,.11-.13V165.4a.13.13,0,0,0-.11-.13L29.35,165A.13.13,0,0,0,29.24,165Zm2.87,15.48a1.19,1.19,0,1,1-1.19-1.19A1.19,1.19,0,0,1,32.11,180.51ZM30,172.13v.56H28.27a.4.4,0,0,0-.4.4v.4h-.13a.13.13,0,0,0-.13.13v.26a.13.13,0,0,0,.13.13h.13v1.86h-.13a.13.13,0,0,0-.13.13v.27a.13.13,0,0,0,.13.13h.13v.4a.4.4,0,0,0,.4.4H30v.56a2.78,2.78,0,0,0-.8,5.27v.72a.64.64,0,0,0-.53-.29H27.34V172.09h2.25a.13.13,0,0,0,.08,0Zm2.12-2.75a1.19,1.19,0,1,1-1.19-1.19A1.19,1.19,0,0,1,32.11,169.37ZM26,166.82v.89l-.74.49a.13.13,0,0,0-.06.11v2.57l-1,.48H22.49l-.45-.45v-2.6a1.22,1.22,0,0,1,1-1.2l2.35-.52Z"/><path class="cls-3" d="M74.37,178.24a5.88,5.88,0,0,0,1.85,1.21c0,1.52,3.64,1.55,2.8.28a5.48,5.48,0,0,0,3.82-1.33c.31.16.19.56-.22,1,1.05-.22,1.17-1.05.93-1.49,1.07-.15,1.68-1.72,1.36-3.54a3.12,3.12,0,0,1-.95,2.33,5,5,0,0,0,.3-1.74c0-2.66-1.88-4.78-5.24-4.78.85-1-2.84-1.26-2.8.28a5.84,5.84,0,0,0-1.86,1.21c-1.87-4.5-4.9-5.59-9.35-5.59V184C69.47,184,72.51,182.78,74.37,178.24ZM65,174.8a7.24,7.24,0,0,1,1.84-1.46l3.74.79v.47L72,173.16l-1.23-1.23a26.53,26.53,0,0,1,3.18-.45l.19.39a4.26,4.26,0,0,0,0,6.18l-.18.35a26.68,26.68,0,0,1-3.17-.44l1.2-1.2-1.42-1.42v.47l-3.69.78a7.27,7.27,0,0,1-1.9-1.5l0-.12Z"/><g class="cls-1"><path class="cls-2" d="M120.62,165h-4v8h4Zm-2.68,7.75-1.05-1.05.47-.47,1.05,1.05Zm1.29-.24-2.11-2.11.47-.47,2.11,2.11Z"/><polygon class="cls-2" points="123.68 177.68 123.68 182.46 123.68 183.12 123.68 185.07 126.33 185.07 126.33 183.12 126.33 182.46 126.33 177.68 125 176.27 123.68 177.68"/><polygon class="cls-2" points="117.06 177.68 117.06 182.46 117.06 183.12 117.06 185.07 119.71 185.07 119.71 183.12 119.71 182.46 119.71 177.68 118.38 176.27 117.06 177.68"/><polygon class="cls-2" points="120.37 177.68 120.37 182.46 120.37 183.12 120.37 185.07 123.02 185.07 123.02 183.12 123.02 182.46 123.02 177.68 121.69 176.27 120.37 177.68"/><polygon class="cls-2" points="116.39 185.07 116.39 183.12 116.39 182.46 116.39 177.68 115.07 176.27 114.52 176.85 113.86 177.55 113.75 177.68 113.75 185.07 116.39 185.07"/><polygon class="cls-2" points="130.32 177.68 130.32 182.46 130.32 183.12 130.32 185.07 132.97 185.07 132.97 183.12 132.97 182.46 132.97 177.68 131.65 176.27 130.32 177.68"/><polygon class="cls-2" points="133.63 177.68 133.63 182.46 133.63 183.12 133.63 185.07 136.28 185.07 136.28 183.12 136.28 182.46 136.28 177.68 134.96 176.27 133.63 177.68"/><polygon class="cls-2" points="129.66 185.07 129.66 183.12 129.66 182.46 129.66 177.68 128.34 176.27 127.79 176.85 127.13 177.55 127.01 177.68 127.01 185.07 129.66 185.07"/><path class="cls-2" d="M115.07,175.25l1.66,1.76,1.66-1.76L120,177l1.66-1.76,1.66,1.76,1.66-1.76,1.66,1.76,1.66-1.74L130,177l1.66-1.76,1.66,1.76,1.66-1.76.55.58V165l-7.16,0-7,0v8.69H116V165h-1.44v10.81Zm6.88-8.88H134.8v7.32H122Z"/></g><path class="cls-3" d="M27.51,125.53a4.6,4.6,0,0,0,.94-1.45c1.19,0,1.21-2.85.22-2.19a4.29,4.29,0,0,0-1-3c.13-.24.43-.15.8.17-.17-.82-.82-.92-1.17-.73-.12-.84-1.35-1.31-2.77-1.06a2.44,2.44,0,0,1,1.82.74,3.92,3.92,0,0,0-1.36-.24c-2.08,0-3.74,1.47-3.74,4.1-.79-.66-1,2.22.22,2.19a4.57,4.57,0,0,0,.94,1.45C18.86,127,18,129.37,18,132.86H32C32,129.37,31.07,127,27.51,125.53Zm-2.69,7.3a5.66,5.66,0,0,1-1.14-1.44l.62-2.93h.37l-1.12-1.12-1,1a20.76,20.76,0,0,1-.35-2.49l.3-.15a3.34,3.34,0,0,0,4.84,0l.28.14a20.87,20.87,0,0,1-.35,2.48l-.94-.94-1.11,1.11h.37l.61,2.89A5.68,5.68,0,0,1,25,132.84h-.09Z"/><g class="cls-1"><path class="cls-2" d="M71,126.78v1.58h3.19v-1.58Zm3.08,1.06-.42.42-.19-.19.42-.42Zm-.09-.51-.84.84L73,128l.84-.84Z"/><polygon class="cls-2" points="76.06 125.57 77.96 125.57 78.22 125.57 79 125.57 79 124.52 78.22 124.52 77.96 124.52 76.06 124.52 75.5 125.04 76.06 125.57"/><polygon class="cls-2" points="76.06 128.2 77.96 128.2 78.22 128.2 79 128.2 79 127.14 78.22 127.14 77.96 127.14 76.06 127.14 75.5 127.67 76.06 128.2"/><polygon class="cls-2" points="76.06 126.88 77.96 126.88 78.22 126.88 79 126.88 79 125.83 78.22 125.83 77.96 125.83 76.06 125.83 75.5 126.36 76.06 126.88"/><polygon class="cls-2" points="79 128.46 78.22 128.46 77.96 128.46 76.06 128.46 75.5 128.99 75.73 129.2 76.01 129.47 76.06 129.51 79 129.51 79 128.46"/><polygon class="cls-2" points="76.06 122.93 77.96 122.93 78.22 122.93 79 122.93 79 121.88 78.22 121.88 77.96 121.88 76.06 121.88 75.5 122.4 76.06 122.93"/><polygon class="cls-2" points="76.06 121.61 77.96 121.61 78.22 121.61 79 121.61 79 120.56 78.22 120.56 77.96 120.56 76.06 120.56 75.5 121.09 76.06 121.61"/><polygon class="cls-2" points="79 123.19 78.22 123.19 77.96 123.19 76.06 123.19 75.5 123.72 75.73 123.94 76.01 124.2 76.06 124.25 79 124.25 79 123.19"/><path class="cls-2" d="M75.1,129l.7-.66-.7-.66.7-.66-.7-.66.7-.66-.7-.66.7-.66-.69-.66.69-.65-.7-.66.7-.66-.7-.66.23-.22H71v5.64h3.45v2.11H71v.57h4.29Zm-3.53-2.73v-5.1h2.91v5.1Z"/></g><g class="cls-1"><rect class="cls-2" x="74.96" y="74.31" width="4.16" height="1.12" rx="0.15" ry="0.15"/><path class="cls-2" d="M69.61,75.3a1.21,1.21,0,0,0,.76-.36,1.16,1.16,0,0,1-.63.64c.7,3,4.55,5.71,10.6,5.4-1.2-.59-2.12-1-2.74-1.29a1.26,1.26,0,0,1-1,.14,1,1,0,0,0,.72-.27,9.49,9.49,0,0,1-3.31-2.61,2,2,0,0,1-1.48-.18,2.67,2.67,0,0,0,1.3-.07,10.37,10.37,0,0,1-.46-1,1.75,1.75,0,0,1-1-.26,1.79,1.79,0,0,0,1,0,3.08,3.08,0,0,0-2.57-2.72,10.42,10.42,0,0,1,.55-3l.12-.61-.35.5a8.36,8.36,0,0,0-.73,3.2A2.4,2.4,0,0,0,69.61,75.3Z"/><path class="cls-2" d="M75,72l.9.22v.95h-.28v.56H78.5v-.56h-.28v-.95l.9-.22,1.24-1.79c.19-.29,0-.67-.67-.67h-.51V69H74.91v.5h-.62c-.69,0-.75.38-.56.67Z"/></g><path class="cls-3" d="M119.83,87.48a.16.16,0,0,0,.06-.12v-.54l.09,0,.07,0h.28a2.85,2.85,0,0,0,2.29,0h.31l4.12-1A2.79,2.79,0,0,0,129,84.79c1.91-1.15,2.74-3.57,3.25-5.59h2.47a.08.08,0,0,0,.08-.08V63.6a.08.08,0,0,0-.08-.08H123a.76.76,0,0,0-.72-.52h-1.74a.76.76,0,0,0-.63.34v-.06a.16.16,0,0,0-.19-.16l-1.58.32a.16.16,0,0,0-.13.16v2.22a.16.16,0,0,0,.13.16l.49.1v.35a2.65,2.65,0,0,0-.77-.13,2.68,2.68,0,0,0-.79,5.25v.92a.79.79,0,0,0,.63.78V76a.16.16,0,0,0,.16.16H118v.63h-.16a.16.16,0,0,0-.16.16v.32a.16.16,0,0,0,.16.16H118v.48a.48.48,0,0,0,.47.48h.16V79h-.16a.16.16,0,1,0,0,.32h0v.4a2.67,2.67,0,0,0-.63-.08,2.69,2.69,0,0,0,0,5.39,2.67,2.67,0,0,0,.63-.08v.33l-.35.07a.16.16,0,0,0-.13.16V87a.16.16,0,0,0,.13.16l1.58.32A.16.16,0,0,0,119.83,87.48ZM116.4,69a1.43,1.43,0,1,1,1.43,1.43A1.43,1.43,0,0,1,116.4,69Zm2.53,10v-.67H121a.48.48,0,0,0,.47-.48v-.48h.16a.16.16,0,0,0,.16-.16v-.32a.16.16,0,0,0-.16-.16h-.16V74.53h.16a.16.16,0,0,0,.16-.16v-.32a.16.16,0,0,0-.16-.16h-.16v-.48a.48.48,0,0,0-.47-.47h-2.06v-.67a3.33,3.33,0,0,0,1-6.3v-.85a.76.76,0,0,0,.63.34h1.58V79h-2.69a.15.15,0,0,0-.09,0Zm-2.53,3.29a1.43,1.43,0,1,1,1.43,1.43A1.43,1.43,0,0,1,116.4,82.29Zm7.29,3.05V84.28l.88-.59a.16.16,0,0,0,.07-.13V80.49l1.15-.57h2.11l.54.54v3.1A1.45,1.45,0,0,1,127.29,85l-2.81.62Z"/><g class="cls-1"><rect class="cls-2" x="124.45" y="124.95" width="1.44" height="5.36" rx="0.19" ry="0.19"/><path class="cls-2" d="M124.62,118a1.57,1.57,0,0,0,.46,1,1.5,1.5,0,0,1-.82-.82c-3.82.9-7.36,5.87-7,13.67.76-1.55,1.29-2.74,1.66-3.54a1.63,1.63,0,0,1-.18-1.25,1.32,1.32,0,0,0,.35.93,12.24,12.24,0,0,1,3.37-4.26,2.62,2.62,0,0,1,.23-1.91,3.44,3.44,0,0,0,.1,1.67,13.37,13.37,0,0,1,1.24-.59,2.26,2.26,0,0,1,.34-1.31,2.31,2.31,0,0,0,0,1.23,4,4,0,0,0,3.5-3.31,13.43,13.43,0,0,1,3.87.71l.78.16-.64-.46a10.78,10.78,0,0,0-4.13-.95C127,118.15,126.13,117.88,124.62,118Z"/><path class="cls-2" d="M128.92,125l-.29,1.16h-1.22v-.36h-.72v3.77h.72v-.36h1.22l.29,1.16,2.31,1.59c.37.25.86,0,.86-.87v-.65h.65v-5.5h-.65v-.8c0-.89-.5-1-.86-.72Z"/></g><path class="cls-3" d="M165.92,121.47a.12.12,0,0,0,.09,0h.4l0,.06a.12.12,0,0,0,0,.05v.21a2.11,2.11,0,0,0,0,1.69v.23l.7,3a2.06,2.06,0,0,0,.84,1.43c.85,1.41,2.64,2,4.13,2.4v1.83a.06.06,0,0,0,.06.06h11.47a.06.06,0,0,0,.06-.06V123.8a.56.56,0,0,0,.39-.53V122a.56.56,0,0,0-.25-.47h0a.12.12,0,0,0,.11-.14l-.23-1.17a.12.12,0,0,0-.11-.09h-1.64a.12.12,0,0,0-.11.09l-.07.36h-.26a2,2,0,0,0,.09-.57,2,2,0,0,0-3.88-.59H177a.59.59,0,0,0-.57.47h-2a.12.12,0,0,0-.12.12v.12h-.47V120a.12.12,0,0,0-.12-.12h-.23a.12.12,0,0,0-.12.12v.12H173a.35.35,0,0,0-.35.35v.12h-.47s0-.08,0-.12a.12.12,0,0,0-.23,0h-.3a2,2,0,0,0,.06-.47,2,2,0,0,0-4,0,2,2,0,0,0,.06.47h-.25l-.05-.26a.12.12,0,0,0-.11-.09h-1.17a.12.12,0,0,0-.11.09l-.23,1.17A.12.12,0,0,0,165.92,121.47Zm13.67-2.53a1.05,1.05,0,1,1-1.05,1.05A1.06,1.06,0,0,1,179.59,118.94Zm-7.4,1.87h.5v1.52a.35.35,0,0,0,.35.35h.35v.12a.12.12,0,0,0,.12.12h.23a.12.12,0,0,0,.12-.12v-.12h1.64v.12a.12.12,0,0,0,.12.12h.23a.12.12,0,0,0,.12-.12v-.12h.35a.35.35,0,0,0,.35-.35v-1.52h.49a2.46,2.46,0,0,0,4.65.7h.63a.56.56,0,0,0-.25.47v1.17h-10v-2a.11.11,0,0,0,0-.07A2.43,2.43,0,0,0,172.18,120.81Zm-2.43-1.87A1.05,1.05,0,1,1,168.7,120,1.06,1.06,0,0,1,169.75,118.94Zm-2.26,5.39h.79l.43.65a.12.12,0,0,0,.1.05h2.27l.42.85v1.56l-.4.4h-2.29a1.07,1.07,0,0,1-1.06-.85l-.46-2.08Z"/><path class="cls-3" d="M175.37,73.23a3.31,3.31,0,0,0-1-.68c0-.86-2.05-.87-1.58-.16a3.09,3.09,0,0,0-2.15.75c-.17-.09-.11-.31.12-.58-.59.13-.66.59-.52.84-.6.09-.94,1-.77,2a1.76,1.76,0,0,1,.53-1.31,2.83,2.83,0,0,0-.17,1,2.67,2.67,0,0,0,3,2.69c-.48.57,1.6.71,1.58-.16a3.29,3.29,0,0,0,1-.68c1.05,2.54,2.76,3.15,5.27,3.15V70C178.13,70,176.42,70.67,175.37,73.23Zm5.26,1.94a4.08,4.08,0,0,1-1,.82l-2.11-.44v-.26l-.8.8.7.7a15,15,0,0,1-1.79.25l-.11-.22a2.4,2.4,0,0,0,0-3.48l.1-.2a15,15,0,0,1,1.79.25l-.68.68.8.8v-.26l2.08-.44a4.09,4.09,0,0,1,1.07.85v.16Z"/><g class="cls-1"><path class="cls-2" d="M30.09,83.06h3.2V76.63h-3.2Zm2.15-6.2.84.84-.38.38-.84-.84Zm-1,.19,1.69,1.69-.38.38-1.69-1.69Z"/><polygon class="cls-2" points="27.64 72.92 27.64 69.09 27.64 68.56 27.64 67 25.52 67 25.52 68.56 25.52 69.09 25.52 72.92 26.58 74.05 27.64 72.92"/><polygon class="cls-2" points="32.94 72.92 32.94 69.09 32.94 68.56 32.94 67 30.82 67 30.82 68.56 30.82 69.09 30.82 72.92 31.88 74.05 32.94 72.92"/><polygon class="cls-2" points="30.29 72.92 30.29 69.09 30.29 68.56 30.29 67 28.17 67 28.17 68.56 28.17 69.09 28.17 72.92 29.23 74.05 30.29 72.92"/><polygon class="cls-2" points="33.47 67 33.47 68.56 33.47 69.09 33.47 72.92 34.53 74.05 34.97 73.59 35.5 73.02 35.59 72.92 35.59 67 33.47 67"/><polygon class="cls-2" points="22.32 72.92 22.32 69.09 22.32 68.56 22.32 67 20.2 67 20.2 68.56 20.2 69.09 20.2 72.92 21.26 74.05 22.32 72.92"/><polygon class="cls-2" points="19.67 72.92 19.67 69.09 19.67 68.56 19.67 67 17.55 67 17.55 68.56 17.55 69.09 17.55 72.92 18.61 74.05 19.67 72.92"/><polygon class="cls-2" points="22.85 67 22.85 68.56 22.85 69.09 22.85 72.92 23.91 74.05 24.35 73.59 24.88 73.02 24.97 72.92 24.97 67 22.85 67"/><path class="cls-2" d="M34.53,74.86l-1.33-1.41-1.33,1.41-1.33-1.41-1.33,1.41L27.9,73.46l-1.33,1.41-1.33-1.41-1.33,1.4-1.32-1.4-1.33,1.41L20,73.46l-1.33,1.41-.44-.46v8.66l5.73,0,5.64,0v-7h4.26v7H35V74.4ZM29,82H18.74V76.12H29Z"/></g></svg>