<svg id="Calque_1" data-name="Calque 1" xmlns="http://www.w3.org/2000/svg" viewBox="0 0 800 800"><defs><style>.cls-1{fill:#5f375a;}.cls-2{fill:#b06ea7;}.cls-3{fill:#fff;}</style></defs><title>cresus-gestion-pe</title><rect class="cls-1" x="450" y="119" width="350" height="560"/><path class="cls-2" d="M449.48,0c.13.07.38.13.38.2,0,.53,0,1.07,0,1.6L450,798.16c0,.47,0,.93,0,1.4,0,.79-.56.24-.81.4a19.17,19.17,0,0,0-1.84-.69L304.14,761.15,144.45,718.62,2.23,680.77a20.16,20.16,0,0,0-2.16-.34L0,114.45c.65-.11,1.32-.17,2-.34L163.5,73,313.76,34.81,447.68.74A13.52,13.52,0,0,0,449.48,0Z"/><path class="cls-3" d="M388.47,377.36c-.16,25.26-5.11,50.76-16.43,74.88-6.65,14.16-15.26,27-26.77,37.68-9.82,9.16-21,16.08-34,19.67-18.4,5.07-35.89,2.5-52.42-6.82-13.87-7.82-24.69-18.88-33.51-32-9.45-14-15.83-29.45-20.1-45.76a184.78,184.78,0,0,1-5.46-32.88,224,224,0,0,1-.24-26.53,6.74,6.74,0,0,1,2.23-5c10.87-10.3,18.88-22.63,25.22-36.09a172.32,172.32,0,0,0,14.23-47c.69-4.36,1.1-8.77,1.72-13.15a3.69,3.69,0,0,1,1-2.07c12.68-11.57,27.3-19.15,44.59-20.76,13.86-1.29,26.88,1.85,39.08,8.46,12.72,6.88,22.94,16.57,31.45,28.14,10.76,14.63,18,31,22.77,48.38A191.07,191.07,0,0,1,388.47,377.36ZM253,369.61l.47-.16c.28.22.57.42.83.66,9.63,9.06,19.21,18.17,28.89,27.18,4.32,4,8.72,8,13.24,11.77a54.82,54.82,0,0,0,13.79,8.37,22.94,22.94,0,0,0,7.68,2,25.27,25.27,0,0,0,22.19-9.79c4.74-5.83,7.13-12.69,8.45-20,2.14-11.84,1.49-23.64-.67-35.4-2.05-11.17-6-21.7-10.74-32-.18-.39-.43-.74-.71-1.22l-13.52,5.09a2.49,2.49,0,0,0,0,.54c.36.73.72,1.45,1.08,2.18,3.89,7.81,7.42,15.75,9.28,24.33,1.69,7.76,2.69,15.56,1.09,23.47a28.23,28.23,0,0,1-5.83,13A15,15,0,0,1,316,395.14a16.8,16.8,0,0,1-7.07-1.69c-2.32-1.14-4.62-2.34-6.81-3.7a93.22,93.22,0,0,1-15.73-12.91l-33-32.21c-1.21-1.18-2.46-2.33-3.76-3.56l-11.93,3.48L249,438.74,261,436Z"/><path class="cls-3" d="M110.52,353.75c.64.75,1.21,1.42,1.77,2.09A72.07,72.07,0,0,0,131.4,372.5c15.88,9.23,32.28,10,49.11,2.8.87-.37,1.72-.77,2.83-1.27.07.64.15,1,.15,1.44a224,224,0,0,0,1.82,31.11c3.64,27.74,11.73,54,26.61,77.88a130.47,130.47,0,0,0,23.39,28.22,4.27,4.27,0,0,1,1.62,3.94,209,209,0,0,1-7.28,43.09c-4.58,16.29-11.15,31.71-20.78,45.72-7.05,10.26-15.43,19.22-25.93,26.06a60.43,60.43,0,0,1-61.4,3.93c-11.51-5.56-21-13.67-29.27-23.29-11.58-13.49-19.94-28.85-26.32-45.34A209.05,209.05,0,0,1,54.3,522.63c-1.07-7-1.79-14-2.27-21.08a224,224,0,0,1-.19-27c1.13-21.32,5-42.12,12.71-62.11,5.37-13.93,12.38-26.93,22-38.45a85.8,85.8,0,0,1,21.59-18.87C108.88,354.68,109.65,354.25,110.52,353.75Zm54.73,238.8c1.8-2,3.45-3.63,5-5.41A105,105,0,0,0,182.08,569c11.46-21,16.82-43.34,13.84-67.31a71.49,71.49,0,0,0-7.53-24.84,54.47,54.47,0,0,0-15.18-18.53c-8.78-6.62-18.26-6.51-27,.15a40.4,40.4,0,0,0-8.46,9,96.11,96.11,0,0,0-14.68,32.7,14.75,14.75,0,0,1-.54,1.5c-.26-.13-.34-.15-.38-.2q-11.76-15.12-23.52-30.24a1.75,1.75,0,0,1-.25-2c.95-2.08,1.85-4.18,2.77-6.27Q112.1,438,123,413.11a2.59,2.59,0,0,0-.48-3.32c-2.48-2.64-4.8-5.42-7.19-8.13-.67-.76-1.36-1.52-2.16-2.42-.41.81-.72,1.38-1,2Q96,438.77,79.72,476.32a2.87,2.87,0,0,0,.38,3.38q21.62,27.52,43.16,55.1c.38.48.84.9,1.41,1.52.14-.57.22-.84.28-1.12a155.79,155.79,0,0,1,8.81-29.62,65.26,65.26,0,0,1,9.09-15.89,22.9,22.9,0,0,1,7.39-6.24,12.27,12.27,0,0,1,8.6-1.13,16.32,16.32,0,0,1,7.26,4.08,37.57,37.57,0,0,1,11.18,18.49,60.88,60.88,0,0,1,0,30.64c-3.79,15.48-11.15,29-23,39.81a7.55,7.55,0,0,0-.63.78Z"/><path class="cls-3" d="M96.81,263.58c0-23.15,3.45-42.7,11.23-61.41,5.32-12.79,12.37-24.5,22.33-34.29,6.91-6.79,14.81-12,24.3-14.45,14.4-3.71,27.38-.56,39,8.48,8.19,6.37,14.26,14.5,19.14,23.56A117.7,117.7,0,0,1,224.75,221a151.08,151.08,0,0,1,2.14,34.16c-1.1,22.3-6.1,43.61-16.82,63.38a89,89,0,0,1-18.41,23.95c-6.5,5.88-13.79,10.45-22.35,12.66-13.42,3.47-25.78.95-37.09-7A64.33,64.33,0,0,1,116,331.3c-7.63-11.19-12.47-23.56-15.51-36.67A135.5,135.5,0,0,1,96.81,263.58Zm54.29,52.19c2.34-.14,4.33-.24,6.31-.38s4.09,0,6.07-.5l0-126.24c-3,.44-5.8,1-8.65,1.24a4.59,4.59,0,0,0-3.6,2.12c-5.92,8.19-11.92,16.33-17.89,24.49-.43.59-.83,1.2-1.29,1.86L137,231l3.53-4.91,3.34-4.69c1.16-1.62,2.27-3.27,3.48-4.86s1.95-3.19,3.72-4.71Z"/><path class="cls-3" d="M596.4,589.62h75.81V437.05H596.4Zm50.92-147.17,20,20-8.9,8.9-20-20Zm-24.49,4.48,40,40-8.9,8.9-40-40Z"/><polygon class="cls-3" points="538.21 350.19 538.21 259.32 538.21 246.74 538.21 209.62 487.88 209.62 487.88 246.74 487.88 259.32 487.88 350.19 513.04 376.87 538.21 350.19"/><polygon class="cls-3" points="475.3 350.19 475.3 259.32 475.3 246.74 475.3 209.62 450.13 209.62 450.13 376.87 475.3 350.19"/><polygon class="cls-3" points="664.04 350.19 664.04 259.32 664.04 246.74 664.04 209.62 613.71 209.62 613.71 246.74 613.71 259.32 613.71 350.19 638.87 376.87 664.04 350.19"/><polygon class="cls-3" points="601.12 350.19 601.12 259.32 601.12 246.74 601.12 209.62 550.79 209.62 550.79 246.74 550.79 259.32 550.79 350.19 575.96 376.87 601.12 350.19"/><polygon class="cls-3" points="676.62 209.62 676.62 246.74 676.62 259.32 676.62 350.19 701.79 376.87 712.17 365.87 724.75 352.52 726.95 350.19 726.95 209.62 676.62 209.62"/><polygon class="cls-3" points="670.33 361.86 638.87 395.21 607.41 361.86 575.96 395.21 544.5 361.86 513.04 395.21 481.59 361.86 450.13 395.21 450.13 424.47 570.92 424.47 570.92 562.88 450.13 562.88 450.13 589.62 583.82 589.62 583.82 424.47 684.8 424.47 684.8 589.62 712.17 589.62 712.17 384.21 701.79 395.21 670.33 361.86"/></svg>