<svg id="Calque_1" data-name="Calque 1" xmlns="http://www.w3.org/2000/svg" viewBox="0 0 800 800"><defs><style>.cls-1{fill:#846d39;}.cls-2{fill:#fccb66;}.cls-3{fill:#fff;}</style></defs><title>cresus-salaires</title><rect class="cls-1" x="450" y="121" width="350" height="560"/><path class="cls-2" d="M449.23.61c.13.07.38.13.38.2,0,.53,0,1.07,0,1.6l.11,796.36c0,.47,0,.93,0,1.4,0,.79-.56.24-.81.4a19.17,19.17,0,0,0-1.84-.69L303.89,761.76,144.2,719.23,2,681.38A20.16,20.16,0,0,0-.17,681l-.08-566c.65-.11,1.32-.17,2-.34L163.25,73.66,313.51,35.43,447.43,1.35A13.52,13.52,0,0,0,449.23.61Z"/><path class="cls-3" d="M388.22,378c-.16,25.26-5.11,50.76-16.43,74.88-6.65,14.16-15.26,27-26.77,37.68-9.82,9.16-21,16.08-34,19.67-18.4,5.07-35.89,2.5-52.42-6.82-13.87-7.82-24.69-18.88-33.51-32-9.45-14-15.83-29.45-20.1-45.76a184.78,184.78,0,0,1-5.46-32.88,224,224,0,0,1-.24-26.53,6.74,6.74,0,0,1,2.23-5c10.87-10.3,18.88-22.63,25.22-36.09a172.32,172.32,0,0,0,14.23-47c.69-4.36,1.1-8.77,1.72-13.15a3.69,3.69,0,0,1,1-2.07c12.68-11.57,27.3-19.15,44.59-20.76,13.86-1.29,26.88,1.85,39.08,8.46,12.72,6.88,22.94,16.57,31.45,28.14,10.76,14.63,18,31,22.77,48.38A191.07,191.07,0,0,1,388.22,378Zm-135.44-7.75.47-.16c.28.22.57.42.83.66,9.63,9.06,19.21,18.17,28.89,27.18,4.32,4,8.72,8,13.24,11.77A54.82,54.82,0,0,0,310,418a22.94,22.94,0,0,0,7.68,2,25.27,25.27,0,0,0,22.19-9.79c4.74-5.83,7.13-12.69,8.45-20,2.14-11.84,1.49-23.64-.67-35.4-2.05-11.17-6-21.7-10.74-32-.18-.39-.43-.74-.71-1.22l-13.52,5.09a2.49,2.49,0,0,0,0,.54c.36.73.72,1.45,1.08,2.18,3.89,7.81,7.42,15.75,9.28,24.33,1.69,7.76,2.69,15.56,1.09,23.47a28.23,28.23,0,0,1-5.83,13,15,15,0,0,1-12.52,5.49,16.8,16.8,0,0,1-7.07-1.69c-2.32-1.14-4.62-2.34-6.81-3.7a93.22,93.22,0,0,1-15.73-12.91l-33-32.21c-1.21-1.18-2.46-2.33-3.76-3.56l-11.93,3.48,11.24,94.18,12-2.71Z"/><path class="cls-3" d="M110.27,354.37c.64.75,1.21,1.42,1.77,2.09a72.07,72.07,0,0,0,19.11,16.66c15.88,9.23,32.28,10,49.11,2.8.87-.37,1.72-.77,2.83-1.27.07.64.15,1,.15,1.44a224,224,0,0,0,1.82,31.11c3.64,27.74,11.73,54,26.61,77.88a130.47,130.47,0,0,0,23.39,28.22,4.27,4.27,0,0,1,1.62,3.94,209,209,0,0,1-7.28,43.09C224.81,576.62,218.25,592,208.62,606c-7.05,10.26-15.43,19.22-25.93,26.06a60.43,60.43,0,0,1-61.4,3.93c-11.51-5.56-21-13.67-29.27-23.29-11.58-13.49-19.94-28.85-26.32-45.34a209.05,209.05,0,0,1-11.64-44.16c-1.07-7-1.79-14-2.27-21.08a224,224,0,0,1-.19-27c1.13-21.32,5-42.12,12.71-62.11,5.37-13.93,12.38-26.93,22-38.45a85.8,85.8,0,0,1,21.59-18.87C108.63,355.29,109.4,354.87,110.27,354.37ZM165,593.17c1.8-2,3.45-3.63,5-5.41a105,105,0,0,0,11.86-18.12c11.46-21,16.82-43.34,13.84-67.31a71.49,71.49,0,0,0-7.53-24.84A54.47,54.47,0,0,0,173,459c-8.78-6.62-18.26-6.51-27,.15a40.4,40.4,0,0,0-8.46,9,96.11,96.11,0,0,0-14.68,32.7,14.75,14.75,0,0,1-.54,1.5c-.26-.13-.34-.15-.38-.2Q110.19,487,98.42,471.87a1.75,1.75,0,0,1-.25-2c.95-2.08,1.85-4.18,2.77-6.27q10.91-24.93,21.84-49.84a2.59,2.59,0,0,0-.48-3.32c-2.48-2.64-4.8-5.42-7.19-8.13-.67-.76-1.36-1.52-2.16-2.42-.41.81-.72,1.38-1,2q-16.25,37.56-32.51,75.11a2.87,2.87,0,0,0,.38,3.38q21.62,27.52,43.16,55.1c.38.48.84.9,1.41,1.52.14-.57.22-.84.28-1.12a155.79,155.79,0,0,1,8.81-29.62,65.26,65.26,0,0,1,9.09-15.89,22.9,22.9,0,0,1,7.39-6.24,12.27,12.27,0,0,1,8.6-1.13,16.32,16.32,0,0,1,7.26,4.08A37.57,37.57,0,0,1,177,505.5a60.88,60.88,0,0,1,0,30.64c-3.79,15.48-11.15,29-23,39.81a7.55,7.55,0,0,0-.63.78Z"/><path class="cls-3" d="M96.56,264.19c0-23.15,3.45-42.7,11.23-61.41,5.32-12.79,12.37-24.5,22.33-34.29,6.91-6.79,14.81-12,24.3-14.45,14.4-3.71,27.38-.56,39,8.48,8.19,6.37,14.26,14.5,19.14,23.56a117.7,117.7,0,0,1,11.94,35.49,151.08,151.08,0,0,1,2.14,34.16c-1.1,22.3-6.1,43.61-16.82,63.38a89,89,0,0,1-18.41,23.95c-6.5,5.88-13.79,10.45-22.35,12.66-13.42,3.47-25.78.95-37.09-7a64.33,64.33,0,0,1-16.19-16.85c-7.63-11.19-12.47-23.56-15.51-36.67A135.5,135.5,0,0,1,96.56,264.19Zm54.29,52.19c2.34-.14,4.33-.24,6.31-.38s4.09,0,6.07-.5l0-126.24c-3,.44-5.8,1-8.65,1.24a4.59,4.59,0,0,0-3.6,2.12c-5.92,8.19-11.92,16.33-17.89,24.49-.43.59-.83,1.2-1.29,1.86l5,12.63,3.53-4.91,3.34-4.69c1.16-1.62,2.27-3.27,3.48-4.86s1.95-3.19,3.72-4.71Z"/><path class="cls-3" d="M778,582.6A1.57,1.57,0,0,0,779.6,581c0-86.58-21.29-150.74-116-190.34a121.91,121.91,0,0,0,23.14-35.46c9.42-.39,17.23-7.5,21.51-19.69,4.94-14,4.53-34.21-3.94-40.77-2.32-1.78-6.09-3.13-11.44-.5-.53-31.45-10.51-57.71-27.62-76.13,3.7-4.54,11.15-2,19.93,5.66-4.52-21.34-21.45-23.72-30.43-18.81-3.11-21.75-35.05-34-72.14-27.53,18.33.31,38.11,8,45.77,17A104.52,104.52,0,0,0,594.58,189c-58.29,0-97.66,42.1-98.83,105-3.75-2.07-6.71-1.25-8.65,0-7.91,5.26-10.66,26.25-5.54,42.38,3.77,11.89,11,18.52,20.31,18.8A121.13,121.13,0,0,0,525,390.73c-32.91,13.84-57.39,31.1-75,52.55V582.6Zm-182-3.45-1.69.24-2.67-.38a145.63,145.63,0,0,1-28.89-36l15.71-74.16h31.67L625.63,542Q612.89,564.2,596,579.15Zm61.48-182.33,5.29,2.63a546.32,546.32,0,0,1-8.31,60.2l-39.21-39C631.3,416.46,645.63,407.79,657.46,396.82ZM594.3,423.43a82.44,82.44,0,0,0,17.36-1.9l17,16.89-27.46,27.33H587.41l-27.5-27.36,17-16.87A82.86,82.86,0,0,0,594.3,423.43Zm-63.24-26.59c11.81,11,26.14,19.62,42.24,23.81l-39.84,39.64a542.91,542.91,0,0,1-8.41-60.47Z"/></svg>