<svg id="Calque_1" data-name="Calque 1" xmlns="http://www.w3.org/2000/svg" viewBox="0 0 800 350"><defs><style>.cls-1{fill:#e21f24;}.cls-2{fill:#fff;}</style></defs><title>Plan de travail 1</title><polygon class="cls-1" points="309.35 127.08 309.35 73.07 370.22 26.45 370.22 80.36 309.35 127.08"/><polygon class="cls-2" points="346.33 70.53 357.69 70.53 357.69 80.41 346.33 80.41 346.33 91.77 336.46 91.77 336.46 80.41 325.11 80.41 325.11 70.53 336.46 70.53 336.46 59.18 346.33 59.18 346.33 70.53"/><path class="cls-2" d="M609.34,190.37c0,15.51-24.33,22.32-24.33,3.29v-83H535.65v94.29c0,22.33,13.83,36.91,37.09,36.91,26.61,0,36.59-16.92,39.72-23V239.2h46.21V110.65H609.34Z"/><path class="cls-2" d="M337.2,138.11c12.57,0,17,7.2,17.9,21.44H319.32c.4-15.48,5.31-21.44,17.88-21.44m128.68,14.55c-10.76-1.4-17.54-2.47-17.54-8.46,0-5.3,10.75-6.81,17.54-6.81,5.64,0,15,2.55,19.95,9.31l40.81.17c-4.91-15.81-18.2-39-60.76-39-40.69,0-59.51,23-59.51,42,0,38.83,37.44,42.07,59.51,45.12,10.91,1.52,20.53,2.12,20.53,8.81s-10.87,7.4-20.53,7.4c-10.86,0-24.22-4.33-25.82-14.33H357.44c-3.64,7.64-6.35,11.81-20.23,11.81-15.64,0-17.41-14.58-17.64-23.85h85.08c4.7-39.49-21.46-76.73-67.43-76.73-30.69,0-51.81,15.25-62.49,35.44V99.6l-41.13,31.55v-20.5H184.71v57.42c-15.29,12-30.36,23.5-66.42,22.77-35.22-.7-64.08-30-64.08-69.21S81.12,50.1,118.29,50.1c5.82,0,18.77,1.72,28,7.58l26.29-44C158.62,5.75,138.4,0,118.29,0,51.3,0,0,55.17,0,121.63s52.4,121.8,118.29,121.8c24.72,0,51.42-9.1,66.42-20.94V239.2h48.87v-54L269.06,158a70,70,0,0,0-2.39,18.13c0,33.84,27.43,65.57,70.53,65.57,41,0,57.31-19.5,64.57-36.23,6.16,19.31,24.81,36.17,64.12,36.17,38.62,0,64.24-18.32,64.24-43.82,0-44.3-51.53-43.48-64.24-45.13"/><path class="cls-2" d="M727,152.66c-10.76-1.4-17.55-2.47-17.55-8.46,0-5.3,10.74-6.81,17.55-6.81,5.63,0,15,2.55,19.94,9.31l40.84.17c-4.93-15.81-18.21-39-60.77-39-40.69,0-59.5,23-59.5,42,0,38.83,37.42,42.07,59.5,45.12,10.89,1.52,20.52,2.12,20.52,8.81s-10.89,7.4-20.52,7.4c-10.86,0-24.23-4.33-25.83-14.33H660.94c3.05,22.61,21,44.77,66,44.77,38.62,0,64.24-18.32,64.24-43.82,0-44.3-51.53-43.48-64.24-45.13"/><path class="cls-2" d="M793,114.09a1.26,1.26,0,0,0-.21-.75,1.37,1.37,0,0,0-.58-.45,2.66,2.66,0,0,0-.82-.2,8.16,8.16,0,0,0-.93-.06h-1.1v3.11h1.12a5.39,5.39,0,0,0,.91-.08,3.54,3.54,0,0,0,.81-.25,1.52,1.52,0,0,0,.59-.5,1.49,1.49,0,0,0,.21-.82m.66,7.29-1.38-3.12a3,3,0,0,0-.31-.62,1.46,1.46,0,0,0-.39-.4A1.51,1.51,0,0,0,791,117a3.57,3.57,0,0,0-.78-.07h-.89v4.41h-1.51v-10h3.31a5.8,5.8,0,0,1,1.31.14,3,3,0,0,1,1.07.46,2.52,2.52,0,0,1,.74.81,2.43,2.43,0,0,1,.29,1.22,2.06,2.06,0,0,1-.2.91,2.37,2.37,0,0,1-.55.72,3,3,0,0,1-.8.51,3.46,3.46,0,0,1-.95.28,2,2,0,0,1,1,.47,2.51,2.51,0,0,1,.57.84l1.65,3.62Zm4.79-4.82a7.29,7.29,0,0,0-.56-2.85,7.69,7.69,0,0,0-1.54-2.35,7.35,7.35,0,0,0-2.29-1.6,7.19,7.19,0,0,0-5.67,0,7.37,7.37,0,0,0-2.29,1.6,7.66,7.66,0,0,0-1.54,2.35,7.41,7.41,0,0,0-.56,2.85,7.54,7.54,0,0,0,.56,2.86,7.66,7.66,0,0,0,1.54,2.36,7.34,7.34,0,0,0,2.29,1.6,7,7,0,0,0,5.67,0,7.32,7.32,0,0,0,2.29-1.6,7.69,7.69,0,0,0,1.54-2.36,7.42,7.42,0,0,0,.56-2.86m1.56,0a8.71,8.71,0,0,1-.69,3.41,8.89,8.89,0,0,1-1.88,2.81,8.76,8.76,0,0,1-9.63,1.88,8.7,8.7,0,0,1-2.79-1.88,8.87,8.87,0,0,1-1.87-2.81,8.84,8.84,0,0,1,0-6.81,8.74,8.74,0,0,1,1.87-2.77,9.06,9.06,0,0,1,2.79-1.88,8.91,8.91,0,0,1,6.84,0,8.85,8.85,0,0,1,2.79,1.88,8.76,8.76,0,0,1,1.88,2.77,8.68,8.68,0,0,1,.69,3.41"/><path class="cls-2" d="M551.57,316.26a14.7,14.7,0,0,1-1.54,6.88,15,15,0,0,1-4.13,5,18.55,18.55,0,0,1-6,3,24.77,24.77,0,0,1-7.26,1,46.28,46.28,0,0,1-6.8-.5,27,27,0,0,1-6.55-1.83l.42-6.42a19.24,19.24,0,0,0,6.13,2.54,31.09,31.09,0,0,0,6.71.71,18.92,18.92,0,0,0,4.76-.58,10.65,10.65,0,0,0,3.88-1.84,8.92,8.92,0,0,0,2.59-3.21,10.64,10.64,0,0,0,1-4.71,6.76,6.76,0,0,0-.83-3.34,10.89,10.89,0,0,0-2.21-2.75,20.38,20.38,0,0,0-3.17-2.33q-1.79-1.08-3.71-2.09l-5.76-3.09a42.08,42.08,0,0,1-3.88-2.38,17.14,17.14,0,0,1-3.25-2.88,13.08,13.08,0,0,1-2.21-3.59,11.59,11.59,0,0,1-.83-4.5,12.56,12.56,0,0,1,1.63-6.51,14.17,14.17,0,0,1,4.25-4.55,19.15,19.15,0,0,1,5.92-2.67,26.07,26.07,0,0,1,6.72-.87,39.56,39.56,0,0,1,5.76.42,30.6,30.6,0,0,1,5.5,1.33l-.5,5.92a18.82,18.82,0,0,0-5.21-1.67,31.91,31.91,0,0,0-5.46-.5,20.37,20.37,0,0,0-4.3.46,12.44,12.44,0,0,0-3.8,1.46,7.62,7.62,0,0,0-3.75,6.92,6.36,6.36,0,0,0,.67,3,8.64,8.64,0,0,0,1.83,2.38,18.66,18.66,0,0,0,2.67,2,34.2,34.2,0,0,0,3.17,1.79l5.76,3.09q2.33,1.25,4.46,2.63a19.72,19.72,0,0,1,3.75,3.13,14.68,14.68,0,0,1,2.63,4A12.32,12.32,0,0,1,551.57,316.26Z"/><path class="cls-2" d="M588.69,331.27l-.17-7.17a15.6,15.6,0,0,1-5.51,6,14.89,14.89,0,0,1-7.92,2,15.41,15.41,0,0,1-6.63-1.25,10.93,10.93,0,0,1-4.25-3.5,14.07,14.07,0,0,1-2.29-5.34,31.47,31.47,0,0,1-.67-6.67V289.73h6.09v24.61a32.34,32.34,0,0,0,.33,4.76,11.89,11.89,0,0,0,1.29,4,7.18,7.18,0,0,0,2.75,2.8,9.51,9.51,0,0,0,4.8,1,9.91,9.91,0,0,0,8.92-4.67,13.82,13.82,0,0,0,1.88-4.75,27.18,27.18,0,0,0,.54-5.42V289.73h6v31.78q0,2.42.08,4.88t.33,4.88Z"/><path class="cls-2" d="M641.74,310.34a34.65,34.65,0,0,1-.92,7.92,21.94,21.94,0,0,1-2.92,7,15.6,15.6,0,0,1-5.25,5,16.16,16.16,0,0,1-15.43-.08,11.74,11.74,0,0,1-5.09-5.67v24.77H606V303.66q0-3.67-.13-7t-.29-6.88h5.76l.33,7.26a12.66,12.66,0,0,1,2.21-3.34,13.77,13.77,0,0,1,3.13-2.54,15.87,15.87,0,0,1,3.8-1.63,14.69,14.69,0,0,1,4-.58,16.17,16.17,0,0,1,8,1.79,14.9,14.9,0,0,1,5.21,4.8,19.77,19.77,0,0,1,2.84,6.88A37.84,37.84,0,0,1,641.74,310.34Zm-6.59,0a37.16,37.16,0,0,0-.46-5.76,15.88,15.88,0,0,0-1.75-5.25,10.55,10.55,0,0,0-3.55-3.8,10.4,10.4,0,0,0-5.76-1.46,9.69,9.69,0,0,0-5.5,1.5,11.52,11.52,0,0,0-3.63,3.88,18.06,18.06,0,0,0-2,5.25,26.44,26.44,0,0,0-.63,5.63,28.86,28.86,0,0,0,.58,5.67,18.24,18.24,0,0,0,2,5.38,12.08,12.08,0,0,0,3.63,4,9.47,9.47,0,0,0,5.59,1.58,9.77,9.77,0,0,0,5.71-1.54,11.21,11.21,0,0,0,3.5-4,17.57,17.57,0,0,0,1.79-5.38A34.71,34.71,0,0,0,635.15,310.34Z"/><path class="cls-2" d="M687,310.34a34.65,34.65,0,0,1-.92,7.92,21.94,21.94,0,0,1-2.92,7,15.6,15.6,0,0,1-5.25,5,16.16,16.16,0,0,1-15.43-.08,11.74,11.74,0,0,1-5.09-5.67v24.77h-6.09V303.66q0-3.67-.13-7t-.29-6.88h5.76L657,297a12.66,12.66,0,0,1,2.21-3.34,13.77,13.77,0,0,1,3.13-2.54,15.87,15.87,0,0,1,3.8-1.63,14.69,14.69,0,0,1,4-.58,16.17,16.17,0,0,1,8,1.79,14.9,14.9,0,0,1,5.21,4.8,19.77,19.77,0,0,1,2.84,6.88A37.84,37.84,0,0,1,687,310.34Zm-6.59,0a37.16,37.16,0,0,0-.46-5.76,15.88,15.88,0,0,0-1.75-5.25,10.55,10.55,0,0,0-3.55-3.8,10.4,10.4,0,0,0-5.76-1.46,9.69,9.69,0,0,0-5.5,1.5,11.52,11.52,0,0,0-3.63,3.88,18.06,18.06,0,0,0-2,5.25,26.44,26.44,0,0,0-.63,5.63,28.86,28.86,0,0,0,.58,5.67,18.24,18.24,0,0,0,2,5.38,12.08,12.08,0,0,0,3.63,4,9.47,9.47,0,0,0,5.59,1.58,9.77,9.77,0,0,0,5.71-1.54,11.21,11.21,0,0,0,3.5-4,17.57,17.57,0,0,0,1.79-5.38A34.71,34.71,0,0,0,680.45,310.34Z"/><path class="cls-2" d="M733,310.34a28,28,0,0,1-1.25,8.47,21.11,21.11,0,0,1-3.67,7,16.87,16.87,0,0,1-6,4.71,21.8,21.8,0,0,1-16.93,0,17.24,17.24,0,0,1-6.09-4.71,20.09,20.09,0,0,1-3.67-7,28.81,28.81,0,0,1-1.21-8.47,26.31,26.31,0,0,1,1.29-8.38,20.07,20.07,0,0,1,3.8-6.8,17.7,17.7,0,0,1,6.13-4.59,19.46,19.46,0,0,1,8.22-1.67,20.84,20.84,0,0,1,8.51,1.63,16.62,16.62,0,0,1,6.09,4.5,19.25,19.25,0,0,1,3.63,6.8A28.8,28.8,0,0,1,733,310.34Zm-6.59,0a26.1,26.1,0,0,0-.7-6,16,16,0,0,0-2.24-5.25,11.49,11.49,0,0,0-4-3.67,11.89,11.89,0,0,0-5.92-1.38,11.45,11.45,0,0,0-5.84,1.42,12.13,12.13,0,0,0-4,3.75,16.06,16.06,0,0,0-2.28,5.25,25.21,25.21,0,0,0-.7,5.92,26.26,26.26,0,0,0,.7,6,16.49,16.49,0,0,0,2.28,5.38,12.79,12.79,0,0,0,4,3.88,12.12,12.12,0,0,0,11.69,0,12.39,12.39,0,0,0,4-3.88,17.79,17.79,0,0,0,2.28-5.38A24.81,24.81,0,0,0,726.41,310.34Z"/><path class="cls-2" d="M762.28,295.32a11.56,11.56,0,0,0-3.34-.5,8.24,8.24,0,0,0-5.17,1.54,10.62,10.62,0,0,0-3.13,3.92,18.32,18.32,0,0,0-1.54,5.17,35.28,35.28,0,0,0-.42,5.21v20.6h-6.09V299.49q0-2.42-.08-4.88t-.33-4.88h5.59l.33,7.84a13.71,13.71,0,0,1,1.67-3.13,15.91,15.91,0,0,1,2.5-2.79,11.71,11.71,0,0,1,3.17-2,9.21,9.21,0,0,1,3.67-.75c.61,0,1.19,0,1.75,0a8.29,8.29,0,0,1,1.75.29Z"/><path class="cls-2" d="M789.47,330.94a14.94,14.94,0,0,1-3.34,1,20.83,20.83,0,0,1-3.42.29,10.32,10.32,0,0,1-5.09-1.09,7.28,7.28,0,0,1-2.92-3,12.24,12.24,0,0,1-1.29-4.38,46.24,46.24,0,0,1-.29-5.34V294.49h-7.84v-4.75h7.84v-9.34l6-2.09v11.43h9.43v4.75h-9.43V320a10.65,10.65,0,0,0,1,4.84q1,2.09,4.3,2.09a9.39,9.39,0,0,0,2.38-.29,16.09,16.09,0,0,0,2.29-.79Z"/></svg>