<svg xmlns="http://www.w3.org/2000/svg" viewBox="0 0 1200 1200"><defs><style>.cls-1{fill:#fff;}.cls-2{fill:none;stroke:#5f375a;stroke-linecap:round;stroke-linejoin:round;stroke-width:10px;}.cls-3{isolation:isolate;}.cls-4{fill:#b06ea7;}.cls-5{fill:#5f375a;}</style></defs><title>book-cresus-gestion-pe</title><g id="Calque_1" data-name="Calque 1"><polygon class="cls-1" points="1081 511 679 1164 68 909 31 709 1118 293 1081 511"/><polyline class="cls-2" points="31 709 68 909 679 1164 1081 511"/><polyline class="cls-2" points="144.36 851.2 675 1066 1107 393"/></g><g id="Calque_2" data-name="Calque 2"><g class="cls-3"><path class="cls-1" d="M627.77,292.21q-.77,1.68-1.67,3.31t-1.95,3.24q-1,1.6-2.21,3.17t-2.47,3.1a77.68,77.68,0,0,1-5.42,5.76,76.32,76.32,0,0,1-6.18,5.33,78.67,78.67,0,0,1-7,4.84,85,85,0,0,1-7.93,4.29q-1.9.91-3.88,1.72t-4,1.5q-2.05.69-4.19,1.26t-4.37,1c-1.27.25-2.55.45-3.83.61s-2.56.27-3.84.33-2.57.06-3.85,0a38.16,38.16,0,0,1-3.85-.37q-.89-.13-1.74-.29t-1.67-.36q-.81-.2-1.59-.42t-1.52-.49a27,27,0,0,1-3.36-1.42,23.15,23.15,0,0,1-2.95-1.78,21.07,21.07,0,0,1-2.54-2.13,20.57,20.57,0,0,1-2.14-2.47,19.12,19.12,0,0,1-2.45-4.44,20.33,20.33,0,0,1-.75-2.32,22.93,22.93,0,0,1-.48-2.37,26.56,26.56,0,0,1-.27-4.1,28.71,28.71,0,0,1,.34-4.06,33.18,33.18,0,0,1,.89-4,40.3,40.3,0,0,1,1.38-4c.46-1.13,1-2.25,1.49-3.34s1.1-2.15,1.69-3.17,1.2-2,1.81-2.89,1.24-1.75,1.86-2.51c1.63-2.09,3.31-4.06,5-5.92s3.55-3.6,5.44-5.26a75,75,0,0,1,6-4.69c2.08-1.48,4.26-2.87,6.57-4.2q2.37-1.36,4.85-2.58t5.1-2.27q2.62-1.05,5.39-1.92t5.71-1.51c1.36-.3,2.73-.56,4.1-.76s2.75-.35,4.13-.43,2.76-.1,4.15-.05a39.64,39.64,0,0,1,4.18.37q.88.13,1.72.28t1.64.34q.8.19,1.57.4t1.5.47a26.92,26.92,0,0,1,3.6,1.51,22.68,22.68,0,0,1,3.11,1.91,20.52,20.52,0,0,1,2.64,2.3,20.12,20.12,0,0,1,3.79,5.53,20,20,0,0,1,1.08,2.93,21.89,21.89,0,0,1,.63,3,26,26,0,0,1,.23,3.07,28.26,28.26,0,0,1-.19,3.79,31.55,31.55,0,0,1-.67,3.75,37,37,0,0,1-1.11,3.72Q628.62,290.37,627.77,292.21ZM566.12,314.5l.82.25.81.26c.27.09.55.17.83.23a8.14,8.14,0,0,0,.87.17l8.88-11.56,8.82-11.47L595.91,281l8.73-11.35-1.24-.27-1.22-.26-1.2-.27-1.17-.29a4.52,4.52,0,0,0-.64-.12,3.59,3.59,0,0,0-.6,0,3.74,3.74,0,0,0-.6.08,5.1,5.1,0,0,0-.62.18l-4,1.41-4,1.4-4,1.4-4,1.4-.29.1-.29.11-.3.11-.31.12-.23,1.33-.23,1.34-.23,1.36-.24,1.4.86-.3.81-.29.78-.28.76-.27.76-.27.76-.27.76-.27.76-.27.79-.29.79-.29.79-.28.8-.27.73-.27.75-.29c.26-.09.53-.18.82-.27a9.07,9.07,0,0,1,.93-.21l-7.24,9.39-7.25,9.41L570,304l-7.33,9.51.92.27.86.26.83.24.81.24"/><path class="cls-4" d="M536.2,380.56a19.34,19.34,0,0,1-.26,2.78,21.54,21.54,0,0,1-.64,2.74,25.19,25.19,0,0,1-1,2.7q-.58,1.34-1.32,2.66a43.11,43.11,0,0,1-4.79,6.91,51.61,51.61,0,0,1-6.2,6.14,66.39,66.39,0,0,1-7.5,5.43,88.54,88.54,0,0,1-8.7,4.77q-1.4.67-2.82,1.32t-2.88,1.25q-1.46.6-3,1.15t-3.07,1l-1,.29-1,.28-1.08.28-1.13.3-.34-2.22-.33-2.16-.33-2.12-.32-2.11.17-.06.14-.05.13,0,.13,0a61.62,61.62,0,0,0,6.88-1.77,56.16,56.16,0,0,0,6.29-2.44,53.32,53.32,0,0,0,10.92-6.71,37.06,37.06,0,0,0,3-2.66,29.14,29.14,0,0,0,2.53-2.84,23.65,23.65,0,0,0,2-3,20.34,20.34,0,0,0,1.44-3.21,12.91,12.91,0,0,0,.58-2.33,11.22,11.22,0,0,0,.11-2.31,11,11,0,0,0-.37-2.27,12.28,12.28,0,0,0-.86-2.24,7.87,7.87,0,0,0-.47-.82,6.83,6.83,0,0,0-.58-.77,6.57,6.57,0,0,0-.72-.7,7,7,0,0,0-.88-.63l-.33-.19-.34-.17-.35-.15-.36-.14q-.4-.14-.82-.25t-.86-.17q-.44-.07-.9-.1t-.94,0c-.5,0-1,0-1.49.08s-1,.11-1.45.2-1,.19-1.42.31-.93.25-1.39.4q-1.3.41-2.53.9t-2.41,1q-1.18.55-2.31,1.15t-2.23,1.24q-1.86,1.08-3.61,2.22t-3.42,2.36q-1.67,1.21-3.26,2.47t-3.13,2.57l-.09.07-.1.08-.13.1-.16.13-.09-.24-.08-.22-.07-.2c0-.06,0-.13-.06-.19L483,383l-1.62-7.27-1.62-7.24-1.62-7.21a1.21,1.21,0,0,1,0-.41.82.82,0,0,1,.12-.34,1.24,1.24,0,0,1,.27-.3,3.07,3.07,0,0,1,.43-.29l9.79-5.53,9.76-5.52,9.73-5.5,9.7-5.49.24-.13.25-.13.28-.14.32-.16.12.35.11.33.1.31.1.31.35,1.09.34,1.09c.12.36.23.73.35,1.09s.25.72.38,1.08a1.13,1.13,0,0,1,.08.41.68.68,0,0,1-.09.34,1.09,1.09,0,0,1-.26.3,3,3,0,0,1-.44.29L513.62,348l-6.5,3.65-6.5,3.65-6.52,3.66-.82.46-.82.46-.82.46-.83.46a1.45,1.45,0,0,0-.25.17.72.72,0,0,0-.16.19.53.53,0,0,0-.07.21.72.72,0,0,0,0,.24l.88,3.95.88,4,.88,4,.88,4,.27,0,.23-.07.2-.1.17-.12q1.87-1.48,3.89-2.82t4.18-2.55q2.16-1.2,4.48-2.27t4.79-2q.85-.31,1.71-.59t1.75-.51q.89-.23,1.8-.41t1.84-.31q1.24-.17,2.4-.21a20.34,20.34,0,0,1,2.25,0,16.82,16.82,0,0,1,2.09.28,14.13,14.13,0,0,1,1.92.53,12.25,12.25,0,0,1,1.7.75,11.11,11.11,0,0,1,1.52,1,10.68,10.68,0,0,1,1.32,1.2,11,11,0,0,1,1.12,1.43,15.77,15.77,0,0,1,2.13,4.81,17.42,17.42,0,0,1,.45,2.51A20.78,20.78,0,0,1,536.2,380.56Z"/><path class="cls-4" d="M803.76,252.7q-25.26,35.93-51.34,72.68Q726,362.62,698.76,400.75q-27.6,38.65-56,78.3-28.81,40.19-58.45,81.48Q575,554.77,566,549.06t-17.6-11.37q-8.67-5.66-17.16-11.29T514.4,515.19l-18.67-12.42-18.54-12.33-18.42-12.25L440.48,466l-16.19-10.77-16.09-10.7-16-10.63-15.9-10.57-.25-.15-.26-.14-.27-.13-.26-.13,43.19-54.15,42-52.65,40.85-51.21L541.06,215l24,3.49,23.8,3.43,23.65,3.4,23.6,3.39,22,3.15,22,3.16,22.09,3.17,22.14,3.17,19.78,2.84L764,247l19.85,2.85ZM534.05,420.26q2.35-1.77,4.56-3.61t4.26-3.75q2.06-1.91,4-3.89t3.71-4a2.49,2.49,0,0,0,.34-.47,1.28,1.28,0,0,0,.15-.44,1.2,1.2,0,0,0,0-.44,2.18,2.18,0,0,0-.18-.47,40.66,40.66,0,0,1-1.67-3.73q-.73-1.88-1.26-3.79T547,391.8q-.34-1.94-.51-3.9a51.15,51.15,0,0,1,0-8.87,55.55,55.55,0,0,1,1.49-8.69,65.43,65.43,0,0,1,2.81-8.52,81.52,81.52,0,0,1,4-8.37q.84-1.55,1.76-3.07t1.92-3q1-1.49,2.06-3t2.2-2.92l.08-.11.07-.13.08-.15.1-.18h-1.43l-.42,0q-1.83-.07-3.57-.25t-3.37-.46q-1.64-.29-3.18-.68t-3-.9a32.26,32.26,0,0,1-3.45-1.43,29,29,0,0,1-3.14-1.77,27.17,27.17,0,0,1-2.83-2.12,26.76,26.76,0,0,1-2.52-2.46,23.43,23.43,0,0,1-1.81-2.28,23.16,23.16,0,0,1-1.45-2.38,24.37,24.37,0,0,1-1.13-2.46c-.33-.83-.61-1.68-.86-2.53l-.07-.26-.08-.27-.08-.27-.09-.29-.44,0-.41,0-.4,0-.39,0q-2.17.12-4.3.38t-4.21.64q-2.09.38-4.14.88t-4.07,1.1q-3.13.93-6.09,2.05t-5.78,2.4q-2.82,1.28-5.5,2.72t-5.26,3q-3.7,2.25-7.07,4.68t-6.47,5q-3.09,2.61-5.92,5.38t-5.4,5.69q-1.09,1.23-2.13,2.48t-2,2.52q-1,1.27-1.92,2.56t-1.82,2.61q-.69,1-1.36,2.07t-1.3,2.08q-.64,1-1.24,2.1t-1.18,2.12q-1.24,2.31-2.31,4.65t-2,4.71q-.89,2.37-1.6,4.78t-1.22,4.85c-.39,1.88-.7,3.76-.91,5.63a49.69,49.69,0,0,0-.32,5.62,43.52,43.52,0,0,0,.37,5.61,40.63,40.63,0,0,0,1.14,5.59,36.2,36.2,0,0,0,1.34,3.92,32.51,32.51,0,0,0,1.82,3.77,31.34,31.34,0,0,0,2.38,3.6,32.6,32.6,0,0,0,3,3.4,33.29,33.29,0,0,0,5.68,4.49,35.21,35.21,0,0,0,3.33,1.85,38.39,38.39,0,0,0,3.68,1.56l.35.12.35.12.35.12.35.12a44.31,44.31,0,0,0,4.79,1.25,48,48,0,0,0,4.93.74q2.5.24,5.07.25t5.19-.21q2.89-.24,5.68-.7t5.5-1.12q2.71-.66,5.34-1.5t5.2-1.83q3.51-1.35,6.79-2.91t6.35-3.3q3.07-1.74,6-3.64t5.61-3.94m107.86-14.19a103.1,103.1,0,0,0,9.13-5.66,94.31,94.31,0,0,0,8-6.21,87.88,87.88,0,0,0,6.89-6.67,83.34,83.34,0,0,0,5.84-7q1.87-2.59,3.45-5.14t2.89-5.1q1.31-2.55,2.34-5.11t1.8-5.17a53.6,53.6,0,0,0,1.34-5.59,45.19,45.19,0,0,0,.67-5.59,40.11,40.11,0,0,0-.07-5.58,38,38,0,0,0-.89-5.58,34.9,34.9,0,0,0-1.32-4.32,32.5,32.5,0,0,0-4.49-8.12,35.42,35.42,0,0,0-3.29-3.76,36.74,36.74,0,0,0-3.18-2.82,37.47,37.47,0,0,0-3.57-2.49,39.8,39.8,0,0,0-4-2.14,43.89,43.89,0,0,0-4.39-1.77l-.81-.27-.82-.26-.84-.25-.85-.23a56.79,56.79,0,0,0-7.23-1.42,60.61,60.61,0,0,0-7.3-.5,67.92,67.92,0,0,0-7.35.34q-3.69.37-7.39,1.1l-.31.09-.3.13-.27.17-.22.18-1.14,1.13-1.12,1.13L622,314.71l-1.16,1.12q-2.21,2.08-4.59,4t-5,3.82q-2.58,1.85-5.35,3.58t-5.75,3.32q-2.68,1.43-5.47,2.72t-5.72,2.4q-2.93,1.11-6,2t-6.33,1.6a6.37,6.37,0,0,0-.84.24,4.46,4.46,0,0,0-.69.32,3.78,3.78,0,0,0-.57.4,4.09,4.09,0,0,0-.49.49q-1,1.21-2,2.43t-1.92,2.46q-.94,1.24-1.82,2.5t-1.69,2.55q-1,1.62-1.94,3.27T563,357.31q-.82,1.67-1.53,3.37t-1.3,3.42q-.91,2.61-1.55,5.23a47.47,47.47,0,0,0-1,5.26,42.06,42.06,0,0,0-.33,5.3,39.31,39.31,0,0,0,.37,5.34,37.1,37.1,0,0,0,1,4.93,33.44,33.44,0,0,0,1.73,4.77,32.78,32.78,0,0,0,2.53,4.58,35.22,35.22,0,0,0,3.42,4.36,36.17,36.17,0,0,0,3.27,3.15,36.74,36.74,0,0,0,3.69,2.75,39,39,0,0,0,4.11,2.34A43.13,43.13,0,0,0,582,414q1.22.43,2.49.81t2.61.7q1.33.32,2.73.58t2.84.46q3,.42,6,.54t6,0q3-.15,6-.55t6-1q3.48-.73,6.79-1.7t6.45-2.17q3.14-1.19,6.13-2.59t5.84-3M572.13,264.66c-2.31,1.33-4.49,2.72-6.57,4.2a75,75,0,0,0-6,4.69c-1.89,1.65-3.7,3.4-5.44,5.26s-3.42,3.83-5,5.92c-.62.76-1.24,1.61-1.86,2.51s-1.22,1.88-1.81,2.89-1.16,2.08-1.69,3.17-1,2.21-1.49,3.34a40.31,40.31,0,0,0-1.38,4,33.18,33.18,0,0,0-.89,4,28.7,28.7,0,0,0-.34,4.06,26.55,26.55,0,0,0,.27,4.1,23,23,0,0,0,.48,2.37,20.34,20.34,0,0,0,.75,2.32,19.12,19.12,0,0,0,2.45,4.44,20.59,20.59,0,0,0,2.14,2.47,21.08,21.08,0,0,0,2.54,2.13,23.15,23.15,0,0,0,2.95,1.78,27,27,0,0,0,3.36,1.42q.74.26,1.52.49t1.59.42q.81.2,1.67.36t1.74.29a38.17,38.17,0,0,0,3.85.37c1.28.06,2.57.05,3.85,0s2.56-.17,3.84-.33,2.55-.37,3.83-.61q2.23-.43,4.37-1t4.19-1.26q2.05-.69,4-1.5t3.88-1.72a85,85,0,0,0,7.93-4.29,78.66,78.66,0,0,0,7-4.84,76.31,76.31,0,0,0,6.18-5.33,77.69,77.69,0,0,0,5.42-5.76q1.3-1.53,2.47-3.1t2.21-3.17q1-1.6,1.95-3.24t1.67-3.31q.84-1.84,1.51-3.69a37,37,0,0,0,1.11-3.72,31.56,31.56,0,0,0,.67-3.75,28.25,28.25,0,0,0,.19-3.79,26,26,0,0,0-.23-3.07,21.9,21.9,0,0,0-.63-3,20.07,20.07,0,0,0-4.87-8.46,20.52,20.52,0,0,0-2.64-2.3,22.68,22.68,0,0,0-3.11-1.91,26.92,26.92,0,0,0-3.6-1.51q-.73-.25-1.5-.47t-1.57-.4q-.8-.19-1.64-.34t-1.72-.28a39.62,39.62,0,0,0-4.18-.37c-1.39,0-2.77,0-4.15.05s-2.76.23-4.13.43-2.74.46-4.1.76q-2.95.65-5.71,1.51t-5.39,1.92q-2.62,1.05-5.1,2.27t-4.85,2.58"/><path class="cls-4" d="M582.35,279l-.76.27-.78.28-.81.29-.86.3.24-1.4.23-1.36.23-1.34.23-1.33.31-.12.3-.11.29-.11.29-.1,4-1.4,4-1.4,4-1.4,4-1.41a5.11,5.11,0,0,1,.62-.18,3.74,3.74,0,0,1,.6-.08,3.59,3.59,0,0,1,.6,0,4.51,4.51,0,0,1,.64.12l1.17.29,1.2.27,1.22.26,1.24.27L595.91,281l-8.77,11.41-8.82,11.47-8.89,11.56a8.13,8.13,0,0,1-.87-.17c-.28-.07-.56-.15-.83-.23l-.81-.26-.82-.25-.81-.24-.83-.24-.86-.26-.92-.27L570,304l7.28-9.44,7.25-9.41,7.24-9.39a9.05,9.05,0,0,0-.93.21c-.29.08-.56.17-.82.27l-.75.29-.73.27-.8.27-.79.28-.79.29-.79.29-.76.27-.76.27-.76.27Z"/><polygon class="cls-1" points="798.21 345.25 788.42 359.19 785.08 363.93 760.75 398.57 739.71 404.03 733.22 388.98 757.73 354.52 761.09 349.8 770.95 335.94 798.21 345.25"/><polygon class="cls-1" points="832.5 356.96 822.8 370.99 819.5 375.77 795.4 410.64 774.32 416.14 767.66 400.98 791.95 366.3 795.27 361.54 805.05 347.58 832.5 356.96"/><polygon class="cls-1" points="901.82 380.64 865.44 435.05 863.59 435.53 853.02 438.32 844.29 440.61 837.3 425.25 861.12 390.09 864.39 385.27 873.97 371.13 901.82 380.64"/><polygon class="cls-5" points="802.03 467.75 794.63 469.52 788.85 457.58 796.24 455.81 802.03 467.75"/><path class="cls-1" d="M769.32,443.66l42.33,14.93-41.76,61.56-42.81-15.44Zm16.12,34.78,7.43-1.78-11.52-23.9L774,454.52l11.48,23.92m9.19-8.92,7.41-1.78-5.79-11.94-7.39,1.77,5.77,11.94"/><polygon class="cls-1" points="830.7 428.58 839.42 447.85 848.17 445.54 792.59 528.35 777.03 522.73 822.09 456.08 765.76 436.25 720 502.16 645.54 475.31 653.2 464.64 720.3 488.75 758.62 433.73 692.19 410.34 700.29 399.06 726.61 392.25 734.7 411.12 761.06 404.27 769.36 423.28 795.75 416.38 804.26 435.52 830.7 428.58"/><polygon class="cls-4" points="841.63 720.93 684.55 970.94 38.56 705.43 219.94 485.51 841.63 720.93"/><path class="cls-5" d="M1117.67,290.08a5.63,5.63,0,0,1,1.58.79,3.74,3.74,0,0,1,1,1.08,2.47,2.47,0,0,1,.37,1.24,2.28,2.28,0,0,1-.36,1.25L692,979.16a4.9,4.9,0,0,1-1.39,1.43,6.12,6.12,0,0,1-1.89.86,6.87,6.87,0,0,1-2.15.22,6.66,6.66,0,0,1-2.16-.49L28.29,710.79a4.19,4.19,0,0,1-1.47-1,3.09,3.09,0,0,1-.75-1.34,3,3,0,0,1,0-1.52,4,4,0,0,1,.81-1.53l500-604.15a3.87,3.87,0,0,1,1.15-.91,5.84,5.84,0,0,1,1.53-.55,6.9,6.9,0,0,1,1.71-.15,6.26,6.26,0,0,1,1.7.29Zm-276,430.85,267.94-426.46-577-188L219.93,485.51,38.56,705.43l646,265.5,157.08-250"/><polygon class="cls-1" points="867.03 368.76 857.43 382.88 854.16 387.69 830.29 422.8 809.18 428.33 802.36 413.07 826.41 378.15 829.71 373.36 839.39 359.31 867.03 368.76"/><path class="cls-5" d="M818.32,584,965.15,360,774.43,295.68,619.56,511.37Zm-91.25-79.3,42.25-61.05,42.33,14.93-41.76,61.56-42.81-15.44M901.81,380.64l-36.38,54.41-1.85.48L853,438.32l-8.73,2.3-7-15.37,23.82-35.16,3.27-4.82L874,371.13l27.85,9.51M867,368.76l-9.61,14.12-3.27,4.81L830.29,422.8l-21.11,5.53-6.82-15.27,24.05-34.92,3.3-4.78,9.68-14.05L867,368.76M832.49,357l-9.7,14-3.3,4.78-24.1,34.87-21.08,5.5L767.66,401l24.28-34.69,3.33-4.75,9.77-14L832.49,357M798.2,345.25l-9.79,13.94-3.33,4.75-24.33,34.64-21,5.46L733.21,389l24.51-34.45,3.36-4.72,9.86-13.87,27.26,9.31M750.6,329l13.55,4.63-9.88,13.85-3.36,4.72-24.55,34.41-21,5.42,45.25-63m-58.41,81.35,8.1-11.28,26.32-6.81,8.09,18.87,26.36-6.85,8.3,19,26.4-6.89,8.51,19.13,26.44-6.94,8.72,19.27,8.75-2.31-55.58,82.81L777,522.73l45.06-66.65-56.33-19.84L720,502.17l-74.46-26.86,7.66-10.67,67.1,24.11,38.32-55-66.43-23.39"/><polygon class="cls-1" points="726.35 386.59 750.9 352.18 754.27 347.46 764.15 333.62 750.6 328.99 705.34 392.02 726.35 386.59"/><polygon class="cls-5" points="792.87 476.66 785.44 478.44 773.95 454.52 781.34 452.75 792.87 476.66"/><path class="cls-1" d="M532.56,106.45,219.93,485.51l621.7,235.41,267.93-426.45ZM565.27,549l-17.07-11.34-17-11.28L514.4,515.19l-18.67-12.42-18.55-12.33-18.41-12.25L440.47,466l-16.18-10.76-16.09-10.7-16-10.63-15.9-10.57-.24-.15-.26-.13-.27-.13-.27-.13q21.81-27.34,43.21-54.15Q439.71,342.09,460.6,316q20.71-25.82,41.17-51.15,20.28-25.1,40.37-49.71l23.42,3.36L589,221.91l23.53,3.38,23.58,3.38,22,3.16,22,3.16,22.09,3.17,22.14,3.18,19.79,2.84q9.92,1.45,19.91,2.93t20.12,3.07q10.13,1.59,20.42,3.3-25.59,35.65-51.88,72.25-26.65,37.07-54.13,75.13Q670.79,439.42,642,479q-29.22,40.15-59.53,81.41L565.27,549m253,35L619.56,511.37l154.87-215.7L965.15,360,818.32,584"/><path class="cls-1" d="M682.25,360q-.77,2.61-1.8,5.17t-2.34,5.11q-1.31,2.55-2.89,5.1t-3.45,5.14a83.34,83.34,0,0,1-5.84,7,87.87,87.87,0,0,1-6.89,6.67,94.3,94.3,0,0,1-8,6.21,103.08,103.08,0,0,1-9.13,5.66q-2.85,1.57-5.84,3t-6.13,2.59q-3.14,1.19-6.45,2.17t-6.79,1.7q-3,.62-6,1t-6,.55q-3,.15-6,0t-6-.54q-1.45-.2-2.84-.46t-2.73-.58q-1.33-.32-2.61-.7T582,414a43.14,43.14,0,0,1-4.54-1.91,39,39,0,0,1-4.11-2.34,36.74,36.74,0,0,1-3.69-2.75,36.17,36.17,0,0,1-3.27-3.15,35.23,35.23,0,0,1-3.42-4.36,32.78,32.78,0,0,1-2.53-4.58,33.43,33.43,0,0,1-1.73-4.77,37.09,37.09,0,0,1-1-4.93,39.31,39.31,0,0,1-.37-5.34,42.06,42.06,0,0,1,.33-5.3,47.47,47.47,0,0,1,1-5.26q.63-2.62,1.55-5.23.6-1.72,1.3-3.42t1.53-3.37q.82-1.67,1.74-3.31t1.94-3.27q.81-1.29,1.69-2.55t1.82-2.5q.93-1.24,1.92-2.46t2-2.43a4.09,4.09,0,0,1,.49-.49,3.78,3.78,0,0,1,.57-.4,4.46,4.46,0,0,1,.69-.32,6.37,6.37,0,0,1,.84-.24q3.25-.68,6.33-1.6t6-2q2.93-1.11,5.72-2.4t5.47-2.72q3-1.59,5.75-3.32t5.35-3.58q2.57-1.85,5-3.82t4.59-4l1.16-1.12,1.13-1.13,1.12-1.13,1.14-1.13.22-.18.27-.17.3-.13.31-.09q3.71-.73,7.39-1.1a67.93,67.93,0,0,1,7.35-.34,60.62,60.62,0,0,1,7.3.5,56.79,56.79,0,0,1,7.23,1.42l.85.23.84.25.82.26.81.27a43.89,43.89,0,0,1,4.39,1.77,39.8,39.8,0,0,1,4,2.14,37.48,37.48,0,0,1,3.57,2.49,36.75,36.75,0,0,1,3.18,2.82,35.42,35.42,0,0,1,3.29,3.76,32.5,32.5,0,0,1,4.49,8.12,34.91,34.91,0,0,1,1.32,4.32,38,38,0,0,1,.89,5.58,40.1,40.1,0,0,1,.07,5.58,45.18,45.18,0,0,1-.67,5.59A53.6,53.6,0,0,1,682.25,360Zm-35.44,17.65a38.14,38.14,0,0,0,3.07-3.16,37.61,37.61,0,0,0,2.57-3.32,39.66,39.66,0,0,0,2.12-3.46c.64-1.18,1.22-2.37,1.75-3.58a33.53,33.53,0,0,0,1.28-3.47c.36-1.16.65-2.33.89-3.5s.43-2.35.58-3.52.26-2.36.34-3.54a1.26,1.26,0,0,0,0-.13s0-.09,0-.14l0-.15,0-.16-2.2-.16L655,349.2l-2.15-.15-2.12-.15-.07.09,0,.06,0,0v0q0,.13,0,.25t0,.25v.51c0,.91-.06,1.82-.12,2.73s-.15,1.82-.29,2.73a27.33,27.33,0,0,1-.53,2.71,22.82,22.82,0,0,1-.85,2.69c-.31.81-.65,1.61-1,2.4a23.82,23.82,0,0,1-1.27,2.33,19.74,19.74,0,0,1-1.61,2.23,19,19,0,0,1-2.05,2.1c-.46.41-.94.8-1.45,1.16a18.09,18.09,0,0,1-1.59,1,17,17,0,0,1-1.76.89,17.33,17.33,0,0,1-2,.72,13.47,13.47,0,0,1-2,.45,12.31,12.31,0,0,1-4-.1,13.34,13.34,0,0,1-2-.53l-.07,0-.07,0-.07,0-.07,0q-.49-.18-.95-.4t-.87-.46a9.16,9.16,0,0,1-.79-.52,8.1,8.1,0,0,1-.71-.59l-.68-.65-.67-.66-.64-.67-.61-.69c-.52-.61-1-1.24-1.46-1.88s-.86-1.28-1.25-1.94-.75-1.32-1.09-2-.67-1.34-1-2l-2.14-4.56L612.81,352l-2.12-4.54-2.12-4.53-.24-.5-.25-.5-.25-.51-.26-.52-1.83-.23-1.82-.23-1.82-.23-1.83-.23-5.15,9.31-5.17,9.34L584.75,368l-5.23,9.46,1.81.31,1.78.31,1.78.31,1.81.31,3.68-6.7,3.66-6.66,3.64-6.62,3.62-6.59h.3l.07.1.07.1.07.1.06.1,1.92,3.9,1.92,3.9,1.94,3.91,2,3.92.89,1.75q.45.87.92,1.74t1,1.73q.49.86,1,1.72t1,1.54q.55.76,1.19,1.48t1.34,1.41q.71.69,1.49,1.35.38.32.79.63t.85.59q.44.28.92.53t1,.46l.24.1.24.09.24.09.24.09a21.2,21.2,0,0,0,3.35.88,20.43,20.43,0,0,0,3.41.31,21.3,21.3,0,0,0,3.46-.26,23.85,23.85,0,0,0,3.51-.83,25.69,25.69,0,0,0,3-1.14,25.38,25.38,0,0,0,2.65-1.41,27.34,27.34,0,0,0,2.38-1.63c.75-.58,1.47-1.18,2.16-1.81"/><path class="cls-4" d="M659.41,350.09c-.08,1.18-.19,2.36-.34,3.54s-.34,2.35-.58,3.52-.54,2.34-.89,3.5a33.54,33.54,0,0,1-1.28,3.47c-.53,1.21-1.11,2.41-1.75,3.58a39.66,39.66,0,0,1-2.12,3.46,37.6,37.6,0,0,1-2.57,3.32,38.13,38.13,0,0,1-3.07,3.16c-.69.63-1.4,1.23-2.16,1.81a27.32,27.32,0,0,1-2.38,1.63,25.38,25.38,0,0,1-2.65,1.41,25.69,25.69,0,0,1-3,1.14,23.85,23.85,0,0,1-3.51.83,21.29,21.29,0,0,1-3.46.26,20.43,20.43,0,0,1-3.41-.31,21.2,21.2,0,0,1-3.36-.88l-.24-.09-.24-.09-.24-.09-.24-.1q-.53-.21-1-.47t-.92-.53q-.44-.28-.85-.59t-.79-.63q-.78-.66-1.49-1.35t-1.34-1.41q-.63-.72-1.19-1.48t-1-1.54q-.51-.86-1-1.72t-1-1.73q-.47-.87-.92-1.74l-.89-1.75-2-3.92-1.94-3.91-1.92-3.9-1.92-3.9-.06-.1-.07-.1-.07-.1-.07-.1h-.3l-3.62,6.59L594,365.38,590.39,372l-3.68,6.7-1.81-.31-1.78-.31-1.78-.31-1.81-.31,5.23-9.46,5.19-9.39,5.17-9.34,5.15-9.31,1.83.23,1.82.23,1.82.23,1.83.23.26.52.25.51.25.5.24.5,2.12,4.53,2.12,4.54,2.13,4.55,2.14,4.57c.32.68.64,1.35,1,2s.71,1.33,1.09,2,.8,1.3,1.25,1.94.93,1.26,1.46,1.88l.61.69.64.67.67.66.68.65a8.08,8.08,0,0,0,.71.59,9.15,9.15,0,0,0,.79.52q.42.25.87.46t.95.4l.07,0,.07,0,.07,0,.07,0a13.34,13.34,0,0,0,2,.53,12.31,12.31,0,0,0,4,.1,13.47,13.47,0,0,0,2-.45,17.33,17.33,0,0,0,2-.72,17,17,0,0,0,1.76-.89,18.1,18.1,0,0,0,1.59-1c.5-.37,1-.76,1.45-1.16a19,19,0,0,0,2-2.1,19.74,19.74,0,0,0,1.61-2.23,23.83,23.83,0,0,0,1.27-2.33c.38-.79.72-1.59,1-2.4a22.82,22.82,0,0,0,.85-2.69,27.33,27.33,0,0,0,.53-2.71c.13-.91.22-1.82.29-2.73s.1-1.82.12-2.73v-.51q0-.13,0-.25t0-.25v0l0,0,0-.06.07-.09,2.12.15,2.15.15,2.17.15,2.2.16,0,.16,0,.15s0,.09,0,.14A1.24,1.24,0,0,1,659.41,350.09Z"/><path class="cls-1" d="M550.84,403.18a2.18,2.18,0,0,1,.18.47,1.2,1.2,0,0,1,0,.44,1.28,1.28,0,0,1-.15.44,2.49,2.49,0,0,1-.34.47q-1.79,2-3.71,4t-4,3.89q-2.06,1.91-4.26,3.75t-4.56,3.61q-2.72,2-5.61,3.94t-6,3.64q-3.07,1.74-6.35,3.3t-6.79,2.91q-2.57,1-5.2,1.83t-5.34,1.5q-2.71.66-5.5,1.12t-5.68.7q-2.62.22-5.19.21t-5.07-.25a48,48,0,0,1-4.93-.74,44.32,44.32,0,0,1-4.79-1.25l-.35-.12-.35-.12-.35-.12-.34-.12a38.41,38.41,0,0,1-3.68-1.56,35.21,35.21,0,0,1-3.33-1.85,33.27,33.27,0,0,1-5.68-4.49,32.61,32.61,0,0,1-3-3.4,31.33,31.33,0,0,1-2.38-3.6,32.5,32.5,0,0,1-1.82-3.77,36.17,36.17,0,0,1-1.33-3.92,40.61,40.61,0,0,1-1.14-5.59,43.51,43.51,0,0,1-.37-5.61,49.69,49.69,0,0,1,.32-5.62c.21-1.88.52-3.75.91-5.63q.51-2.44,1.22-4.85t1.6-4.78q.89-2.37,2-4.71t2.31-4.65q.57-1.07,1.18-2.12t1.24-2.1q.64-1,1.3-2.08t1.36-2.07q.88-1.31,1.82-2.61t1.92-2.56q1-1.27,2-2.52t2.13-2.48q2.58-2.91,5.4-5.69t5.92-5.38q3.09-2.61,6.47-5t7.07-4.68q2.57-1.56,5.26-3t5.5-2.72q2.82-1.28,5.78-2.4t6.09-2.06q2-.6,4.07-1.1t4.14-.88q2.09-.38,4.21-.64t4.3-.38l.39,0,.4,0,.41,0,.44,0,.09.29.08.27.08.27.07.26c.24.86.53,1.7.86,2.53a24.37,24.37,0,0,0,1.13,2.46,23.16,23.16,0,0,0,1.45,2.38,23.43,23.43,0,0,0,1.81,2.28,26.78,26.78,0,0,0,2.52,2.46,27.18,27.18,0,0,0,2.83,2.12,29,29,0,0,0,3.14,1.77,32.25,32.25,0,0,0,3.45,1.43q1.45.51,3,.9t3.18.68q1.64.29,3.37.46t3.57.25l.42,0h1.43l-.1.18-.08.15-.07.13-.08.11q-1.13,1.45-2.2,2.92t-2.06,3q-1,1.5-1.92,3t-1.76,3.07a81.54,81.54,0,0,0-4,8.37,65.44,65.44,0,0,0-2.81,8.52,55.55,55.55,0,0,0-1.49,8.69,51.15,51.15,0,0,0,0,8.87q.17,2,.51,3.9t.87,3.85q.53,1.91,1.26,3.79A40.67,40.67,0,0,0,550.84,403.18Zm-45.05,11.53a88.55,88.55,0,0,0,8.7-4.77,66.4,66.4,0,0,0,7.5-5.43,51.62,51.62,0,0,0,6.2-6.14,43.11,43.11,0,0,0,4.79-6.91q.73-1.32,1.32-2.66a25.19,25.19,0,0,0,1-2.7,21.54,21.54,0,0,0,.65-2.74,19.34,19.34,0,0,0,.26-2.78,20.78,20.78,0,0,0-.1-2.56,17.42,17.42,0,0,0-.45-2.51,15.77,15.77,0,0,0-2.13-4.81,10.94,10.94,0,0,0-1.12-1.43,10.68,10.68,0,0,0-1.32-1.2,11.11,11.11,0,0,0-1.52-1,12.25,12.25,0,0,0-1.7-.75,14.14,14.14,0,0,0-1.92-.53,16.82,16.82,0,0,0-2.09-.28,20.34,20.34,0,0,0-2.25,0q-1.16,0-2.4.21-.93.13-1.84.31t-1.8.41q-.89.23-1.75.51t-1.71.59q-2.48.92-4.79,2t-4.48,2.27q-2.17,1.2-4.18,2.55t-3.89,2.82l-.17.12-.18.12-.19.11-.19.12q-.49-2-1-4.06t-.92-4l-.9-4-.89-4a.72.72,0,0,1,0-.24.53.53,0,0,1,.07-.21.72.72,0,0,1,.16-.19,1.44,1.44,0,0,1,.25-.17l.83-.46.82-.46.82-.46.82-.46,6.52-3.66,6.5-3.65,6.5-3.65,6.49-3.63a3,3,0,0,0,.44-.29,1.09,1.09,0,0,0,.26-.3.68.68,0,0,0,.09-.34,1.13,1.13,0,0,0-.08-.41c-.14-.36-.26-.72-.38-1.08s-.24-.72-.35-1.09l-.34-1.09-.35-1.09-.1-.31-.1-.31-.11-.33-.12-.35-.32.16-.28.14-.25.13-.24.13-9.7,5.49-9.73,5.5-9.76,5.52L478.89,360a3.06,3.06,0,0,0-.43.29,1.24,1.24,0,0,0-.27.3.82.82,0,0,0-.12.34,1.21,1.21,0,0,0,0,.41l1.62,7.21,1.62,7.24L483,383l1.63,7.3c0,.06,0,.13.06.19l.07.2.08.22.09.24.16-.13.13-.1.1-.08.09-.07q1.54-1.3,3.13-2.57t3.26-2.47q1.67-1.21,3.42-2.36t3.61-2.23q1.1-.64,2.23-1.24t2.31-1.15q1.18-.55,2.41-1t2.53-.9q.69-.22,1.39-.39t1.42-.31q.72-.13,1.45-.2c.49,0,1-.07,1.49-.08q.48,0,.94,0t.9.1q.44.07.86.17t.82.25l.36.14.35.15.34.17.33.19a7,7,0,0,1,.88.63,6.57,6.57,0,0,1,.72.7,6.83,6.83,0,0,1,.58.77,7.87,7.87,0,0,1,.47.82,12.28,12.28,0,0,1,.86,2.24,11,11,0,0,1,.37,2.27,11.22,11.22,0,0,1-.11,2.31,12.9,12.9,0,0,1-.58,2.33,20.33,20.33,0,0,1-1.44,3.21,23.65,23.65,0,0,1-2,3,29.14,29.14,0,0,1-2.53,2.84,37.05,37.05,0,0,1-3,2.66,53.31,53.31,0,0,1-10.92,6.71,56.17,56.17,0,0,1-6.29,2.44,61.63,61.63,0,0,1-6.88,1.77l-.13,0-.13,0-.14.05-.17.06.32,2.11.33,2.12.33,2.16.34,2.22,1.13-.3L492,420l1-.28,1-.29q1.56-.47,3.07-1t3-1.15q1.46-.6,2.88-1.25t2.82-1.32"/></g></g></svg>