<svg xmlns="http://www.w3.org/2000/svg" viewBox="0 0 1200 1200"><defs><style>.cls-1{fill:#fff;}.cls-2{fill:none;stroke:#47693e;stroke-linecap:round;stroke-linejoin:round;stroke-width:10px;}.cls-3{isolation:isolate;}.cls-4{fill:#8cc172;}.cls-5{fill:#47693e;}</style></defs><title>book-cresus-facturation</title><g id="Calque_1" data-name="Calque 1"><polygon class="cls-1" points="1081 511 679 1164 68 909 31 709 1118 293 1081 511"/><polyline class="cls-2" points="31 709 68 909 679 1164 1081 511"/><polyline class="cls-2" points="144.36 851.2 675 1066 1107 393"/></g><g id="Calque_2" data-name="Calque 2"><g class="cls-3"><path class="cls-1" d="M627.77,292.21q-.77,1.68-1.67,3.31t-1.94,3.24q-1,1.6-2.21,3.17t-2.47,3.1a78,78,0,0,1-5.42,5.76,76.49,76.49,0,0,1-6.18,5.33,78.77,78.77,0,0,1-7,4.84,85,85,0,0,1-7.93,4.29q-1.9.91-3.88,1.72t-4,1.5q-2.05.69-4.19,1.26t-4.37,1c-1.27.25-2.55.45-3.83.61s-2.56.27-3.84.33-2.56.06-3.85,0a38.1,38.1,0,0,1-3.85-.36q-.89-.13-1.74-.29t-1.67-.36q-.81-.2-1.59-.42t-1.52-.49a27,27,0,0,1-3.36-1.42,23.15,23.15,0,0,1-2.95-1.78,21.07,21.07,0,0,1-2.54-2.13A20.57,20.57,0,0,1,543.6,322a19.24,19.24,0,0,1-1.4-2.18,19,19,0,0,1-1.05-2.26,20.15,20.15,0,0,1-.74-2.32,22.65,22.65,0,0,1-.47-2.37,26.39,26.39,0,0,1-.27-4.1,28.58,28.58,0,0,1,.34-4.06,33.16,33.16,0,0,1,.89-4,40.47,40.47,0,0,1,1.38-4c.46-1.13,1-2.25,1.49-3.34s1.1-2.15,1.69-3.17,1.2-2,1.81-2.89,1.24-1.75,1.86-2.51c1.63-2.09,3.3-4.06,5-5.92a75.59,75.59,0,0,1,5.44-5.26,74.76,74.76,0,0,1,6-4.69c2.08-1.48,4.27-2.87,6.58-4.2q2.36-1.36,4.85-2.58t5.1-2.27q2.62-1.05,5.39-1.92t5.71-1.51c1.36-.3,2.73-.56,4.1-.76s2.75-.35,4.13-.43,2.76-.1,4.15-.06a39.58,39.58,0,0,1,4.18.37q.88.13,1.72.28t1.64.34q.8.19,1.57.41t1.5.47a26.93,26.93,0,0,1,3.6,1.51,22.68,22.68,0,0,1,3.11,1.91,20.49,20.49,0,0,1,2.64,2.3,20.26,20.26,0,0,1,3.79,5.53,19.93,19.93,0,0,1,1.08,2.93,21.86,21.86,0,0,1,.62,3,26.13,26.13,0,0,1,.23,3.07,28,28,0,0,1-.18,3.79,31.37,31.37,0,0,1-.67,3.75,36.94,36.94,0,0,1-1.11,3.72Q628.62,290.37,627.77,292.21ZM566.11,314.5l.82.25.81.26c.27.09.55.17.83.23a8.25,8.25,0,0,0,.87.17l8.88-11.56,8.82-11.47L595.92,281l8.73-11.35-1.25-.27-1.22-.26-1.2-.27-1.18-.29a4.47,4.47,0,0,0-.64-.12,3.6,3.6,0,0,0-.6,0,3.8,3.8,0,0,0-.6.08,5.25,5.25,0,0,0-.62.18l-4,1.41-4,1.4-4,1.4-4,1.4-.29.1-.29.11-.3.11-.31.12-.23,1.33-.23,1.34-.23,1.36-.24,1.4.86-.31.81-.29.78-.28.76-.27.76-.27.76-.27.76-.27.76-.27.79-.29.79-.29.79-.28.79-.27.74-.27.75-.29c.26-.09.53-.18.82-.27a8.94,8.94,0,0,1,.94-.21l-7.24,9.39-7.25,9.41L570,304l-7.32,9.51.91.27.86.26.83.24.81.23"/><path class="cls-4" d="M659.42,350.09c-.08,1.18-.19,2.36-.34,3.54s-.34,2.35-.58,3.52-.54,2.34-.9,3.5a33.55,33.55,0,0,1-1.28,3.47c-.53,1.21-1.11,2.41-1.75,3.58a39.66,39.66,0,0,1-2.12,3.46,37.6,37.6,0,0,1-2.57,3.32,38.13,38.13,0,0,1-3.07,3.16c-.69.63-1.4,1.24-2.15,1.81a27.14,27.14,0,0,1-2.38,1.63,25.37,25.37,0,0,1-2.65,1.41,25.77,25.77,0,0,1-3,1.14,23.9,23.9,0,0,1-3.51.83,21.28,21.28,0,0,1-3.46.26,20.4,20.4,0,0,1-3.41-.31,21.17,21.17,0,0,1-3.35-.88l-.24-.09-.24-.09-.24-.09-.24-.1q-.53-.21-1-.47t-.92-.53q-.44-.28-.85-.59c-.27-.2-.54-.41-.79-.63q-.78-.66-1.49-1.35t-1.34-1.41q-.63-.72-1.18-1.48t-1-1.54q-.51-.86-1-1.72t-1-1.73q-.47-.87-.92-1.74l-.89-1.75-2-3.92-1.94-3.91-1.92-3.9-1.92-3.9-.06-.1-.06-.1-.07-.1-.07-.1h-.29l-3.62,6.59L594,365.38,590.38,372l-3.68,6.7-1.81-.31-1.78-.31-1.78-.31-1.81-.31,5.23-9.46,5.2-9.39,5.17-9.34,5.15-9.31,1.83.23,1.82.23,1.82.23,1.83.23.26.52.25.51.25.5.24.5,2.12,4.53,2.13,4.54,2.13,4.56,2.14,4.57c.31.68.64,1.35,1,2s.71,1.33,1.09,2,.8,1.3,1.25,1.94.93,1.26,1.45,1.88l.61.69.64.67.67.66.69.65a8,8,0,0,0,.7.59,9.06,9.06,0,0,0,.79.52q.42.25.87.46t.95.4l.07,0,.07,0,.07,0,.07,0a13.34,13.34,0,0,0,2,.53,12.35,12.35,0,0,0,4,.1,13.58,13.58,0,0,0,2-.45,17.49,17.49,0,0,0,2-.72,17.09,17.09,0,0,0,1.76-.89,18.13,18.13,0,0,0,1.59-1c.5-.37,1-.76,1.45-1.16a18.92,18.92,0,0,0,2-2.1,19.69,19.69,0,0,0,1.61-2.23,23.87,23.87,0,0,0,1.27-2.33c.38-.79.72-1.59,1-2.4a22.85,22.85,0,0,0,.85-2.69,27.35,27.35,0,0,0,.53-2.71c.13-.91.22-1.82.29-2.73s.1-1.82.12-2.73v-1l0,0,0-.06.07-.09,2.12.15,2.15.15,2.17.15,2.2.16c0,.06,0,.11,0,.16l0,.15s0,.09,0,.14A1.14,1.14,0,0,1,659.42,350.09Z"/><path class="cls-4" d="M536.2,380.56a19.44,19.44,0,0,1-.26,2.78,21.64,21.64,0,0,1-.65,2.74,25.29,25.29,0,0,1-1,2.7q-.58,1.34-1.32,2.66a43.16,43.16,0,0,1-4.79,6.91A51.6,51.6,0,0,1,522,404.5a66.29,66.29,0,0,1-7.5,5.43,88.31,88.31,0,0,1-8.71,4.77q-1.4.67-2.82,1.32t-2.88,1.25q-1.46.6-3,1.15t-3.07,1l-1,.29-1,.28-1.08.28-1.13.3-.34-2.22-.33-2.16-.33-2.13-.32-2.11.17-.06.15-.05.13,0,.12,0a61.63,61.63,0,0,0,6.87-1.77,56.17,56.17,0,0,0,6.29-2.44,53.3,53.3,0,0,0,10.92-6.71,37.21,37.21,0,0,0,3-2.66,29.19,29.19,0,0,0,2.53-2.84,23.63,23.63,0,0,0,2-3,20.27,20.27,0,0,0,1.44-3.21,13,13,0,0,0,.58-2.34,11.26,11.26,0,0,0,.11-2.31,11,11,0,0,0-.37-2.27,12.29,12.29,0,0,0-.86-2.24,7.94,7.94,0,0,0-.47-.82,6.79,6.79,0,0,0-.58-.77,6.52,6.52,0,0,0-.72-.7,7,7,0,0,0-.89-.63l-.33-.19-.34-.17-.35-.15-.36-.14q-.4-.14-.82-.24t-.86-.17q-.44-.07-.9-.1t-.94,0c-.5,0-1,0-1.49.08s-1,.11-1.45.2-1,.19-1.42.3-.93.25-1.4.39q-1.3.41-2.53.9t-2.41,1q-1.18.55-2.31,1.15t-2.23,1.24q-1.86,1.08-3.61,2.22t-3.42,2.36q-1.67,1.21-3.26,2.47t-3.13,2.57l-.09.07-.1.08-.13.1-.16.13-.09-.24-.08-.22-.07-.2c0-.06,0-.13-.05-.19L483,383l-1.62-7.27-1.62-7.24q-.81-3.61-1.62-7.21a1.21,1.21,0,0,1,0-.41.82.82,0,0,1,.12-.34,1.24,1.24,0,0,1,.27-.3,3.06,3.06,0,0,1,.43-.29l9.8-5.53,9.76-5.52,9.73-5.5,9.7-5.49.24-.13.25-.13.28-.14.32-.16.12.35.11.33.1.31.1.31.35,1.09.34,1.09c.12.36.23.73.36,1.09s.25.72.39,1.08a1.15,1.15,0,0,1,.08.41.69.69,0,0,1-.09.34,1.09,1.09,0,0,1-.26.3,3,3,0,0,1-.44.29L513.63,348l-6.5,3.65-6.5,3.65-6.52,3.66-.82.46-.82.46-.82.46-.83.46a1.49,1.49,0,0,0-.25.17.72.72,0,0,0-.16.18.52.52,0,0,0-.07.21.7.7,0,0,0,0,.24l.88,3.95.88,4,.88,4,.88,4,.27,0,.23-.07.2-.1.17-.12q1.87-1.48,3.89-2.82t4.18-2.55q2.17-1.2,4.48-2.27t4.79-2q.84-.31,1.71-.59t1.75-.51q.89-.23,1.8-.41t1.84-.31q1.24-.17,2.41-.21a20.39,20.39,0,0,1,2.25,0,16.84,16.84,0,0,1,2.09.28,14.13,14.13,0,0,1,1.92.53,12.25,12.25,0,0,1,1.7.75,11.13,11.13,0,0,1,1.52,1,10.7,10.7,0,0,1,1.33,1.2,11,11,0,0,1,1.12,1.43,15.85,15.85,0,0,1,2.13,4.81,17.44,17.44,0,0,1,.45,2.51A20.67,20.67,0,0,1,536.2,380.56Z"/><path class="cls-5" d="M840.35,463.07,828.5,458.9l-1.84-9.17a1.08,1.08,0,0,0-.13-.33,1.37,1.37,0,0,0-.23-.29,1.78,1.78,0,0,0-.33-.25,2.23,2.23,0,0,0-.41-.19l-33.8-11.87-.17-11.06,11.18-16.22,8.74-2.08,34,11.8a21.4,21.4,0,0,1,3.94,1.81,14.06,14.06,0,0,1,3.45,2.84,10.51,10.51,0,0,1,2.21,4.09,12.76,12.76,0,0,1,.2,5.56l-7.75,24.29Z"/><path class="cls-5" d="M678.34,451.95l-7.25-2.59a22.17,22.17,0,0,0,1.21-3.09,20.91,20.91,0,0,0,.7-3.11,20.63,20.63,0,0,0,.22-3.1A21.18,21.18,0,0,0,673,437l10.12-14.1,79.24,28L747.71,472a.78.78,0,0,0-.1.21.83.83,0,0,0,0,.22,1.16,1.16,0,0,0,0,.22,2,2,0,0,0,0,.22l-.78.65-.76.67-.73.69-.71.71-7.4-2.64L748.5,456.8a3.25,3.25,0,0,0,.59-1.59,3.07,3.07,0,0,0-.3-1.58,4.09,4.09,0,0,0-1.1-1.38,5.93,5.93,0,0,0-1.82-1l-5.2-1.84.86-1.23a1.08,1.08,0,0,0,.2-.53,1,1,0,0,0-.1-.52,1.36,1.36,0,0,0-.37-.46,2,2,0,0,0-.6-.33l-3.47-1.23a2.54,2.54,0,0,0-.74-.14,2.67,2.67,0,0,0-.73.07,2.24,2.24,0,0,0-.64.26,1.57,1.57,0,0,0-.47.43l-.86,1.23-24.18-8.57.87-1.23a1.09,1.09,0,0,0,.2-.53,1,1,0,0,0-.09-.52,1.32,1.32,0,0,0-.36-.46,1.94,1.94,0,0,0-.6-.33l-3.45-1.22a2.53,2.53,0,0,0-.73-.14,2.67,2.67,0,0,0-.73.07,2.26,2.26,0,0,0-.64.26,1.58,1.58,0,0,0-.47.43l-.87,1.22-5.16-1.83a7.62,7.62,0,0,0-2.21-.42,8.06,8.06,0,0,0-2.2.21,6.8,6.8,0,0,0-1.94.78,4.74,4.74,0,0,0-1.43,1.28Z"/><path class="cls-5" d="M782.77,486.09a18.23,18.23,0,0,1,5.55,3.09,12.72,12.72,0,0,1,3.39,4.24,9.58,9.58,0,0,1,1,4.84,10,10,0,0,1-1.75,4.89,14.07,14.07,0,0,1-4.26,4,20.12,20.12,0,0,1-5.88,2.42,24.1,24.1,0,0,1-6.73.64,23.2,23.2,0,0,1-6.8-1.32,18.17,18.17,0,0,1-5.56-3.12,12.65,12.65,0,0,1-3.37-4.27,9.56,9.56,0,0,1-.91-4.85,10,10,0,0,1,1.79-4.87,14.14,14.14,0,0,1,4.27-4,20.16,20.16,0,0,1,5.86-2.39,24.11,24.11,0,0,1,6.69-.64A23.22,23.22,0,0,1,782.77,486.09Z"/><path class="cls-5" d="M774.17,296,964.9,360.38,818,584.43,619.27,511.78l35.59-49.56,7.68,2.76a12.52,12.52,0,0,0,3.24.69,13.52,13.52,0,0,0,3.27-.14,12.37,12.37,0,0,0,3-.9,9.51,9.51,0,0,0,2.48-1.59l8.81,3.16,3.47,1.24,17.34,6.21a2.53,2.53,0,0,0,.74.14,2.67,2.67,0,0,0,.74-.07,2.26,2.26,0,0,0,.65-.26,1.6,1.6,0,0,0,.48-.44l.88-1.25,7,2.49-.88,1.25a1.11,1.11,0,0,0-.2.54,1,1,0,0,0,.09.53,1.35,1.35,0,0,0,.36.47,2,2,0,0,0,.6.34l3.49,1.25a2.55,2.55,0,0,0,.74.14,2.69,2.69,0,0,0,.74-.07,2.27,2.27,0,0,0,.65-.26,1.59,1.59,0,0,0,.48-.44l.87-1.25,5.23,1.87a7.65,7.65,0,0,0,2.24.43,8,8,0,0,0,2.22-.21,6.77,6.77,0,0,0,2-.79,4.74,4.74,0,0,0,1.43-1.31l.87-1.26L742.6,478l-.24.31-.25.3-.24.31-.23.31a1.11,1.11,0,0,0-.2.54,1,1,0,0,0,.1.53,1.38,1.38,0,0,0,.37.47,2,2,0,0,0,.61.34,2.57,2.57,0,0,0,.75.15,2.67,2.67,0,0,0,.74-.07,2.24,2.24,0,0,0,.65-.26,1.58,1.58,0,0,0,.48-.44l4.41,1.58q-.63.53-1.22,1.09t-1.15,1.14q-.55.58-1.06,1.2t-1,1.27a18.88,18.88,0,0,0-3.41,9.18,18,18,0,0,0,1.69,9.16,23.84,23.84,0,0,0,6.34,8.08,34.27,34.27,0,0,0,10.52,5.93,43.79,43.79,0,0,0,12.87,2.51,45.52,45.52,0,0,0,12.75-1.22A38,38,0,0,0,797,515.81a26.5,26.5,0,0,0,8-7.58q.44-.66.81-1.33t.67-1.35c.2-.45.39-.91.55-1.36s.32-.92.45-1.37l3.72,1.33-1.1,3.07a1,1,0,0,0,0,.49,1.15,1.15,0,0,0,.18.46,1.55,1.55,0,0,0,.38.4,2.12,2.12,0,0,0,.55.29L829,515.22a2.62,2.62,0,0,0,.66.14,2.72,2.72,0,0,0,.66,0,2.38,2.38,0,0,0,.61-.18,1.8,1.8,0,0,0,.5-.33l12-11.47a1.42,1.42,0,0,0,.22-.27,1.16,1.16,0,0,0,.13-.3,1,1,0,0,0,0-.31,1.07,1.07,0,0,0-.06-.32,1.22,1.22,0,0,0-.15-.3,1.49,1.49,0,0,0-.23-.26,1.85,1.85,0,0,0-.31-.22,2.24,2.24,0,0,0-.37-.17l-6-2.14,1-.53,2.07-2.77a26.35,26.35,0,0,0,8.74-8.19,21.59,21.59,0,0,0,2.48-5,15.44,15.44,0,0,0,.86-5l1.64-2.47,10.94-36a38.08,38.08,0,0,0,1.28-5.46,20.51,20.51,0,0,0,.18-5,14.52,14.52,0,0,0-1.19-4.58,15.75,15.75,0,0,0-2.83-4.23,34.33,34.33,0,0,0-5.4-13.59,64.48,64.48,0,0,0-10.56-12.17,125.45,125.45,0,0,0-13.62-10.72c-4.82-3.33-9.81-6.42-14.63-9.26l12.75-18.43a.5.5,0,0,0,.09-.25.47.47,0,0,0-.05-.25.66.66,0,0,0-.18-.22,1,1,0,0,0-.3-.16l-78.67-26.86Z"/><path class="cls-5" d="M1120.27,291.95a2.67,2.67,0,0,1,.27.62,2.34,2.34,0,0,1,.09.64,2.23,2.23,0,0,1-.09.63,2.36,2.36,0,0,1-.27.6L692,979.16a4.51,4.51,0,0,1-.6.76,5.26,5.26,0,0,1-.77.65,6,6,0,0,1-.91.51,6.41,6.41,0,0,1-1,.36,6.64,6.64,0,0,1-1.08.2,6.92,6.92,0,0,1-2.19-.14,6.47,6.47,0,0,1-1-.33L28.28,710.79a4.57,4.57,0,0,1-.79-.42,3.88,3.88,0,0,1-.65-.54,3.28,3.28,0,0,1-.48-.64,2.87,2.87,0,0,1-.29-.72,2.9,2.9,0,0,1-.09-.77,3.18,3.18,0,0,1,.11-.78,3.68,3.68,0,0,1,.31-.77,4.33,4.33,0,0,1,.49-.73l500-604.15a3.39,3.39,0,0,1,.5-.49,4.4,4.4,0,0,1,.63-.42,5.36,5.36,0,0,1,.73-.33,6.09,6.09,0,0,1,.82-.24,6.62,6.62,0,0,1,.86-.13,6.94,6.94,0,0,1,.88,0,6.66,6.66,0,0,1,.86.09,5.83,5.83,0,0,1,.81.2l584.74,190.13a6.1,6.1,0,0,1,.83.34,5.25,5.25,0,0,1,.73.44,4.25,4.25,0,0,1,.6.52A3.3,3.3,0,0,1,1120.27,291.95Zm-278.64,429,267.94-426.46-577-188L219.93,485.51,38.56,705.43l646,265.5,157.08-250"/><path class="cls-4" d="M582.35,279l-.76.27-.78.28-.81.29-.86.31.24-1.4.23-1.36.23-1.34.23-1.33.31-.11.3-.11.29-.11.29-.1,4-1.4,4-1.4,4-1.4,4-1.41a5.25,5.25,0,0,1,.62-.18,3.8,3.8,0,0,1,.6-.08,3.6,3.6,0,0,1,.6,0,4.47,4.47,0,0,1,.64.12l1.18.29,1.2.27,1.22.26,1.25.27L595.92,281l-8.77,11.41-8.82,11.47-8.88,11.56a8.26,8.26,0,0,1-.87-.17c-.28-.07-.56-.15-.83-.23l-.81-.26-.82-.25-.81-.23-.83-.24-.86-.26-.91-.27L570,304l7.28-9.44,7.25-9.41,7.24-9.39a8.94,8.94,0,0,0-.94.21c-.29.08-.56.17-.82.27l-.75.29-.74.27-.79.27-.79.28-.79.29-.79.29-.76.27-.76.27-.76.27Z"/><path class="cls-1" d="M550.84,403.18a2.15,2.15,0,0,1,.18.47,1.19,1.19,0,0,1,0,.44,1.29,1.29,0,0,1-.15.44,2.55,2.55,0,0,1-.34.47q-1.79,2-3.71,4t-4,3.89q-2.06,1.91-4.27,3.75t-4.56,3.6q-2.72,2-5.6,3.94t-6,3.64q-3.08,1.74-6.35,3.3t-6.79,2.91q-2.57,1-5.2,1.83t-5.34,1.5q-2.71.66-5.51,1.12t-5.68.7q-2.62.22-5.19.21t-5.07-.25a48.07,48.07,0,0,1-4.94-.74,44.35,44.35,0,0,1-4.79-1.25l-.35-.12-.35-.12-.35-.12-.34-.12a38.35,38.35,0,0,1-3.68-1.56,35.23,35.23,0,0,1-3.33-1.85,33.4,33.4,0,0,1-5.69-4.5,32.59,32.59,0,0,1-3-3.4,31.28,31.28,0,0,1-2.38-3.6,32.39,32.39,0,0,1-1.82-3.77,36,36,0,0,1-1.33-3.91,40.71,40.71,0,0,1-1.14-5.59,43.5,43.5,0,0,1-.37-5.61,49.49,49.49,0,0,1,.32-5.62c.21-1.87.52-3.75.92-5.63q.51-2.44,1.22-4.85t1.6-4.78q.89-2.37,2-4.71t2.3-4.65q.57-1.07,1.18-2.12t1.24-2.1q.64-1,1.3-2.08t1.36-2.07q.88-1.31,1.82-2.61t1.92-2.56q1-1.27,2-2.52t2.13-2.48q2.58-2.91,5.41-5.68t5.92-5.38q3.09-2.61,6.47-5t7.08-4.68q2.57-1.56,5.26-3t5.5-2.72q2.82-1.28,5.78-2.41t6.09-2.06q2-.6,4.07-1.1t4.14-.88q2.09-.38,4.21-.64t4.3-.38l.39,0,.4,0,.41,0,.43,0,.09.29.08.27.08.27.08.26c.24.86.53,1.7.86,2.53a24.39,24.39,0,0,0,1.13,2.46,23.09,23.09,0,0,0,1.45,2.38,23.33,23.33,0,0,0,1.8,2.28,26.77,26.77,0,0,0,2.52,2.46,27.19,27.19,0,0,0,2.84,2.12,29,29,0,0,0,3.14,1.77,32.26,32.26,0,0,0,3.45,1.43q1.45.51,3,.9t3.18.68q1.64.29,3.37.46t3.56.25l.42,0h1.44l-.1.17-.08.15-.07.13-.08.11q-1.13,1.45-2.2,2.92t-2.06,3q-1,1.49-1.92,3t-1.76,3.06a81.74,81.74,0,0,0-4,8.37,65.59,65.59,0,0,0-2.81,8.52,55.67,55.67,0,0,0-1.5,8.69,51.22,51.22,0,0,0,0,8.87q.17,2,.51,3.9t.87,3.85q.53,1.91,1.26,3.79A40.67,40.67,0,0,0,550.84,403.18ZM505.79,414.7a88.31,88.31,0,0,0,8.71-4.77,66.28,66.28,0,0,0,7.5-5.43,51.59,51.59,0,0,0,6.19-6.15,43.16,43.16,0,0,0,4.79-6.91q.73-1.32,1.32-2.66a25.29,25.29,0,0,0,1-2.7,21.65,21.65,0,0,0,.65-2.74,19.45,19.45,0,0,0,.26-2.78,20.67,20.67,0,0,0-.11-2.56,17.45,17.45,0,0,0-.45-2.51,15.86,15.86,0,0,0-2.13-4.81,11,11,0,0,0-1.12-1.43,10.7,10.7,0,0,0-1.33-1.2,11.13,11.13,0,0,0-1.52-1,12.25,12.25,0,0,0-1.7-.75,14.14,14.14,0,0,0-1.92-.53,16.84,16.84,0,0,0-2.09-.28,20.39,20.39,0,0,0-2.25,0q-1.17,0-2.41.21-.93.13-1.84.31t-1.8.41q-.89.23-1.75.51t-1.71.59q-2.48.92-4.79,2t-4.48,2.27q-2.17,1.2-4.18,2.55t-3.89,2.82l-.17.12-.18.12-.19.11-.19.12q-.49-2-1-4.06t-.92-4q-.45-2-.89-4l-.88-3.95a.7.7,0,0,1,0-.24.52.52,0,0,1,.07-.21.72.72,0,0,1,.16-.18,1.49,1.49,0,0,1,.25-.17l.83-.46.82-.46.82-.46.82-.46,6.52-3.66,6.5-3.65,6.5-3.65,6.49-3.63a3,3,0,0,0,.44-.29,1.09,1.09,0,0,0,.26-.3.69.69,0,0,0,.09-.34,1.15,1.15,0,0,0-.08-.41c-.14-.36-.26-.72-.39-1.08s-.24-.73-.36-1.09l-.34-1.09-.35-1.09-.1-.31-.1-.31-.11-.33-.12-.35-.32.16-.28.14-.25.13-.24.13-9.7,5.49-9.73,5.5-9.76,5.52-9.8,5.53a3.07,3.07,0,0,0-.43.29,1.24,1.24,0,0,0-.27.3.82.82,0,0,0-.12.34,1.21,1.21,0,0,0,0,.41q.81,3.6,1.62,7.21l1.62,7.24L483,383l1.63,7.3c0,.06,0,.13.05.19l.07.2.08.22.09.24.16-.13.13-.1.1-.08.09-.07q1.54-1.3,3.13-2.57t3.26-2.47q1.67-1.21,3.42-2.36t3.61-2.22q1.1-.64,2.23-1.24t2.31-1.15q1.18-.55,2.41-1t2.53-.9q.69-.22,1.4-.39t1.42-.3q.72-.13,1.45-.2c.49,0,1-.07,1.49-.08q.48,0,.94,0t.9.1q.44.07.86.17t.82.24l.36.14.35.15.34.17.33.19a7,7,0,0,1,.89.63,6.51,6.51,0,0,1,.72.7,6.79,6.79,0,0,1,.58.77,8,8,0,0,1,.47.82,12.29,12.29,0,0,1,.86,2.24,11,11,0,0,1,.37,2.27,11.26,11.26,0,0,1-.11,2.31,13,13,0,0,1-.58,2.34,20.26,20.26,0,0,1-1.44,3.21,23.63,23.63,0,0,1-2,3,29.2,29.2,0,0,1-2.53,2.84,37.23,37.23,0,0,1-3,2.66,53.31,53.31,0,0,1-10.92,6.71,56.17,56.17,0,0,1-6.29,2.44,61.64,61.64,0,0,1-6.88,1.77l-.12,0-.13,0-.15.05-.17.06.32,2.11.33,2.13.33,2.16.34,2.22,1.13-.3L492,420l1-.28,1-.29q1.57-.46,3.07-1t3-1.15q1.46-.6,2.88-1.25t2.82-1.32"/><path class="cls-4" d="M654.78,462.18,637.5,486.32,620,510.75l-17.74,24.73-18,25Q575,554.77,566,549.05t-17.6-11.37q-8.67-5.66-17.16-11.29T514.4,515.18l-18.67-12.42-18.54-12.33-18.42-12.25L440.48,466,424.3,455.26l-16.09-10.7-16-10.64-15.9-10.57-.24-.15-.26-.14-.26-.13-.26-.13,43.19-54.15,42-52.65,40.85-51.21L541.06,215l24,3.49,23.8,3.43,23.65,3.4,23.6,3.39,22,3.15,22,3.16,22.09,3.17,22.14,3.18,19.78,2.84L764,247l19.85,2.85,19.9,2.85q-6.22,9.42-12.64,18.77t-13,18.75q-6.61,9.39-13.33,18.79t-13.55,18.91L683,422.85l-2.49,3.52L678,429.89l-2.52,3.52L673,436.94ZM534,420.26q2.35-1.76,4.56-3.6t4.27-3.75q2.06-1.91,4-3.89t3.71-4a2.55,2.55,0,0,0,.34-.47,1.29,1.29,0,0,0,.15-.44,1.19,1.19,0,0,0,0-.44,2.15,2.15,0,0,0-.18-.47,40.68,40.68,0,0,1-1.67-3.73q-.73-1.88-1.26-3.79T547,391.8q-.34-1.94-.51-3.9a51.22,51.22,0,0,1,0-8.87,55.66,55.66,0,0,1,1.49-8.69,65.59,65.59,0,0,1,2.81-8.52,81.74,81.74,0,0,1,4-8.37q.84-1.55,1.76-3.06t1.92-3q1-1.49,2.06-3t2.2-2.92l.08-.11.07-.13.08-.15.1-.17h-1.43l-.42,0q-1.83-.07-3.56-.25t-3.37-.46q-1.64-.29-3.18-.68t-3-.9a32.27,32.27,0,0,1-3.45-1.43,29,29,0,0,1-3.14-1.77,27.18,27.18,0,0,1-2.84-2.12,26.76,26.76,0,0,1-2.52-2.46,23.34,23.34,0,0,1-1.8-2.28,23.1,23.1,0,0,1-1.45-2.38,24.39,24.39,0,0,1-1.13-2.46c-.33-.83-.61-1.68-.86-2.53l-.08-.26-.08-.27-.08-.27-.09-.29-.43,0-.41,0-.4,0-.39,0q-2.17.12-4.3.38t-4.21.64q-2.09.38-4.14.88t-4.07,1.1q-3.13.93-6.09,2.06t-5.78,2.41q-2.82,1.28-5.5,2.72t-5.26,3q-3.7,2.25-7.08,4.68t-6.47,5q-3.09,2.61-5.92,5.38t-5.41,5.68q-1.09,1.23-2.13,2.48t-2,2.52q-1,1.27-1.92,2.56t-1.82,2.61q-.69,1-1.36,2.07t-1.3,2.08q-.64,1-1.24,2.1t-1.18,2.12q-1.24,2.31-2.3,4.65t-2,4.71q-.89,2.37-1.6,4.78t-1.22,4.85c-.4,1.88-.71,3.76-.92,5.63a49.48,49.48,0,0,0-.32,5.62,43.5,43.5,0,0,0,.37,5.61,40.71,40.71,0,0,0,1.14,5.59,36,36,0,0,0,1.33,3.91,32.4,32.4,0,0,0,1.82,3.77,31.28,31.28,0,0,0,2.38,3.6,32.59,32.59,0,0,0,3,3.4,33.42,33.42,0,0,0,5.69,4.5,35.23,35.23,0,0,0,3.33,1.85,38.34,38.34,0,0,0,3.68,1.56l.34.12.35.12.35.12.35.12a44.35,44.35,0,0,0,4.79,1.25,48.06,48.06,0,0,0,4.94.74q2.5.24,5.07.25t5.19-.21q2.89-.24,5.68-.7t5.51-1.12q2.71-.66,5.34-1.5t5.2-1.83q3.51-1.35,6.79-2.91t6.35-3.3q3.07-1.74,6-3.64t5.6-3.94m107.87-14.19a103.25,103.25,0,0,0,9.13-5.66,94.51,94.51,0,0,0,8-6.21,88.12,88.12,0,0,0,6.89-6.67,83.62,83.62,0,0,0,5.84-7q1.86-2.59,3.45-5.14t2.89-5.1q1.31-2.55,2.34-5.11t1.8-5.17a53.58,53.58,0,0,0,1.34-5.59,45.18,45.18,0,0,0,.67-5.59,40.1,40.1,0,0,0-.07-5.58,38,38,0,0,0-.89-5.58,34.74,34.74,0,0,0-1.32-4.32,32.41,32.41,0,0,0-4.49-8.12,35.4,35.4,0,0,0-3.29-3.76,36.74,36.74,0,0,0-3.18-2.82,37.48,37.48,0,0,0-3.57-2.49,39.79,39.79,0,0,0-4-2.14,43.85,43.85,0,0,0-4.39-1.77l-.81-.27-.82-.26-.84-.25-.85-.23a56.8,56.8,0,0,0-7.23-1.42,60.65,60.65,0,0,0-7.3-.5,68,68,0,0,0-7.35.34q-3.69.37-7.4,1.1l-.31.09-.3.14-.27.17-.22.18-1.14,1.13-1.12,1.13L622,314.71c-.38.38-.77.75-1.16,1.12q-2.21,2.08-4.59,4t-5,3.82q-2.58,1.85-5.35,3.58t-5.75,3.32q-2.68,1.43-5.47,2.72t-5.72,2.4q-2.93,1.11-6,2t-6.32,1.6a6.27,6.27,0,0,0-.84.23,4.39,4.39,0,0,0-.69.32,3.76,3.76,0,0,0-.57.4,4.16,4.16,0,0,0-.49.49q-1,1.21-2,2.43t-1.92,2.46q-.94,1.24-1.82,2.5t-1.7,2.55q-1,1.62-1.94,3.27T563,357.31q-.82,1.67-1.53,3.37t-1.31,3.42q-.9,2.61-1.54,5.23a47.62,47.62,0,0,0-1,5.26,42.13,42.13,0,0,0-.33,5.3,39.33,39.33,0,0,0,.37,5.34,36.83,36.83,0,0,0,1,4.93,33.34,33.34,0,0,0,1.73,4.77,32.79,32.79,0,0,0,2.53,4.58,35.28,35.28,0,0,0,3.42,4.36,36.2,36.2,0,0,0,3.27,3.15,36.73,36.73,0,0,0,3.69,2.75,39,39,0,0,0,4.11,2.34A43.09,43.09,0,0,0,582,414q1.22.43,2.49.81t2.61.7q1.33.32,2.73.58t2.84.46q3,.42,6.05.54t6,0q3-.15,6-.55t6-1q3.49-.73,6.79-1.7t6.45-2.17q3.14-1.19,6.13-2.59t5.84-3M572.14,264.66c-2.31,1.33-4.5,2.72-6.58,4.2a74.76,74.76,0,0,0-6,4.69,75.6,75.6,0,0,0-5.44,5.26c-1.74,1.86-3.42,3.83-5,5.92-.62.76-1.25,1.61-1.86,2.51s-1.23,1.88-1.81,2.89-1.16,2.08-1.69,3.17-1,2.21-1.49,3.34a40.46,40.46,0,0,0-1.38,4,33.15,33.15,0,0,0-.89,4,28.58,28.58,0,0,0-.34,4.06,26.4,26.4,0,0,0,.27,4.1,22.67,22.67,0,0,0,.47,2.37,20.15,20.15,0,0,0,.74,2.32,19,19,0,0,0,1.05,2.26,19.23,19.23,0,0,0,1.4,2.18,20.58,20.58,0,0,0,2.14,2.47,21.07,21.07,0,0,0,2.54,2.13,23.15,23.15,0,0,0,2.95,1.78,27,27,0,0,0,3.36,1.42q.74.26,1.52.49t1.59.42q.81.2,1.67.36t1.74.29a38.1,38.1,0,0,0,3.85.36c1.28.06,2.57.05,3.85,0s2.56-.17,3.84-.33,2.56-.37,3.83-.61q2.23-.43,4.37-1t4.19-1.26q2.05-.69,4-1.5t3.88-1.72a85,85,0,0,0,7.93-4.29,78.76,78.76,0,0,0,7-4.84,76.49,76.49,0,0,0,6.18-5.33,78,78,0,0,0,5.42-5.76q1.3-1.53,2.47-3.1t2.21-3.17q1-1.6,1.94-3.24t1.67-3.31q.84-1.84,1.51-3.69a36.93,36.93,0,0,0,1.11-3.72,31.36,31.36,0,0,0,.67-3.75,28,28,0,0,0,.18-3.79,26.14,26.14,0,0,0-.23-3.07,21.87,21.87,0,0,0-.62-3,19.87,19.87,0,0,0-2.69-5.78,20.15,20.15,0,0,0-2.18-2.68,20.49,20.49,0,0,0-2.64-2.3,22.68,22.68,0,0,0-3.11-1.91,26.94,26.94,0,0,0-3.6-1.51q-.73-.25-1.5-.47t-1.57-.41q-.8-.19-1.64-.34t-1.72-.28a39.57,39.57,0,0,0-4.18-.37c-1.39,0-2.77,0-4.15.06s-2.76.23-4.13.43-2.74.45-4.1.76q-2.94.65-5.71,1.51t-5.39,1.92q-2.62,1.05-5.1,2.27t-4.85,2.58"/><path class="cls-1" d="M843.8,502.15a1.07,1.07,0,0,1,.06.32,1,1,0,0,1,0,.31,1.16,1.16,0,0,1-.13.3,1.42,1.42,0,0,1-.22.27l-12,11.47a1.8,1.8,0,0,1-.5.33,2.37,2.37,0,0,1-.61.18,2.72,2.72,0,0,1-.66,0,2.62,2.62,0,0,1-.66-.14l-17.79-6.37a2.12,2.12,0,0,1-.55-.29,1.55,1.55,0,0,1-.38-.4,1.15,1.15,0,0,1-.18-.46,1,1,0,0,1,0-.49l1.1-3.07-3.72-1.33c-.14.46-.29.92-.45,1.37s-.35.91-.55,1.36-.43.9-.67,1.35-.51.89-.81,1.33a26.5,26.5,0,0,1-8,7.58,38,38,0,0,1-11.13,4.59,45.52,45.52,0,0,1-12.75,1.22,43.79,43.79,0,0,1-12.87-2.51,34.26,34.26,0,0,1-10.52-5.93,23.84,23.84,0,0,1-6.34-8.08,18,18,0,0,1-1.69-9.16,18.88,18.88,0,0,1,3.41-9.18q.45-.65,1-1.27t1.06-1.2q.55-.58,1.15-1.14t1.22-1.09l-4.41-1.58a1.58,1.58,0,0,1-.48.44,2.24,2.24,0,0,1-.65.26,2.67,2.67,0,0,1-.74.07,2.57,2.57,0,0,1-.75-.15,2,2,0,0,1-.61-.34,1.38,1.38,0,0,1-.37-.47,1,1,0,0,1-.1-.53,1.11,1.11,0,0,1,.2-.54l.23-.31.24-.31.25-.3.24-.31-7.07-2.53-.87,1.26a4.74,4.74,0,0,1-1.43,1.31,6.77,6.77,0,0,1-2,.79,8,8,0,0,1-2.22.21,7.65,7.65,0,0,1-2.24-.43l-5.23-1.87L720.7,478a1.59,1.59,0,0,1-.48.44,2.27,2.27,0,0,1-.65.26,2.69,2.69,0,0,1-.74.07,2.55,2.55,0,0,1-.74-.14l-3.49-1.25a2,2,0,0,1-.6-.34,1.35,1.35,0,0,1-.36-.47,1,1,0,0,1-.09-.53,1.11,1.11,0,0,1,.2-.54l.88-1.25-7-2.49-.88,1.25a1.6,1.6,0,0,1-.48.44,2.26,2.26,0,0,1-.65.26,2.67,2.67,0,0,1-.74.07,2.53,2.53,0,0,1-.74-.14l-17.34-6.21-3.47-1.24L674.54,463a9.51,9.51,0,0,1-2.48,1.59,12.36,12.36,0,0,1-3,.9,13.52,13.52,0,0,1-3.27.14,12.51,12.51,0,0,1-3.24-.69l-7.68-2.76L673,436.87a22,22,0,0,1,.25,3.14,20.74,20.74,0,0,1-.91,6.26,22.07,22.07,0,0,1-1.21,3.09l7.25,2.59,11.42-16a4.74,4.74,0,0,1,1.43-1.29,6.8,6.8,0,0,1,1.94-.78,8.06,8.06,0,0,1,2.2-.21,7.62,7.62,0,0,1,2.21.42l5.16,1.83.87-1.23a1.58,1.58,0,0,1,.47-.43,2.25,2.25,0,0,1,.64-.26,2.67,2.67,0,0,1,.73-.07,2.53,2.53,0,0,1,.73.14l3.45,1.22a1.94,1.94,0,0,1,.6.33,1.32,1.32,0,0,1,.36.46,1,1,0,0,1,.09.52,1.09,1.09,0,0,1-.2.53l-.87,1.23,24.18,8.57.86-1.23a1.57,1.57,0,0,1,.47-.43,2.24,2.24,0,0,1,.64-.26,2.67,2.67,0,0,1,.73-.07,2.54,2.54,0,0,1,.74.14l3.47,1.23a2,2,0,0,1,.6.33,1.36,1.36,0,0,1,.37.46,1,1,0,0,1,.1.52,1.08,1.08,0,0,1-.2.53l-.86,1.23,5.2,1.84a5.93,5.93,0,0,1,1.82,1,4.09,4.09,0,0,1,1.1,1.38,3.07,3.07,0,0,1,.3,1.58,3.25,3.25,0,0,1-.59,1.59L737.26,473l7.4,2.64.71-.71.73-.69.76-.67.78-.65a2,2,0,0,1,0-.22,1.16,1.16,0,0,1,0-.22.83.83,0,0,1,0-.22.78.78,0,0,1,.1-.21l14.62-21.12-79.24-28,68.09-95,78.75,26.89a1,1,0,0,1,.3.16.66.66,0,0,1,.18.22.47.47,0,0,1,.05.25.5.5,0,0,1-.09.25L817.64,374.1c4.82,2.84,9.81,5.93,14.63,9.26a125.45,125.45,0,0,1,13.62,10.72,64.48,64.48,0,0,1,10.56,12.17,34.33,34.33,0,0,1,5.4,13.59,15.75,15.75,0,0,1,2.83,4.23,14.52,14.52,0,0,1,1.19,4.58,20.51,20.51,0,0,1-.18,5,38.07,38.07,0,0,1-1.28,5.46l-10.94,36-1.63,2.47a15.44,15.44,0,0,1-.86,5,21.6,21.6,0,0,1-2.48,5,26.35,26.35,0,0,1-8.74,8.19l-1.5,2.27-.11.14-.13.13-.15.12-.17.11-1,.53,6,2.14a2.23,2.23,0,0,1,.37.17,1.85,1.85,0,0,1,.31.22,1.49,1.49,0,0,1,.23.26A1.22,1.22,0,0,1,843.8,502.15Zm-3.45-39.08,7.18-5.24,7.75-24.29a12.76,12.76,0,0,0-.2-5.56,10.51,10.51,0,0,0-2.21-4.09,14.06,14.06,0,0,0-3.45-2.84,21.4,21.4,0,0,0-3.94-1.81l-34-11.8-8.74,2.08-11.18,16.22.17,11.06,33.8,11.87a2.23,2.23,0,0,1,.41.19,1.78,1.78,0,0,1,.33.25,1.37,1.37,0,0,1,.23.29,1.08,1.08,0,0,1,.13.33l1.84,9.17,11.85,4.17m-73.11,45.82a23.2,23.2,0,0,0,6.8,1.32,24.1,24.1,0,0,0,6.73-.64,20.12,20.12,0,0,0,5.88-2.42,14.07,14.07,0,0,0,4.26-4,9.94,9.94,0,0,0,1.75-4.89,9.58,9.58,0,0,0-1-4.84,12.72,12.72,0,0,0-3.39-4.24,18.23,18.23,0,0,0-5.55-3.09,23.22,23.22,0,0,0-6.76-1.3,24.11,24.11,0,0,0-6.69.64,20.16,20.16,0,0,0-5.86,2.39,14.14,14.14,0,0,0-4.27,4,10,10,0,0,0-1.79,4.87,9.56,9.56,0,0,0,.91,4.85,12.65,12.65,0,0,0,3.37,4.27,18.17,18.17,0,0,0,5.56,3.12"/><path class="cls-1" d="M532.56,106.44l577,188L841.64,720.93,219.93,485.51ZM818,584.43,964.9,360.38,774.17,296l-22.9,31.9L764.8,309l13.41-18.71L791.5,271.8l13.16-18.34q-10.29-1.71-20.42-3.29t-20.12-3.07q-10-1.49-19.91-2.93l-19.79-2.85-22.14-3.18L680.19,235l-22-3.16-22-3.15-23.59-3.38L589,221.9l-23.47-3.37-23.41-3.36q-20.1,24.61-40.38,49.71Q481.31,290.2,460.6,316q-20.91,26.06-42.12,52.63-21.42,26.82-43.21,54.15l16.49,10.89,16.3,10.8,16.2,10.76L440.48,466l18.29,12.16,18.42,12.25,18.54,12.33,18.67,12.42,16.85,11.21,17,11.28L565.27,549l17.17,11.42q9.71-12.54,19-25t18.29-24.7q9-12.25,17.73-24.41t17.34-24.12l-35.56,49.57L818,584.43"/><path class="cls-1" d="M682.24,360q-.77,2.61-1.8,5.17t-2.34,5.11q-1.31,2.55-2.89,5.1t-3.45,5.14a83.62,83.62,0,0,1-5.84,7,88.12,88.12,0,0,1-6.89,6.67,94.5,94.5,0,0,1-8,6.21,103.23,103.23,0,0,1-9.13,5.66q-2.85,1.57-5.84,3t-6.13,2.59q-3.14,1.19-6.45,2.17t-6.79,1.7q-3,.62-6,1t-6,.55q-3,.15-6,0t-6.05-.54q-1.45-.2-2.84-.46t-2.73-.58q-1.33-.32-2.61-.7T582,414a43.1,43.1,0,0,1-4.54-1.91,39,39,0,0,1-4.11-2.34,36.73,36.73,0,0,1-3.69-2.75,36.19,36.19,0,0,1-3.27-3.15,35.28,35.28,0,0,1-3.42-4.36,32.79,32.79,0,0,1-2.53-4.58,33.35,33.35,0,0,1-1.73-4.77,36.85,36.85,0,0,1-1-4.93,39.33,39.33,0,0,1-.37-5.34,42.13,42.13,0,0,1,.33-5.3,47.62,47.62,0,0,1,1-5.26q.63-2.62,1.54-5.23.6-1.72,1.31-3.42t1.53-3.37q.82-1.67,1.74-3.32t1.94-3.27q.81-1.29,1.7-2.55t1.82-2.5q.94-1.24,1.92-2.46t2-2.43a4.15,4.15,0,0,1,.48-.49,3.76,3.76,0,0,1,.57-.4,4.39,4.39,0,0,1,.69-.32,6.27,6.27,0,0,1,.84-.23q3.25-.69,6.32-1.6t6-2q2.93-1.11,5.72-2.4t5.47-2.72q3-1.59,5.75-3.32t5.35-3.58q2.57-1.85,5-3.82t4.59-4c.39-.37.78-.74,1.16-1.12l1.13-1.13,1.12-1.13,1.14-1.13.22-.18.27-.17.3-.14.31-.09q3.71-.73,7.4-1.1a68,68,0,0,1,7.35-.34,60.66,60.66,0,0,1,7.3.5,56.79,56.79,0,0,1,7.23,1.42l.85.23.84.25.82.26.81.27a43.84,43.84,0,0,1,4.39,1.77,39.79,39.79,0,0,1,4,2.14,37.48,37.48,0,0,1,3.57,2.49,36.75,36.75,0,0,1,3.18,2.82,35.41,35.41,0,0,1,3.29,3.76,32.41,32.41,0,0,1,4.49,8.12,34.73,34.73,0,0,1,1.32,4.32,38,38,0,0,1,.89,5.58,40.1,40.1,0,0,1,.07,5.58,45.18,45.18,0,0,1-.67,5.59A53.6,53.6,0,0,1,682.24,360ZM646.8,377.65a38.12,38.12,0,0,0,3.07-3.16,37.6,37.6,0,0,0,2.57-3.32,39.67,39.67,0,0,0,2.12-3.46c.64-1.18,1.22-2.37,1.75-3.58a33.56,33.56,0,0,0,1.28-3.47c.36-1.16.65-2.33.9-3.5s.43-2.35.58-3.52.26-2.36.34-3.54a1.13,1.13,0,0,0,0-.13s0-.09,0-.14l0-.15c0-.05,0-.11,0-.16l-2.2-.16L655,349.2l-2.15-.15-2.12-.15-.07.09,0,.06,0,0v1c0,.91-.06,1.82-.12,2.73s-.15,1.82-.29,2.73a27.35,27.35,0,0,1-.53,2.71,22.85,22.85,0,0,1-.85,2.69c-.31.81-.65,1.61-1,2.4a23.87,23.87,0,0,1-1.27,2.33,19.69,19.69,0,0,1-1.61,2.23,18.92,18.92,0,0,1-2,2.1c-.46.41-.94.8-1.45,1.16a18.14,18.14,0,0,1-1.59,1,17.1,17.1,0,0,1-1.76.89,17.49,17.49,0,0,1-2,.72,13.58,13.58,0,0,1-2,.45,12.35,12.35,0,0,1-4-.1,13.34,13.34,0,0,1-2-.53l-.07,0-.07,0-.07,0-.07,0q-.49-.18-.95-.4t-.87-.46a9.07,9.07,0,0,1-.79-.52,8,8,0,0,1-.7-.59l-.69-.65-.67-.66-.64-.67-.61-.69c-.52-.61-1-1.24-1.45-1.88s-.86-1.28-1.25-1.94-.75-1.32-1.09-2-.67-1.34-1-2l-2.14-4.57L612.81,352l-2.13-4.54-2.12-4.53-.24-.5-.25-.5-.25-.51-.26-.52-1.83-.23-1.82-.23-1.82-.23-1.83-.23-5.15,9.31-5.17,9.34L584.75,368l-5.23,9.46,1.81.31,1.78.31,1.78.31,1.81.31,3.68-6.7,3.66-6.65,3.64-6.62,3.62-6.59h.29l.07.1.07.1.06.1.06.1,1.92,3.9,1.92,3.9,1.94,3.91,2,3.92.89,1.75q.45.87.92,1.74t1,1.73q.49.87,1,1.72t1,1.54q.55.75,1.18,1.48t1.34,1.41q.71.69,1.49,1.35c.26.22.52.43.79.63s.56.4.85.59.6.37.92.53.65.32,1,.47l.24.1.24.09.24.09.24.09a21.17,21.17,0,0,0,3.35.88,20.4,20.4,0,0,0,3.41.31,21.28,21.28,0,0,0,3.46-.26,23.9,23.9,0,0,0,3.51-.83,25.79,25.79,0,0,0,3-1.14,25.39,25.39,0,0,0,2.65-1.41,27.14,27.14,0,0,0,2.38-1.63c.75-.58,1.47-1.18,2.15-1.81"/><path class="cls-1" d="M673,436.94l2.53-3.53,2.53-3.52,2.52-3.51,2.52-3.51L673,437h0Z"/><polygon class="cls-4" points="841.64 720.93 684.56 970.94 38.56 705.43 219.93 485.51 841.64 720.93"/></g></g></svg>