<svg xmlns="http://www.w3.org/2000/svg" viewBox="0 0 1200 1200"><defs><style>.cls-1{fill:#fff;}.cls-2{fill:none;stroke:#846d39;stroke-linecap:round;stroke-linejoin:round;stroke-width:10px;}.cls-3{isolation:isolate;}.cls-4{fill:#fccb66;}.cls-5{fill:#846d39;}</style></defs><title>book-cresus-salaires</title><g id="Calque_1" data-name="Calque 1"><polygon class="cls-1" points="1081 512 679 1165 68 910 31 710 1118 294 1081 512"/><polyline class="cls-2" points="31 710 68 910 679 1165 1081 512"/><polyline class="cls-2" points="144.36 852.2 675 1067 1107 383"/></g><g id="Calque_2" data-name="Calque 2"><g class="cls-3"><path class="cls-4" d="M581.86,279.25l-.76.27-.78.27-.81.29-.86.3.24-1.4.23-1.36.23-1.34.23-1.33.31-.11.3-.11.29-.11.29-.1,4-1.4,4-1.4,4-1.4,4-1.41a5.09,5.09,0,0,1,.62-.18,3.73,3.73,0,0,1,.6-.08,3.58,3.58,0,0,1,.6,0,4.51,4.51,0,0,1,.64.12l1.17.29,1.2.27,1.22.26,1.24.27-8.73,11.35-8.77,11.41-8.82,11.47L569,315.66a8.23,8.23,0,0,1-.87-.17c-.28-.07-.56-.15-.83-.24l-.81-.27-.82-.26-.81-.23-.83-.24-.86-.26-.91-.27,7.33-9.5,7.28-9.44,7.25-9.4,7.24-9.39a9.22,9.22,0,0,0-.94.21c-.29.08-.56.17-.82.27l-.75.29-.73.27-.8.27-.79.28-.79.29-.79.29-.76.27-.76.27-.76.27Z"/><path class="cls-1" d="M627.28,292.45q-.77,1.68-1.67,3.31T623.66,299q-1,1.6-2.21,3.17t-2.48,3.1a77.64,77.64,0,0,1-5.42,5.76,76.38,76.38,0,0,1-6.18,5.33,78.85,78.85,0,0,1-7,4.84,85.3,85.3,0,0,1-7.92,4.29q-1.91.9-3.88,1.71t-4,1.5q-2.05.69-4.19,1.26T576,331q-1.91.37-3.82.61c-1.28.16-2.56.27-3.84.33s-2.56.06-3.85,0a38.45,38.45,0,0,1-3.85-.36q-.89-.13-1.74-.29t-1.67-.36q-.81-.19-1.59-.42T554.1,330a26.94,26.94,0,0,1-3.36-1.42,23.12,23.12,0,0,1-2.94-1.78,21.06,21.06,0,0,1-2.54-2.13,20.59,20.59,0,0,1-2.14-2.47,19,19,0,0,1-2.45-4.44,20.29,20.29,0,0,1-.74-2.32,23.06,23.06,0,0,1-.47-2.37,26.4,26.4,0,0,1-.27-4.1,28.6,28.6,0,0,1,.34-4.06,33.18,33.18,0,0,1,.89-4,40.48,40.48,0,0,1,1.38-4c.46-1.13,1-2.25,1.49-3.34s1.1-2.15,1.69-3.17,1.19-2,1.81-2.89,1.24-1.75,1.86-2.51c1.63-2.09,3.31-4.06,5.05-5.92s3.55-3.6,5.44-5.26a74.93,74.93,0,0,1,6-4.68c2.08-1.47,4.26-2.87,6.57-4.2q2.37-1.36,4.85-2.58t5.1-2.27q2.62-1.05,5.39-1.92t5.71-1.52c1.36-.3,2.73-.55,4.1-.75s2.75-.35,4.13-.43,2.76-.1,4.15-.05a39.66,39.66,0,0,1,4.18.37q.88.13,1.72.28t1.64.34q.8.19,1.57.4t1.5.47a26.89,26.89,0,0,1,3.59,1.51,22.67,22.67,0,0,1,3.11,1.91A20.52,20.52,0,0,1,625,263a20.12,20.12,0,0,1,3.79,5.53,20,20,0,0,1,1.08,2.93,21.87,21.87,0,0,1,.62,3,26.06,26.06,0,0,1,.23,3.07,28.06,28.06,0,0,1-.18,3.79,31.37,31.37,0,0,1-.67,3.75,36.9,36.9,0,0,1-1.11,3.72Q628.12,290.61,627.28,292.45Zm-61.65,22.29.82.26.81.27c.27.09.55.17.83.24a8.23,8.23,0,0,0,.87.17l8.88-11.56,8.82-11.47,8.77-11.41,8.73-11.35-1.24-.27-1.22-.26-1.2-.27-1.17-.29a4.52,4.52,0,0,0-.64-.12,3.59,3.59,0,0,0-.6,0,3.73,3.73,0,0,0-.6.08,5.09,5.09,0,0,0-.62.18l-4,1.41-4,1.4-4,1.4-4,1.4-.29.1-.29.11-.3.11-.31.11-.23,1.33-.23,1.34L578.9,279l-.24,1.4.86-.3.81-.29.78-.27.76-.27.76-.27.76-.27.76-.27.76-.27.79-.29.79-.29.79-.28.8-.27.73-.27.75-.29c.26-.09.53-.18.82-.27a9.22,9.22,0,0,1,.94-.21l-7.24,9.39-7.25,9.4-7.28,9.44-7.33,9.5.91.27.86.26.83.24.81.23"/><path class="cls-4" d="M658.9,350.33c-.08,1.18-.19,2.36-.34,3.54s-.34,2.35-.58,3.52-.54,2.34-.9,3.5a33.3,33.3,0,0,1-1.28,3.46c-.53,1.21-1.11,2.41-1.75,3.58a39.66,39.66,0,0,1-2.12,3.46,37.61,37.61,0,0,1-2.57,3.32,38.14,38.14,0,0,1-3.07,3.16c-.69.63-1.4,1.24-2.15,1.81a27.13,27.13,0,0,1-2.38,1.63,25.24,25.24,0,0,1-2.65,1.41,25.55,25.55,0,0,1-3,1.14,24,24,0,0,1-3.51.83,21.34,21.34,0,0,1-3.46.26,20.41,20.41,0,0,1-3.41-.31,21.13,21.13,0,0,1-3.35-.88l-.24-.09-.24-.09-.24-.09-.24-.1q-.53-.21-1-.47t-.92-.53q-.44-.28-.85-.59t-.79-.63q-.78-.66-1.49-1.35t-1.34-1.41q-.63-.72-1.18-1.48t-1-1.54q-.51-.86-1-1.72t-1-1.73q-.47-.87-.92-1.74t-.89-1.75l-2-3.91-1.94-3.91-1.92-3.9-1.92-3.9-.06-.1-.06-.1-.06-.1-.06-.1h-.3L597.18,359l-3.64,6.61-3.66,6.65L586.2,379l-1.81-.31-1.78-.31-1.78-.31-1.81-.31,5.23-9.46,5.19-9.39,5.17-9.34,5.15-9.31,1.83.23,1.82.23,1.82.23,1.83.23.26.52.25.51.25.5.24.5,2.12,4.53,2.13,4.54,2.13,4.55,2.14,4.56c.31.68.64,1.35,1,2s.71,1.33,1.09,2,.8,1.3,1.25,1.94.93,1.26,1.45,1.88l.61.69.64.67.67.66.68.66a7.84,7.84,0,0,0,.7.59,9.1,9.1,0,0,0,.79.52q.42.25.87.46t.95.4l.06,0,.06,0,.06,0,.06,0a13.51,13.51,0,0,0,2,.53,12.34,12.34,0,0,0,4,.1,13.42,13.42,0,0,0,2.05-.45,17.35,17.35,0,0,0,2-.72,17,17,0,0,0,1.76-.89,18.09,18.09,0,0,0,1.59-1c.5-.37,1-.76,1.45-1.16a19,19,0,0,0,2-2.1A19.66,19.66,0,0,0,646,366a23.62,23.62,0,0,0,1.27-2.33c.38-.79.71-1.59,1-2.41a22.66,22.66,0,0,0,.85-2.69,27.15,27.15,0,0,0,.53-2.71c.13-.91.22-1.82.29-2.73s.1-1.82.12-2.73v-.51q0-.13,0-.25t0-.25v0l0,0,0-.06.07-.09,2.12.15,2.15.15,2.17.15,2.2.16,0,.16,0,.15s0,.09,0,.14A1.22,1.22,0,0,1,658.9,350.33Z"/><path class="cls-1" d="M681.73,360.23q-.77,2.61-1.8,5.17t-2.34,5.11q-1.31,2.55-2.89,5.1t-3.45,5.14a83.62,83.62,0,0,1-5.84,7,88.07,88.07,0,0,1-6.89,6.67,94.43,94.43,0,0,1-8,6.21,103.16,103.16,0,0,1-9.13,5.65q-2.85,1.57-5.84,3t-6.13,2.59Q626.29,413,623,414t-6.79,1.7q-3,.62-6,1t-6,.55q-3,.15-6,0t-6.05-.54q-1.45-.2-2.83-.46t-2.72-.58q-1.33-.32-2.6-.7t-2.49-.81a43.13,43.13,0,0,1-4.54-1.91,39,39,0,0,1-4.12-2.34,36.74,36.74,0,0,1-3.69-2.75,36.19,36.19,0,0,1-3.28-3.15,35.22,35.22,0,0,1-3.42-4.36,32.77,32.77,0,0,1-2.53-4.58,33.4,33.4,0,0,1-1.73-4.76,37,37,0,0,1-1-4.93,39.4,39.4,0,0,1-.37-5.34,42.14,42.14,0,0,1,.33-5.3,47.58,47.58,0,0,1,1-5.26q.63-2.62,1.54-5.23.6-1.72,1.31-3.42t1.53-3.37q.82-1.67,1.74-3.31t1.95-3.26q.81-1.29,1.69-2.55t1.81-2.5q.93-1.24,1.92-2.46t2-2.43a4.19,4.19,0,0,1,.49-.49,3.77,3.77,0,0,1,.57-.4,4.39,4.39,0,0,1,.69-.32,6.27,6.27,0,0,1,.84-.23q3.25-.68,6.32-1.6t6-2q2.93-1.11,5.72-2.4t5.47-2.72q3-1.59,5.75-3.32t5.34-3.57q2.57-1.85,5-3.81t4.59-4l1.16-1.12,1.13-1.13,1.12-1.14,1.14-1.13.22-.18.27-.17.3-.14L626,311q3.71-.73,7.4-1.1a68.05,68.05,0,0,1,7.35-.34,60.65,60.65,0,0,1,7.29.5,56.74,56.74,0,0,1,7.23,1.42l.85.23.84.25.82.26.81.27a43.84,43.84,0,0,1,4.39,1.77,39.75,39.75,0,0,1,4,2.14,37.46,37.46,0,0,1,3.57,2.49,36.78,36.78,0,0,1,3.18,2.82,35.5,35.5,0,0,1,3.29,3.76,32.42,32.42,0,0,1,4.49,8.11,34.65,34.65,0,0,1,1.32,4.32,38.09,38.09,0,0,1,.89,5.58,40.1,40.1,0,0,1,.08,5.58,45.14,45.14,0,0,1-.67,5.59A53.54,53.54,0,0,1,681.73,360.23Zm-35.44,17.65a38.14,38.14,0,0,0,3.07-3.16,37.62,37.62,0,0,0,2.57-3.32,39.68,39.68,0,0,0,2.12-3.46c.64-1.18,1.22-2.37,1.75-3.58a33.31,33.31,0,0,0,1.28-3.46c.36-1.16.65-2.33.9-3.5s.43-2.34.58-3.52.26-2.36.34-3.54a1.21,1.21,0,0,0,0-.13s0-.09,0-.14l0-.15,0-.16-2.2-.16-2.17-.15-2.15-.15-2.12-.15-.07.09,0,.06,0,0v0q0,.13,0,.25t0,.25v.51c0,.91-.06,1.82-.12,2.73s-.15,1.82-.29,2.73a27.16,27.16,0,0,1-.53,2.71,22.67,22.67,0,0,1-.85,2.69c-.31.81-.65,1.61-1,2.4A23.63,23.63,0,0,1,646,366a19.65,19.65,0,0,1-1.61,2.23,19,19,0,0,1-2,2.1c-.46.41-.94.8-1.45,1.16a18.1,18.1,0,0,1-1.59,1,17,17,0,0,1-1.76.89,17.34,17.34,0,0,1-2,.72,13.43,13.43,0,0,1-2.05.45,12.34,12.34,0,0,1-4-.1,13.51,13.51,0,0,1-2-.53l-.06,0-.06,0-.06,0-.06,0q-.49-.19-.95-.4t-.87-.46a9.1,9.1,0,0,1-.79-.52,7.83,7.83,0,0,1-.7-.59l-.68-.66-.67-.66-.64-.67-.61-.69c-.52-.61-1-1.24-1.45-1.88s-.86-1.28-1.25-1.94-.75-1.32-1.09-2-.67-1.34-1-2l-2.14-4.56-2.13-4.55-2.13-4.54-2.12-4.53-.24-.5-.25-.5-.25-.51-.26-.52-1.83-.23-1.82-.23-1.82-.23-1.83-.23-5.15,9.31-5.17,9.34-5.19,9.39L579,377.74l1.81.31,1.78.31,1.78.31,1.81.31,3.69-6.7,3.66-6.65,3.64-6.61,3.62-6.58h.3l.06.1.07.1.06.1.06.1,1.92,3.9,1.92,3.9,1.94,3.91,2,3.91q.44.87.89,1.75t.92,1.74q.47.87,1,1.73t1,1.72q.46.79,1,1.54t1.18,1.48q.63.72,1.34,1.41t1.49,1.35c.26.22.52.43.79.63s.56.4.85.59.6.37.92.53.65.32,1,.47l.24.1.24.09.24.09.24.09a21.13,21.13,0,0,0,3.35.88,20.41,20.41,0,0,0,3.41.31,21.34,21.34,0,0,0,3.46-.26,24,24,0,0,0,3.51-.83,25.55,25.55,0,0,0,3-1.14,25.24,25.24,0,0,0,2.65-1.41,27.13,27.13,0,0,0,2.38-1.63c.75-.58,1.47-1.18,2.15-1.81"/><path class="cls-4" d="M803.23,253Q778,288.88,751.89,325.62,725.47,362.85,698.22,401q-27.6,38.65-56,78.28-28.81,40.19-58.45,81.46-9.28-5.75-18.22-11.47t-17.6-11.37q-8.66-5.66-17.15-11.28T513.9,515.39L495.24,503l-18.53-12.33L458.3,478.4,440,466.23l-16.18-10.76-16.08-10.7-16-10.63-15.89-10.57-.24-.15-.26-.14-.27-.13-.27-.13L418,368.89l42-52.64L500.85,265l39.74-49.83,24,3.49,23.79,3.44,23.64,3.4,23.6,3.39,22,3.15,22,3.16,22.08,3.17,22.13,3.18,19.77,2.84,19.81,2.84,19.85,2.85ZM533.56,420.49q2.35-1.76,4.55-3.6t4.26-3.75q2.06-1.91,4-3.89t3.71-4a2.49,2.49,0,0,0,.34-.47,1.28,1.28,0,0,0,.15-.44,1.2,1.2,0,0,0,0-.44,2.18,2.18,0,0,0-.18-.47,40.85,40.85,0,0,1-1.67-3.73q-.73-1.88-1.26-3.79t-.87-3.85q-.34-1.94-.51-3.9a51.14,51.14,0,0,1,0-8.87,55.58,55.58,0,0,1,1.5-8.69,65.49,65.49,0,0,1,2.81-8.52,81.59,81.59,0,0,1,4-8.37q.84-1.55,1.76-3.06t1.91-3q1-1.49,2.06-3t2.2-2.92l.08-.11.07-.13.08-.15.1-.18h-1.86q-1.83-.07-3.56-.25t-3.37-.46q-1.64-.29-3.18-.68t-3-.9a32.27,32.27,0,0,1-3.45-1.43,29,29,0,0,1-3.14-1.77,27.19,27.19,0,0,1-2.84-2.12,26.78,26.78,0,0,1-2.52-2.46,23.45,23.45,0,0,1-1.8-2.28,23.12,23.12,0,0,1-1.45-2.37,24.32,24.32,0,0,1-1.13-2.46c-.33-.83-.61-1.68-.86-2.53l-.08-.26-.08-.27-.08-.28-.08-.29-.44,0-.41,0-.4,0-.39,0q-2.17.12-4.3.38t-4.21.64q-2.09.38-4.13.88t-4.07,1.1q-3.13.93-6.09,2.05t-5.78,2.4q-2.82,1.28-5.5,2.72t-5.26,3q-3.7,2.25-7.07,4.68t-6.47,5q-3.09,2.61-5.92,5.38t-5.41,5.68q-1.09,1.23-2.13,2.48t-2,2.52q-1,1.27-1.92,2.56t-1.82,2.6q-.69,1-1.36,2.07t-1.3,2.09q-.64,1-1.24,2.1t-1.18,2.12q-1.24,2.31-2.31,4.65t-2,4.71q-.89,2.37-1.6,4.78t-1.22,4.85c-.4,1.88-.71,3.76-.92,5.63a49.43,49.43,0,0,0-.31,5.62,43.5,43.5,0,0,0,.37,5.61,40.77,40.77,0,0,0,1.14,5.59,35.94,35.94,0,0,0,1.33,3.91,32.36,32.36,0,0,0,1.82,3.77,31.31,31.31,0,0,0,2.38,3.6,33.17,33.17,0,0,0,5.69,5.78,33.38,33.38,0,0,0,3,2.12,35.21,35.21,0,0,0,3.33,1.84,38.53,38.53,0,0,0,3.68,1.56l.35.12.35.12.35.12.36.12a44.31,44.31,0,0,0,4.79,1.25,48.06,48.06,0,0,0,4.93.74q2.5.24,5.07.25t5.18-.21q2.89-.24,5.68-.7t5.5-1.12q2.71-.66,5.34-1.5t5.2-1.83q3.51-1.35,6.79-2.91t6.35-3.29q3.07-1.74,6-3.64t5.6-3.94m107.83-14.19a103.17,103.17,0,0,0,9.13-5.65,94.43,94.43,0,0,0,8-6.21,88.07,88.07,0,0,0,6.89-6.67,83.62,83.62,0,0,0,5.84-7q1.87-2.59,3.45-5.14t2.89-5.1q1.3-2.55,2.34-5.11t1.8-5.17a53.54,53.54,0,0,0,1.34-5.59,45.15,45.15,0,0,0,.67-5.59,40.1,40.1,0,0,0-.08-5.58,38.09,38.09,0,0,0-.89-5.58,34.65,34.65,0,0,0-1.32-4.32,32.42,32.42,0,0,0-4.49-8.11,35.5,35.5,0,0,0-3.29-3.76,36.78,36.78,0,0,0-3.18-2.82,37.45,37.45,0,0,0-3.57-2.49,39.75,39.75,0,0,0-4-2.14,43.84,43.84,0,0,0-4.39-1.77l-.81-.27-.82-.26-.84-.25-.85-.23A56.74,56.74,0,0,0,648,310a60.64,60.64,0,0,0-7.29-.5,68,68,0,0,0-7.35.34q-3.69.37-7.4,1.1l-.31.09-.3.14-.27.17-.22.18-1.14,1.13-1.12,1.14L621.48,315l-1.16,1.12q-2.21,2.07-4.59,4t-5,3.81q-2.58,1.85-5.34,3.57t-5.75,3.32q-2.68,1.43-5.47,2.72t-5.72,2.4q-2.93,1.11-6,2t-6.32,1.6a6.26,6.26,0,0,0-.84.23,4.39,4.39,0,0,0-.69.32,3.77,3.77,0,0,0-.57.4,4.2,4.2,0,0,0-.49.49q-1,1.21-2,2.43t-1.92,2.46q-.93,1.24-1.81,2.5T566.16,351q-1,1.62-1.95,3.26t-1.74,3.31q-.82,1.67-1.53,3.37t-1.31,3.42q-.91,2.61-1.54,5.23a47.56,47.56,0,0,0-1,5.26,42.13,42.13,0,0,0-.33,5.3,39.41,39.41,0,0,0,.37,5.34,37,37,0,0,0,1,4.93,33.4,33.4,0,0,0,1.73,4.76,32.77,32.77,0,0,0,2.53,4.58,35.22,35.22,0,0,0,3.42,4.36,36.18,36.18,0,0,0,3.28,3.15,36.74,36.74,0,0,0,3.69,2.75,39,39,0,0,0,4.12,2.34,43.13,43.13,0,0,0,4.54,1.91q1.22.43,2.49.81t2.6.7q1.33.32,2.72.58t2.83.46q3,.42,6.05.54t6,0q3-.15,6-.55t6-1q3.49-.73,6.79-1.7t6.45-2.17q3.14-1.19,6.13-2.59t5.84-3M571.66,264.91c-2.31,1.33-4.49,2.72-6.57,4.2a74.93,74.93,0,0,0-6,4.69c-1.89,1.65-3.7,3.4-5.44,5.26s-3.42,3.83-5.05,5.92c-.62.76-1.24,1.61-1.86,2.51s-1.22,1.87-1.81,2.89-1.15,2.08-1.69,3.17-1,2.21-1.5,3.34a40.46,40.46,0,0,0-1.38,4,33.18,33.18,0,0,0-.89,4,28.6,28.6,0,0,0-.34,4.06,26.41,26.41,0,0,0,.27,4.1,23.07,23.07,0,0,0,.47,2.37,20.3,20.3,0,0,0,.74,2.32,19,19,0,0,0,2.45,4.44,20.6,20.6,0,0,0,2.14,2.47,21.06,21.06,0,0,0,2.54,2.13,23.12,23.12,0,0,0,2.94,1.78A26.94,26.94,0,0,0,554.1,330q.74.26,1.52.49t1.59.42q.81.19,1.67.36t1.74.29a38.44,38.44,0,0,0,3.85.36c1.28.06,2.57.05,3.85,0s2.56-.17,3.84-.33,2.55-.37,3.82-.61q2.23-.43,4.37-1t4.19-1.26q2.05-.69,4-1.5t3.88-1.71a85.31,85.31,0,0,0,7.92-4.3,78.85,78.85,0,0,0,7-4.84,76.37,76.37,0,0,0,6.18-5.33,77.63,77.63,0,0,0,5.42-5.76q1.3-1.53,2.48-3.1t2.21-3.17q1-1.6,1.95-3.24t1.67-3.31q.84-1.84,1.51-3.69A36.9,36.9,0,0,0,629.9,285a31.37,31.37,0,0,0,.67-3.75,28.06,28.06,0,0,0,.18-3.79,26.05,26.05,0,0,0-.23-3.07,21.86,21.86,0,0,0-.62-3,19.94,19.94,0,0,0-2.69-5.77A20.22,20.22,0,0,0,625,263a20.52,20.52,0,0,0-2.64-2.3,22.66,22.66,0,0,0-3.11-1.91,26.88,26.88,0,0,0-3.59-1.51q-.73-.25-1.5-.47t-1.57-.4q-.8-.19-1.64-.34t-1.72-.28a39.65,39.65,0,0,0-4.18-.37c-1.39,0-2.77,0-4.15.05s-2.76.23-4.13.43-2.74.45-4.1.75q-2.94.65-5.71,1.52t-5.39,1.92q-2.62,1.05-5.1,2.27t-4.85,2.58"/><path class="cls-1" d="M550.35,403.4a2.18,2.18,0,0,1,.18.47,1.2,1.2,0,0,1,0,.44,1.28,1.28,0,0,1-.15.44,2.49,2.49,0,0,1-.34.47q-1.79,2-3.71,4t-4,3.89q-2.06,1.91-4.26,3.75t-4.55,3.6q-2.72,2-5.6,3.94t-6,3.64q-3.08,1.74-6.35,3.29t-6.79,2.91q-2.57,1-5.2,1.83t-5.34,1.5q-2.71.66-5.5,1.12t-5.68.7q-2.62.21-5.18.21t-5.07-.25a48.07,48.07,0,0,1-4.93-.74,44.33,44.33,0,0,1-4.79-1.25l-.36-.12-.35-.12-.35-.12-.35-.12a38.53,38.53,0,0,1-3.68-1.56,35.21,35.21,0,0,1-3.33-1.84,33.38,33.38,0,0,1-3-2.12,33.18,33.18,0,0,1-5.69-5.78,31.31,31.31,0,0,1-2.38-3.6,32.36,32.36,0,0,1-1.82-3.77,36,36,0,0,1-1.33-3.91,40.78,40.78,0,0,1-1.14-5.59,43.51,43.51,0,0,1-.37-5.61,49.44,49.44,0,0,1,.31-5.62c.21-1.87.52-3.75.92-5.63q.51-2.44,1.22-4.85t1.6-4.78q.89-2.37,2-4.71t2.31-4.65q.57-1.07,1.18-2.12t1.24-2.1q.64-1,1.31-2.09t1.36-2.07q.88-1.31,1.82-2.6t1.92-2.56q1-1.27,2-2.52t2.13-2.48q2.58-2.91,5.41-5.68t5.92-5.38q3.09-2.61,6.47-5t7.07-4.68q2.57-1.56,5.26-3t5.5-2.72q2.82-1.28,5.78-2.4t6.09-2.05q2-.6,4.07-1.1t4.13-.88q2.09-.38,4.21-.64t4.3-.38l.39,0,.4,0,.41,0,.44,0,.08.29.08.28.08.27.08.26c.24.86.53,1.7.86,2.53a24.32,24.32,0,0,0,1.13,2.46,23.11,23.11,0,0,0,1.45,2.37,23.44,23.44,0,0,0,1.8,2.28,26.78,26.78,0,0,0,2.52,2.46,27.19,27.19,0,0,0,2.84,2.12,29,29,0,0,0,3.14,1.77,32.26,32.26,0,0,0,3.45,1.43q1.44.51,3,.9t3.18.68q1.64.29,3.37.46t3.56.25h1.86l-.1.18-.08.15-.07.13-.08.11q-1.13,1.45-2.2,2.92t-2.06,3q-1,1.49-1.91,3t-1.76,3.06a81.59,81.59,0,0,0-4,8.37,65.49,65.49,0,0,0-2.81,8.52,55.58,55.58,0,0,0-1.5,8.69,51.14,51.14,0,0,0,0,8.87q.16,2,.51,3.9t.87,3.85q.53,1.91,1.26,3.79A40.83,40.83,0,0,0,550.35,403.4Zm-45,11.52a88.36,88.36,0,0,0,8.7-4.77,66.34,66.34,0,0,0,7.5-5.43,51.65,51.65,0,0,0,6.19-6.14,43.21,43.21,0,0,0,4.79-6.9q.74-1.32,1.32-2.67a25.15,25.15,0,0,0,1-2.7,21.52,21.52,0,0,0,.64-2.74,19.38,19.38,0,0,0,.26-2.78,20.79,20.79,0,0,0-.1-2.56,17.42,17.42,0,0,0-.45-2.51,15.73,15.73,0,0,0-2.13-4.8,11,11,0,0,0-1.12-1.43,10.68,10.68,0,0,0-1.32-1.21,11.1,11.1,0,0,0-1.52-1,12.24,12.24,0,0,0-1.7-.75,14.13,14.13,0,0,0-1.92-.53,16.83,16.83,0,0,0-2.09-.28,20.37,20.37,0,0,0-2.25,0q-1.16,0-2.4.21-.94.13-1.85.31t-1.8.41q-.89.23-1.75.51t-1.71.59q-2.48.92-4.79,2T502.34,372q-2.17,1.2-4.18,2.54t-3.89,2.82l-.17.12-.18.12-.19.11-.19.11q-.5-2-1-4.06t-.92-4l-.9-4-.89-3.95a.75.75,0,0,1,0-.24.54.54,0,0,1,.07-.21.72.72,0,0,1,.16-.19,1.44,1.44,0,0,1,.25-.17l.83-.45.82-.46.82-.46.82-.46,6.52-3.66,6.5-3.65,6.5-3.65,6.49-3.63a3,3,0,0,0,.44-.28,1.08,1.08,0,0,0,.26-.3.67.67,0,0,0,.09-.34,1.11,1.11,0,0,0-.09-.41q-.2-.54-.38-1.08t-.35-1.09l-.34-1.09-.34-1.09-.1-.31-.11-.31-.11-.33-.12-.35-.31.16-.28.14-.25.13-.24.13-9.7,5.49-9.73,5.5-9.76,5.52-9.79,5.53a3.07,3.07,0,0,0-.43.29,1.24,1.24,0,0,0-.27.3.82.82,0,0,0-.12.34,1.21,1.21,0,0,0,0,.41q.82,3.6,1.63,7.2l1.62,7.24,1.62,7.26,1.63,7.29a1.87,1.87,0,0,0,.05.19l.07.2.08.21.09.24.16-.12.13-.1.1-.08.09-.07q1.54-1.3,3.13-2.56t3.26-2.47q1.67-1.21,3.42-2.36t3.61-2.22q1.1-.64,2.23-1.24t2.31-1.15q1.18-.55,2.41-1t2.53-.9q.69-.22,1.39-.39t1.42-.3q.72-.13,1.45-.2c.49,0,1-.07,1.48-.08q.48,0,.94,0t.9.1q.44.07.86.17t.82.24l.36.14.35.15.34.17.33.19a7,7,0,0,1,.89.63,6.51,6.51,0,0,1,.72.7,6.79,6.79,0,0,1,.58.77,8,8,0,0,1,.47.82,12.32,12.32,0,0,1,.86,2.24,11,11,0,0,1,.37,2.27,11.24,11.24,0,0,1-.11,2.3,13,13,0,0,1-.58,2.34,20.33,20.33,0,0,1-1.45,3.22,23.64,23.64,0,0,1-2,3,29.15,29.15,0,0,1-2.53,2.83,37.16,37.16,0,0,1-3,2.66,53.29,53.29,0,0,1-10.92,6.71,56.26,56.26,0,0,1-6.29,2.44,61.87,61.87,0,0,1-6.88,1.78l-.12,0-.13,0-.14.05-.17.06.32,2.11.32,2.12.33,2.16.34,2.22,1.13-.3,1.08-.28,1-.28,1-.29q1.57-.46,3.07-1t3-1.15q1.46-.6,2.88-1.25t2.83-1.32"/><path class="cls-5" d="M739.79,415.26h4.12a42.69,42.69,0,0,0,3,4.82,44.76,44.76,0,0,0,3.79,4.58,47.36,47.36,0,0,0,4.6,4.25,50.88,50.88,0,0,0,5.42,3.82l-32.92,7.78q1.13-3,2.45-6.05t2.82-6.23q1.5-3.15,3.18-6.4T739.79,415.26Z"/><path class="cls-5" d="M771.6,437.92q1.24.44,2.5.82t2.53.71q1.27.33,2.56.61t2.57.51l4.87,10L763.88,456l-7.66-2.71-7.76-16.18,14-3.31q1,.59,2.13,1.15t2.23,1.08q1.14.52,2.33,1T771.6,437.92Z"/><path class="cls-5" d="M721.06,479.14l29.32-26.42L768,459l-11.47,32.38q-3.33,1.6-6.68,3t-6.73,2.49q-3.38,1.13-6.78,2t-6.83,1.55l-1-.24-1.39-.7a48.24,48.24,0,0,1-2.3-4.73,48.79,48.79,0,0,1-1.78-5,51.15,51.15,0,0,1-1.26-5.19Q721.3,481.91,721.06,479.14Z"/><path class="cls-1" d="M819,438.6c10.6,8.54,18.25,16.83,23.42,25A52.56,52.56,0,0,1,850.88,488c.62,8.16-.85,16.35-3.93,24.73s-7.82,17-13.72,25.95a.77.77,0,0,1-.24.23,1.1,1.1,0,0,1-.33.13,1.34,1.34,0,0,1-.38,0,1.33,1.33,0,0,1-.38-.08L647.28,472.49l39.39-54.85a119,119,0,0,1,12.18-3.14q6.35-1.29,13.25-2t14.43-.93q7.53-.19,15.71.18a41.27,41.27,0,0,1-1.64-4.64,39.15,39.15,0,0,1-1-4.61,36.34,36.34,0,0,1-.44-4.51,32.88,32.88,0,0,1,.13-4.33,11.62,11.62,0,0,1-3.23-1.79,7.94,7.94,0,0,1-3-5.59,11.61,11.61,0,0,1,.27-3.67,19,19,0,0,1,2.13-5.29,24.7,24.7,0,0,1,3.56-4.72,20.55,20.55,0,0,1,4.33-3.48,10.89,10.89,0,0,1,4.44-1.56l.61,0c.21,0,.43,0,.65,0a6.17,6.17,0,0,1,.68.1,5.72,5.72,0,0,1,.69.19,5.46,5.46,0,0,1,.54.22,5.37,5.37,0,0,1,.53.29,5.45,5.45,0,0,1,.52.36,5.73,5.73,0,0,1,.5.44,61.28,61.28,0,0,1,15.69-14.75,66.38,66.38,0,0,1,19.77-8.66,75.47,75.47,0,0,1,22.42-2.24A86,86,0,0,1,834,348q2.49.85,4.79,1.8t4.44,2q2.13,1,4.08,2.18t3.74,2.35a13,13,0,0,0-2.63-3.86,32.62,32.62,0,0,0-4.68-4.07,50.56,50.56,0,0,0-6.17-3.82,54.41,54.41,0,0,0-7.12-3.13q1.48.3,2.91.64t2.81.71q1.38.37,2.71.77t2.6.84a64.43,64.43,0,0,1,10.28,4.45,35,35,0,0,1,7.35,5.22,14.61,14.61,0,0,1,3.87,5.6,7.42,7.42,0,0,1-.18,5.57c.43,0,.87,0,1.32,0s.9.08,1.36.15.92.16,1.37.27.91.24,1.36.4a13.4,13.4,0,0,1,3.31,1.64,9.44,9.44,0,0,1,2.53,2.54,7.73,7.73,0,0,1,1.24,3.45,10.33,10.33,0,0,1-.56,4.4,22.78,22.78,0,0,0-1.48-2.09,16.26,16.26,0,0,0-1.55-1.69,11.11,11.11,0,0,0-1.6-1.26,7.54,7.54,0,0,0-1.63-.8,5.87,5.87,0,0,0-.83-.22,5.22,5.22,0,0,0-.82-.09,4.93,4.93,0,0,0-.82,0,5,5,0,0,0-.81.19,29.91,29.91,0,0,1,2.39,8,31,31,0,0,1,.1,8.48,37.44,37.44,0,0,1-2.26,8.87,49.88,49.88,0,0,1-4.69,9.12q.55,0,1,0t.94.11q.44.07.83.16t.74.22a6.79,6.79,0,0,1,.92.39,5.63,5.63,0,0,1,.74.46,4.93,4.93,0,0,1,.58.5,4.54,4.54,0,0,1,.44.51,5.24,5.24,0,0,1,.85,3.72,12.17,12.17,0,0,1-1.54,4.46,23.52,23.52,0,0,1-3.31,4.53,28,28,0,0,1-4.47,3.92,25.3,25.3,0,0,1-4.29,2.44,21.38,21.38,0,0,1-4.39,1.42,18.16,18.16,0,0,1-4.35.36,16,16,0,0,1-4.16-.71c-1.51.94-3.13,1.86-4.84,2.73s-3.51,1.72-5.39,2.52-3.84,1.54-5.86,2.24S821.13,438,819,438.6Zm-89.45,61.79q3.43-.66,6.83-1.55t6.78-2q3.37-1.13,6.73-2.49t6.68-3L768,459l-17.64-6.25-29.32,26.42q.24,2.77.74,5.42a51.16,51.16,0,0,0,1.26,5.19,48.78,48.78,0,0,0,1.78,5,48.23,48.23,0,0,0,2.3,4.73l1.39.7,1,.24m10.26-85.13q-1.86,3.33-3.54,6.57t-3.18,6.4q-1.5,3.16-2.82,6.23t-2.45,6.05l32.92-7.78a50.87,50.87,0,0,1-5.42-3.82,47.35,47.35,0,0,1-4.6-4.25,44.75,44.75,0,0,1-3.79-4.58,42.69,42.69,0,0,1-3-4.82h-4.12M763.88,456l22.76-5.41-4.87-10q-1.29-.23-2.57-.51t-2.56-.61q-1.27-.33-2.53-.71t-2.5-.82q-1.25-.44-2.44-.92t-2.33-1q-1.14-.52-2.23-1.08t-2.13-1.15l-14,3.31,7.76,16.18,7.66,2.71m31.42,8.11q2.63-2.46,5.26-5.08t5.23-5.39q2.61-2.77,5.21-5.71t5.19-6l-2.25-2.08c-2.38.5-4.82.91-7.29,1.23s-5,.53-7.49.64-5.05.1-7.59,0-5.07-.37-7.59-.74l11.32,23.16"/><path class="cls-5" d="M816.19,441.88q-2.59,3.09-5.19,6t-5.21,5.71q-2.61,2.78-5.23,5.39t-5.26,5.08L784,440.92c2.52.37,5.05.62,7.59.74s5.07.13,7.59,0,5-.32,7.49-.64,4.9-.73,7.29-1.23Z"/><polygon class="cls-4" points="841.63 720.93 684.55 970.94 38.55 705.43 219.93 485.51 841.63 720.93"/><path class="cls-5" d="M1120.28,292a2.62,2.62,0,0,1,.27.62,2.3,2.3,0,0,1,.09.64,2.23,2.23,0,0,1-.09.63,2.41,2.41,0,0,1-.27.6L692,979.16a4.58,4.58,0,0,1-.6.76,5.26,5.26,0,0,1-.76.65,5.86,5.86,0,0,1-.9.52,6.28,6.28,0,0,1-1,.36,6.76,6.76,0,0,1-1.09.2,7,7,0,0,1-1.11,0,6.88,6.88,0,0,1-1.09-.15,6.42,6.42,0,0,1-1-.33L28.29,710.79a4.57,4.57,0,0,1-.8-.42,3.9,3.9,0,0,1-.65-.54,3.32,3.32,0,0,1-.48-.64A2.81,2.81,0,0,1,26,707.7a3.23,3.23,0,0,1,.11-.78,3.68,3.68,0,0,1,.3-.77,4.28,4.28,0,0,1,.49-.73l500-604.15a3.36,3.36,0,0,1,.5-.48,4.42,4.42,0,0,1,.63-.41,5.44,5.44,0,0,1,.73-.33,6.18,6.18,0,0,1,.82-.24,6.59,6.59,0,0,1,.86-.13,7,7,0,0,1,.88,0,6.7,6.7,0,0,1,.86.09,5.85,5.85,0,0,1,.81.2l584.74,190.13a6,6,0,0,1,.83.34,5.26,5.26,0,0,1,.73.44,4.31,4.31,0,0,1,.6.52A3.37,3.37,0,0,1,1120.28,292Zm-278.65,429,267.94-426.46-577-188L219.93,485.51,38.55,705.43l646,265.5,157.08-250"/><path class="cls-4" d="M535.71,380.79a19.38,19.38,0,0,1-.26,2.78,21.52,21.52,0,0,1-.64,2.74,25.15,25.15,0,0,1-1,2.7q-.58,1.34-1.32,2.67a43.21,43.21,0,0,1-4.79,6.9,51.66,51.66,0,0,1-6.19,6.14,66.34,66.34,0,0,1-7.5,5.43,88.36,88.36,0,0,1-8.7,4.77q-1.4.67-2.83,1.32t-2.88,1.25q-1.46.6-3,1.15t-3.07,1l-1,.29-1,.28-1.08.28-1.13.3-.34-2.22-.33-2.16-.32-2.13L488,412.2l.17-.06.14-.05.13,0,.12,0a61.86,61.86,0,0,0,6.88-1.78,56.25,56.25,0,0,0,6.29-2.44,53.29,53.29,0,0,0,10.92-6.71,37.14,37.14,0,0,0,3-2.66,29.14,29.14,0,0,0,2.53-2.83,23.63,23.63,0,0,0,2-3,20.33,20.33,0,0,0,1.45-3.22,12.94,12.94,0,0,0,.58-2.34,11.23,11.23,0,0,0,.11-2.3,11,11,0,0,0-.37-2.27,12.32,12.32,0,0,0-.86-2.24,7.94,7.94,0,0,0-.47-.82,6.79,6.79,0,0,0-.58-.77,6.51,6.51,0,0,0-.72-.7,7,7,0,0,0-.89-.63l-.33-.19-.34-.17-.35-.15-.36-.14q-.4-.14-.82-.24t-.86-.17q-.44-.07-.9-.1t-.94,0c-.5,0-1,0-1.48.08s-1,.11-1.45.2-.95.19-1.42.3-.93.25-1.39.39q-1.3.41-2.53.9t-2.41,1q-1.18.55-2.31,1.15t-2.23,1.24q-1.86,1.08-3.61,2.22T491.28,386q-1.67,1.21-3.26,2.47T484.89,391l-.09.07-.1.08-.13.1-.16.12-.09-.24-.08-.21-.07-.2a1.85,1.85,0,0,1-.05-.19l-1.63-7.29L480.87,376l-1.62-7.24q-.81-3.61-1.63-7.2a1.21,1.21,0,0,1,0-.41.82.82,0,0,1,.12-.34,1.24,1.24,0,0,1,.27-.3,3.06,3.06,0,0,1,.43-.29l9.79-5.53,9.76-5.52,9.73-5.5,9.7-5.49.24-.13.25-.13.28-.14.31-.16.12.35.11.33.11.31.1.31.34,1.09.34,1.09q.17.55.35,1.09t.38,1.08a1.11,1.11,0,0,1,.09.41.67.67,0,0,1-.09.34,1.08,1.08,0,0,1-.26.3,3,3,0,0,1-.44.28l-6.49,3.63-6.5,3.65-6.5,3.65-6.52,3.66-.82.46-.82.46-.82.46-.83.45a1.43,1.43,0,0,0-.25.17.72.72,0,0,0-.16.19.54.54,0,0,0-.07.21.75.75,0,0,0,0,.24l.89,3.95.88,4,.88,4,.88,4,.27,0,.23-.07.2-.1.17-.12q1.87-1.47,3.89-2.82t4.18-2.54q2.17-1.2,4.48-2.27t4.79-2q.84-.31,1.71-.59t1.75-.51q.89-.23,1.8-.41t1.85-.31q1.24-.17,2.4-.21a20.37,20.37,0,0,1,2.25,0,16.83,16.83,0,0,1,2.09.28,14.13,14.13,0,0,1,1.92.53,12.24,12.24,0,0,1,1.7.75,11.1,11.1,0,0,1,1.52,1,10.67,10.67,0,0,1,1.32,1.21,11,11,0,0,1,1.12,1.43,15.73,15.73,0,0,1,2.13,4.8,17.42,17.42,0,0,1,.45,2.51A20.79,20.79,0,0,1,535.71,380.79Z"/><path class="cls-5" d="M773.67,296.47l190.69,64.34-146.87,224L618.77,512.19l28.5-39.7L831.91,539a1.33,1.33,0,0,0,.38.08,1.34,1.34,0,0,0,.38,0,1.1,1.1,0,0,0,.33-.13.77.77,0,0,0,.24-.23c5.89-8.94,10.62-17.54,13.72-25.95s4.55-16.57,3.93-24.73a52.56,52.56,0,0,0-8.47-24.43c-5.17-8.17-12.82-16.46-23.42-25q3.21-.86,6.25-1.9t5.86-2.24q2.82-1.19,5.39-2.52c1.71-.88,3.33-1.79,4.84-2.73a16,16,0,0,0,4.16.71,18.16,18.16,0,0,0,4.35-.36,21.38,21.38,0,0,0,4.39-1.42,25.3,25.3,0,0,0,4.29-2.44,28,28,0,0,0,4.47-3.92,23.52,23.52,0,0,0,3.31-4.53,12.17,12.17,0,0,0,1.54-4.46,5.24,5.24,0,0,0-.85-3.72,4.54,4.54,0,0,0-.44-.51,4.94,4.94,0,0,0-.58-.5,5.63,5.63,0,0,0-.74-.46,6.79,6.79,0,0,0-.92-.39q-.34-.12-.74-.22t-.83-.16q-.44-.07-.94-.11t-1,0a49.88,49.88,0,0,0,4.69-9.12,37.44,37.44,0,0,0,2.26-8.87,31,31,0,0,0-.1-8.48,29.91,29.91,0,0,0-2.39-8,5,5,0,0,1,.81-.19,4.93,4.93,0,0,1,.82,0,5.22,5.22,0,0,1,.82.09,5.87,5.87,0,0,1,.83.22,7.54,7.54,0,0,1,1.63.8,11.11,11.11,0,0,1,1.6,1.26,16.26,16.26,0,0,1,1.55,1.69,22.79,22.79,0,0,1,1.48,2.09,10.33,10.33,0,0,0,.56-4.4,7.73,7.73,0,0,0-1.24-3.45,9.44,9.44,0,0,0-2.53-2.54,13.4,13.4,0,0,0-3.31-1.64c-.45-.15-.9-.29-1.36-.4s-.92-.2-1.37-.27-.91-.12-1.36-.15-.89,0-1.32,0a7.42,7.42,0,0,0,.18-5.57,14.61,14.61,0,0,0-3.87-5.6,35,35,0,0,0-7.35-5.22,64.43,64.43,0,0,0-10.28-4.45q-1.27-.43-2.6-.84t-2.71-.77q-1.38-.37-2.81-.71t-2.91-.64a54.41,54.41,0,0,1,7.12,3.13,50.56,50.56,0,0,1,6.17,3.82,32.62,32.62,0,0,1,4.68,4.07,13,13,0,0,1,2.63,3.86q-1.78-1.22-3.74-2.35t-4.08-2.18q-2.13-1-4.44-2T834,348a86,86,0,0,0-23.68-4.57,75.47,75.47,0,0,0-22.42,2.24,66.38,66.38,0,0,0-19.77,8.66,61.28,61.28,0,0,0-15.69,14.75,5.73,5.73,0,0,0-.5-.44,5.45,5.45,0,0,0-.52-.36,5.37,5.37,0,0,0-.53-.29,5.46,5.46,0,0,0-.54-.22,5.72,5.72,0,0,0-.69-.19,6.17,6.17,0,0,0-.68-.1c-.22,0-.44,0-.65,0l-.61,0a10.89,10.89,0,0,0-4.44,1.56,20.55,20.55,0,0,0-4.33,3.48,24.7,24.7,0,0,0-3.56,4.72,19,19,0,0,0-2.13,5.29,11.61,11.61,0,0,0-.27,3.67,7.94,7.94,0,0,0,3,5.59,11.62,11.62,0,0,0,3.23,1.79,32.89,32.89,0,0,0-.13,4.33,36.34,36.34,0,0,0,.44,4.51,39.15,39.15,0,0,0,1,4.61,41.28,41.28,0,0,0,1.64,4.64q-8.2-.37-15.71-.18t-14.43.93q-6.91.74-13.25,2a119,119,0,0,0-12.18,3.14Z"/></g><path class="cls-1" d="M532.56,106.44l577,188L841.63,720.93,219.93,485.51Zm49.37,454.19q30.33-41.25,59.53-81.39,28.82-39.6,56.66-78.16Q725.61,363,752.24,326q26.31-36.59,51.88-72.23-10.29-1.71-20.41-3.3t-20.12-3.07q-10-1.49-19.91-2.93l-19.79-2.85-22.13-3.18-22.08-3.17-22-3.16-22-3.15-23.58-3.38-23.52-3.38-23.47-3.37-23.41-3.36q-20.1,24.61-40.37,49.7-20.47,25.32-41.17,51.14Q439.24,342.33,418,368.89,396.61,395.7,374.82,423l.27.13.27.13.26.14.24.15,15.89,10.57,16,10.63,16.09,10.7L440,466.23,458.3,478.4l18.41,12.25L495.24,503l18.66,12.41,16.85,11.2,17,11.27,17.06,11.34,17.16,11.42m235.56,24.21,146.87-224L773.66,296.47,618.77,512.19l198.72,72.65"/></g></svg>