<svg id="Calque_1" data-name="Calque 1" xmlns="http://www.w3.org/2000/svg" viewBox="0 0 1200 1200"><defs><style>.cls-1{fill:#fff;}.cls-2{isolation:isolate;}.cls-3{fill:#7bb1db;}.cls-4{fill:#005187;}.cls-5{fill:none;stroke:#005187;stroke-linecap:round;stroke-linejoin:round;stroke-width:10px;}</style></defs><title>book-cresus-comptabilite</title><polygon class="cls-1" points="1080 512 678 1165 67 910 30 710 1117 294 1080 512"/><g class="cls-2"><path class="cls-3" d="M604.63,269.65,595.9,281l-8.77,11.41-8.82,11.48-8.88,11.56a8.26,8.26,0,0,1-.87-.17c-.28-.07-.56-.15-.83-.23l-.81-.26-.82-.25-.81-.23-.83-.24-.86-.26-.92-.27L570,304l7.28-9.44,7.25-9.41,7.24-9.39a9.12,9.12,0,0,0-.93.21c-.29.08-.56.17-.82.27l-.75.28-.74.27-.79.27-.79.28-.79.29-.79.29-.76.27-.76.27-.76.27-.76.27-.76.27-.78.28-.81.29-.86.31.24-1.4.23-1.36.23-1.34.23-1.33.31-.12.3-.11.29-.11.29-.1,4-1.4,4-1.4,4-1.4,4-1.41a5.24,5.24,0,0,1,.62-.18,3.8,3.8,0,0,1,.6-.08,3.6,3.6,0,0,1,.6,0,4.48,4.48,0,0,1,.64.12l1.18.29,1.2.27,1.22.26Z"/><path class="cls-3" d="M518.94,337.39l.12.35.11.33.1.31.1.31.35,1.09.34,1.09c.12.36.23.73.35,1.09s.25.72.38,1.08a1.39,1.39,0,0,1,.07.25.84.84,0,0,1,0,.22.68.68,0,0,1-.05.2.79.79,0,0,1-.11.18l-.11.12-.14.12-.17.12-.2.12L513.61,348l-6.5,3.65-6.5,3.65L494.09,359l-.82.46-.82.46-.82.46-.82.46-.12.07-.11.08-.09.08-.07.08-.06.11a.52.52,0,0,0,0,.12.6.6,0,0,0,0,.13.84.84,0,0,0,0,.14l.88,3.94.88,4,.88,4,.88,4,.27,0,.23-.07.2-.1.17-.12q1.87-1.48,3.89-2.82t4.18-2.55q2.17-1.2,4.48-2.27t4.79-2q.84-.31,1.71-.59t1.75-.51q.89-.23,1.8-.41t1.84-.31h.93q1.06-.1,2.06-.11t1.94.07a16.64,16.64,0,0,1,1.82.26,14.28,14.28,0,0,1,1.69.45,16.09,16.09,0,0,1,1.69.74,12.12,12.12,0,0,1,1.43.85A10.24,10.24,0,0,1,533,370l.05.07.05.07.05.07.05.07.08.11.08.11.08.12.08.12a15.84,15.84,0,0,1,2.13,4.81,17.35,17.35,0,0,1,.45,2.51,20.49,20.49,0,0,1,.1,2.56,19.35,19.35,0,0,1-.26,2.78,21.54,21.54,0,0,1-.65,2.74,25.2,25.2,0,0,1-1,2.7q-.58,1.34-1.32,2.66-.38.68-.79,1.35t-.84,1.33q-.43.66-.89,1.3t-.94,1.27a48,48,0,0,1-4.65,5.2,57.63,57.63,0,0,1-5.54,4.72,71.68,71.68,0,0,1-6.38,4.26q-3.39,2-7.16,3.82-1.4.67-2.82,1.32t-2.88,1.25q-1.46.6-3,1.15t-3.07,1l-1,.29-1,.28-1.08.28-1.13.3-.34-2.22-.33-2.16-.33-2.13-.32-2.11.17-.06.15-.05.13,0,.12,0a61.63,61.63,0,0,0,6.88-1.77,56.17,56.17,0,0,0,6.29-2.44,53.31,53.31,0,0,0,10.92-6.71q.84-.66,1.61-1.35t1.49-1.4q.71-.71,1.36-1.44t1.23-1.49q.54-.71,1-1.45t.9-1.49q.42-.76.76-1.54t.63-1.58a13,13,0,0,0,.58-2.34,11.26,11.26,0,0,0,.11-2.31,11,11,0,0,0-.37-2.27,12.29,12.29,0,0,0-.86-2.24,7.92,7.92,0,0,0-.47-.82,6.74,6.74,0,0,0-.58-.77,6.45,6.45,0,0,0-.72-.7,6.94,6.94,0,0,0-.89-.63l-.12-.07-.12-.07-.12-.06-.12-.06-.22-.11-.23-.1-.23-.09-.23-.09-.1,0-.1,0-.1,0-.1,0q-.36-.11-.73-.18t-.76-.13l-.79-.07-.82,0c-.5,0-1,0-1.49.08s-1,.11-1.45.2-1,.19-1.42.3-.93.25-1.39.39q-1.3.41-2.53.9t-2.41,1q-1.18.55-2.31,1.15t-2.23,1.24q-1.86,1.08-3.61,2.23t-3.42,2.36q-1.67,1.21-3.26,2.47t-3.13,2.56l-.09.07-.1.08-.13.1-.16.13-.09-.24-.08-.22-.07-.2c0-.06,0-.13-.05-.19l-1.63-7.3-1.62-7.27-1.62-7.24q-.81-3.61-1.62-7.21a1.43,1.43,0,0,1,0-.24,1,1,0,0,1,0-.22.81.81,0,0,1,.06-.2.9.9,0,0,1,.11-.18l.12-.13.15-.13.18-.13.21-.13,9.8-5.53,9.76-5.52,9.73-5.5,9.7-5.49.24-.13.25-.13.28-.14Z"/><path class="cls-1" d="M550.82,403.2a2.23,2.23,0,0,1,.17.43,1.25,1.25,0,0,1,0,.4,1.18,1.18,0,0,1-.09.39,2,2,0,0,1-.25.41q-1.85,2.11-3.8,4.13t-4,3.94q-2.08,1.93-4.28,3.77T534,420.29q-2.72,2-5.6,3.95t-6,3.64q-3.08,1.74-6.35,3.3t-6.79,2.91q-2.57,1-5.2,1.83t-5.34,1.5q-2.71.66-5.51,1.12t-5.68.7q-2.62.22-5.19.21t-5.07-.25a48.06,48.06,0,0,1-4.94-.74,44.34,44.34,0,0,1-4.79-1.25l-.2-.06-.2-.07L467,437l-.2-.07-.13,0-.13,0-.13,0-.13,0-.17-.06-.15-.05-.13,0-.12,0q-1.71-.65-3.27-1.41t-3-1.65q-1.43-.88-2.73-1.87t-2.47-2.07l-.1-.09-.1-.09-.09-.09-.09-.09-.09-.09-.09-.09-.09-.09-.09-.09a32.59,32.59,0,0,1-3-3.4,31.28,31.28,0,0,1-2.38-3.6,32.39,32.39,0,0,1-1.82-3.77,36,36,0,0,1-1.33-3.91,40.71,40.71,0,0,1-1.14-5.59,43.5,43.5,0,0,1-.37-5.61,49.49,49.49,0,0,1,.32-5.62c.21-1.88.52-3.75.92-5.63q.51-2.44,1.22-4.85t1.6-4.78q.89-2.37,2-4.71t2.31-4.65q.57-1.07,1.18-2.12t1.24-2.1q.64-1,1.3-2.09t1.36-2.07q.5-.74,1-1.47l1-1.46,1.08-1.44,1.11-1.43.88-1.1.9-1.09.92-1.09.94-1.08q2.58-2.91,5.41-5.69t5.92-5.38q3.09-2.61,6.47-5t7.08-4.68q2.57-1.56,5.26-3t5.5-2.72q2.82-1.28,5.78-2.41t6.09-2.06q2-.6,4.07-1.1t4.14-.88q2.09-.38,4.21-.64t4.29-.38l.4,0,.4,0,.41,0,.43,0,.09.29.08.27.08.27.08.26c.24.86.53,1.7.86,2.53a24.38,24.38,0,0,0,1.13,2.46,23.08,23.08,0,0,0,1.45,2.38,23.33,23.33,0,0,0,1.8,2.28,26.79,26.79,0,0,0,2.46,2.41,27.15,27.15,0,0,0,2.76,2.08,28.85,28.85,0,0,0,3.05,1.75,32,32,0,0,0,3.35,1.43c1,.35,2,.65,3,.92s2,.49,3,.68,2,.35,3,.47,2,.22,3.08.28h3.2l-.1.18-.08.15-.07.13-.08.11-.14.18-.14.18-.14.18-.14.18q-1,1.36-2,2.75t-1.91,2.79q-.92,1.4-1.78,2.83t-1.65,2.87a81.8,81.8,0,0,0-4,8.37,65.62,65.62,0,0,0-2.81,8.52,55.63,55.63,0,0,0-1.5,8.69,51.12,51.12,0,0,0,0,8.87q.17,2,.51,3.9t.87,3.85q.53,1.91,1.26,3.79A40.67,40.67,0,0,0,550.82,403.2Zm-45.05,11.53q3.77-1.81,7.16-3.82a71.68,71.68,0,0,0,6.38-4.26,57.63,57.63,0,0,0,5.54-4.72,48,48,0,0,0,4.65-5.2q.48-.63.94-1.27t.89-1.3q.43-.66.84-1.33t.79-1.35q.73-1.32,1.32-2.66a25.2,25.2,0,0,0,1-2.7,21.54,21.54,0,0,0,.65-2.74,19.35,19.35,0,0,0,.26-2.78,20.49,20.49,0,0,0-.1-2.56,17.35,17.35,0,0,0-.45-2.51,15.84,15.84,0,0,0-2.13-4.81l-.08-.12-.08-.12-.08-.11-.08-.11-.05-.07-.05-.07L533,370,533,370a10.73,10.73,0,0,0-2.18-2.09,11.21,11.21,0,0,0-1.3-.8,12.18,12.18,0,0,0-1.43-.64,18.22,18.22,0,0,0-2-.54,17.41,17.41,0,0,0-2-.31,18.68,18.68,0,0,0-2-.09c-.67,0-1.36,0-2.07.11h-.93q-.94.13-1.84.31t-1.8.41q-.89.23-1.75.51t-1.71.59q-2.48.92-4.79,2t-4.48,2.27q-2.17,1.2-4.18,2.55t-3.89,2.82l-.17.12-.18.12-.19.11-.18.12q-.5-2-1-4.06t-.92-4q-.45-2-.9-4l-.88-3.95a.84.84,0,0,1,0-.14.6.6,0,0,1,0-.13.52.52,0,0,1,0-.12l.06-.11.07-.08.09-.08.11-.08.12-.07.82-.46.82-.46.82-.46.82-.46,6.52-3.66,6.5-3.65,6.5-3.65,6.49-3.63.2-.12.17-.12.14-.12.11-.12a.79.79,0,0,0,.11-.18.67.67,0,0,0,.05-.2.84.84,0,0,0,0-.22,1.39,1.39,0,0,0-.07-.25c-.14-.36-.26-.72-.38-1.08s-.24-.72-.35-1.09l-.34-1.09-.35-1.09-.1-.31-.1-.31-.11-.33-.12-.35-.32.16-.28.14-.25.13-.24.13-9.7,5.49-9.73,5.5-9.76,5.52-9.8,5.53-.21.13-.18.13-.15.13-.12.13a.9.9,0,0,0-.11.18.81.81,0,0,0-.06.2,1,1,0,0,0,0,.22,1.43,1.43,0,0,0,0,.24q.81,3.6,1.62,7.21l1.62,7.24,1.62,7.27,1.63,7.3c0,.06,0,.13.05.19l.07.2.08.22.09.24.16-.13.13-.1.1-.08.09-.07q1.54-1.3,3.13-2.56t3.26-2.47q1.67-1.21,3.42-2.36t3.61-2.23q1.1-.64,2.23-1.24t2.31-1.15q1.18-.55,2.41-1t2.53-.9q.69-.22,1.39-.39t1.42-.3q.72-.13,1.45-.2c.49,0,1-.07,1.49-.08l.82,0,.79.07q.39.05.76.13t.73.18l.1,0,.1,0,.1,0,.1,0,.23.09.23.09.23.1.22.11.12.06.12.06.12.07.12.07a6.94,6.94,0,0,1,.89.63,6.45,6.45,0,0,1,.72.7,6.74,6.74,0,0,1,.58.77,7.92,7.92,0,0,1,.47.82,12.29,12.29,0,0,1,.86,2.24,11,11,0,0,1,.37,2.27,11.26,11.26,0,0,1-.11,2.31,13,13,0,0,1-.58,2.34q-.28.8-.63,1.58t-.76,1.54q-.42.76-.9,1.49t-1,1.45q-.58.76-1.23,1.49t-1.36,1.44q-.71.71-1.49,1.4t-1.61,1.35a53.3,53.3,0,0,1-10.92,6.71,56.17,56.17,0,0,1-6.29,2.44,61.63,61.63,0,0,1-6.88,1.77l-.12,0-.13,0-.15.05-.17.05.32,2.11.33,2.13.33,2.16.34,2.22,1.13-.3L492,420l1-.28,1-.29q1.57-.46,3.07-1t3-1.15q1.46-.6,2.88-1.25t2.82-1.32"/><path class="cls-3" d="M618.89,512.29l-8.58,12-8.63,12L593,548.38l-8.74,12.17Q575,554.8,566,549.08t-17.6-11.37q-8.67-5.66-17.16-11.29t-16.88-11.21L495.71,502.8l-18.54-12.33-18.41-12.25-18.29-12.16-16.19-10.77-16.09-10.7-16-10.64-15.9-10.57-.24-.15-.26-.14-.26-.13-.26-.13,43.19-54.15,42-52.65,40.85-51.21L541,215l24,3.49,23.8,3.43,23.65,3.4,23.61,3.39,22,3.15,22,3.16,22.09,3.17,22.14,3.17,19.78,2.84L764,247l19.86,2.85,19.9,2.85q-3.44,5.55-7.06,11t-7.35,10.84q-3.74,5.4-7.56,10.76t-7.69,10.75l-37.19,51.8-38.23,53.26-39.32,54.79ZM550.55,405a3.05,3.05,0,0,0,.33-.52,1.4,1.4,0,0,0,.14-.45,1.15,1.15,0,0,0,0-.42,2,2,0,0,0-.17-.44,40.68,40.68,0,0,1-1.67-3.73q-.73-1.88-1.26-3.79t-.87-3.85q-.34-1.94-.51-3.9a51.12,51.12,0,0,1,0-8.87,55.63,55.63,0,0,1,1.5-8.69,65.61,65.61,0,0,1,2.81-8.52,81.79,81.79,0,0,1,4-8.37q.79-1.45,1.65-2.87t1.78-2.83q.92-1.4,1.91-2.79t2-2.75l.14-.18.14-.18.14-.18.14-.18.08-.11.07-.13.08-.15.1-.18h-3.2q-1.57-.1-3.07-.28t-2.92-.44q-1.42-.26-2.77-.61t-2.63-.78a38.62,38.62,0,0,1-3.75-1.57,30.45,30.45,0,0,1-3.26-1.82,26.54,26.54,0,0,1-2.84-2.11,26.1,26.1,0,0,1-2.47-2.41,23.33,23.33,0,0,1-1.8-2.28,23.09,23.09,0,0,1-1.45-2.38,24.39,24.39,0,0,1-1.13-2.46c-.33-.83-.61-1.68-.86-2.53l-.08-.26-.08-.27-.08-.27-.09-.29-.43,0-.41,0-.4,0-.4,0q-2.17.12-4.29.38t-4.21.64q-2.09.38-4.14.88t-4.07,1.1q-3.13.93-6.09,2.06t-5.78,2.41q-2.82,1.28-5.5,2.72t-5.26,3q-3.7,2.25-7.08,4.68t-6.47,5q-3.1,2.61-5.92,5.38t-5.41,5.69l-.94,1.08-.92,1.09-.9,1.09-.88,1.1L460,359.94l-1.08,1.44-1,1.46q-.51.73-1,1.47-.69,1-1.36,2.07t-1.3,2.09q-.64,1-1.24,2.1t-1.18,2.12q-1.24,2.31-2.31,4.65t-2,4.71q-.89,2.37-1.6,4.78t-1.22,4.85c-.4,1.88-.71,3.76-.92,5.63a49.49,49.49,0,0,0-.32,5.62,43.51,43.51,0,0,0,.37,5.61,40.71,40.71,0,0,0,1.14,5.59,36,36,0,0,0,1.33,3.91,32.38,32.38,0,0,0,1.82,3.77,31.28,31.28,0,0,0,2.38,3.6,32.6,32.6,0,0,0,3,3.4l.09.09.09.09.09.09.09.09.09.09.09.09.1.09.1.09q1.17,1.09,2.47,2.07t2.73,1.87q1.43.88,3,1.65t3.27,1.41l.12,0,.12,0,.12,0,.12,0,.18.06.16.06.14,0,.13,0,.2.07.2.07.2.07.2.06a44.35,44.35,0,0,0,4.79,1.25,48.06,48.06,0,0,0,4.94.74q2.5.24,5.07.25t5.19-.21q2.89-.24,5.68-.7t5.51-1.12q2.71-.66,5.34-1.5t5.2-1.83q3.51-1.35,6.79-2.91t6.35-3.3q3.07-1.74,6-3.64t5.6-3.94q2.35-1.76,4.56-3.6t4.27-3.75q2.06-1.91,4-3.89t3.71-4m91.35,1.07a103.22,103.22,0,0,0,9.13-5.66,94.42,94.42,0,0,0,8-6.21,88,88,0,0,0,6.89-6.67,83.37,83.37,0,0,0,5.84-7q1.87-2.59,3.45-5.14t2.89-5.1q1.31-2.55,2.34-5.11t1.8-5.17a53.58,53.58,0,0,0,1.34-5.59,45.18,45.18,0,0,0,.67-5.59,40.1,40.1,0,0,0-.07-5.58,38,38,0,0,0-.89-5.58,35,35,0,0,0-1.32-4.32,32.44,32.44,0,0,0-4.48-8.12,35.34,35.34,0,0,0-3.29-3.76l-.12-.12-.12-.12-.12-.12-.12-.12a37,37,0,0,0-2.84-2.46,37.59,37.59,0,0,0-3.14-2.2,39.42,39.42,0,0,0-3.46-1.93q-1.81-.9-3.78-1.65l-.35-.13-.35-.13-.36-.13-.36-.12-.72-.24-.69-.22-.68-.2-.67-.19-.13,0-.13,0-.13,0-.14,0a56.77,56.77,0,0,0-7.23-1.42,60.61,60.61,0,0,0-7.3-.5,68,68,0,0,0-7.35.34q-3.69.37-7.4,1.1l-.31.09-.3.14-.27.17-.22.18-1.14,1.13-1.12,1.14L622,314.73c-.38.38-.77.75-1.16,1.12q-2.21,2.08-4.59,4t-5,3.82q-2.58,1.85-5.35,3.57t-5.74,3.32q-2.68,1.43-5.47,2.72t-5.72,2.4q-2.93,1.11-6,2t-6.33,1.6a6.36,6.36,0,0,0-.84.24,4.42,4.42,0,0,0-.69.32,3.72,3.72,0,0,0-.57.4,4,4,0,0,0-.48.49l-.95,1.14-.93,1.14-.91,1.15-.89,1.16-1,1.32-1,1.33q-.47.67-.92,1.35t-.88,1.36q-1,1.62-1.94,3.27t-1.74,3.32q-.82,1.67-1.53,3.37t-1.31,3.42q-.9,2.61-1.54,5.23a47.67,47.67,0,0,0-1,5.26,42.22,42.22,0,0,0-.33,5.3,39.47,39.47,0,0,0,.37,5.34,37,37,0,0,0,1,4.93,33.37,33.37,0,0,0,1.73,4.76,32.75,32.75,0,0,0,2.53,4.58,35.22,35.22,0,0,0,3.42,4.36l.53.57.54.55.55.54.57.53a36.32,36.32,0,0,0,2.87,2.38,37.44,37.44,0,0,0,3.14,2.11q1.64,1,3.43,1.83t3.71,1.55c.82.29,1.63.56,2.44.8s1.61.47,2.42.67,1.62.39,2.44.55,1.65.32,2.49.45l.38.06.3,0,.25,0,.23,0q3,.42,6.05.54t6,0q3-.15,6-.55t6-1q3.49-.73,6.79-1.7t6.45-2.17q3.14-1.19,6.13-2.59t5.84-3M549.1,284.74l-.12.14-.12.15-.12.15-.12.15c-.58.75-1.17,1.57-1.74,2.44s-1.14,1.79-1.69,2.76-1.07,2-1.57,3-1,2.08-1.39,3.14a40.5,40.5,0,0,0-1.38,4,33.17,33.17,0,0,0-.89,4,28.58,28.58,0,0,0-.34,4.06,26.4,26.4,0,0,0,.27,4.1,22.69,22.69,0,0,0,.47,2.37,20.22,20.22,0,0,0,.74,2.32,19.13,19.13,0,0,0,1.05,2.26,19.36,19.36,0,0,0,1.4,2.19,20.62,20.62,0,0,0,2.12,2.45,21.1,21.1,0,0,0,2.52,2.11,23.12,23.12,0,0,0,2.92,1.77,26.86,26.86,0,0,0,3.32,1.42c.49.17,1,.33,1.46.47s1,.28,1.45.4,1,.23,1.46.33,1,.19,1.5.28l.19,0,.19,0,.19,0,.19,0a38.13,38.13,0,0,0,3.85.37c1.28.06,2.57.05,3.85,0s2.56-.17,3.84-.33,2.55-.37,3.82-.61q2.23-.43,4.37-1t4.19-1.26q2.05-.69,4-1.5t3.88-1.72a85,85,0,0,0,7.93-4.29,78.77,78.77,0,0,0,7-4.84,76.49,76.49,0,0,0,6.18-5.33,78,78,0,0,0,5.42-5.76l.56-.67.55-.67.54-.68.53-.68q.93-1.22,1.78-2.46t1.61-2.51q.77-1.26,1.45-2.55t1.28-2.6q.84-1.84,1.51-3.69a36.92,36.92,0,0,0,1.11-3.72,31.43,31.43,0,0,0,.67-3.75,28.17,28.17,0,0,0,.19-3.79,26.13,26.13,0,0,0-.23-3.07,21.83,21.83,0,0,0-.62-3,19.8,19.8,0,0,0-2.7-5.77l-.07-.1-.07-.1-.07-.1-.07-.1,0,0,0,0,0,0,0,0a20.11,20.11,0,0,0-2.06-2.4,20.62,20.62,0,0,0-2.45-2.08,22.68,22.68,0,0,0-2.85-1.75,26.47,26.47,0,0,0-3.26-1.41l-.12,0-.12,0-.12,0-.12,0-1.27-.4-1.27-.34-1.28-.3-1.3-.25-.38-.06-.33-.05-.3,0-.28,0a39.57,39.57,0,0,0-4.18-.37c-1.39,0-2.77,0-4.15.06s-2.76.23-4.13.43-2.74.45-4.1.76q-2.95.65-5.72,1.51t-5.39,1.92q-2.62,1.05-5.1,2.27t-4.84,2.58c-2.31,1.33-4.5,2.72-6.58,4.2a74.75,74.75,0,0,0-6,4.69,75.58,75.58,0,0,0-5.44,5.26c-1.74,1.86-3.42,3.83-5,5.92"/><path class="cls-1" d="M627.75,292.23q-.6,1.31-1.28,2.6T625,297.38q-.77,1.27-1.61,2.51t-1.78,2.46l-.53.68-.54.68-.55.67-.56.67a78,78,0,0,1-5.42,5.76,76.48,76.48,0,0,1-6.18,5.33,78.76,78.76,0,0,1-7,4.84,85,85,0,0,1-7.93,4.29q-1.9.91-3.88,1.72t-4,1.5q-2.05.69-4.19,1.26t-4.37,1c-1.27.25-2.55.45-3.82.61s-2.56.27-3.84.33-2.57.06-3.85,0a38.12,38.12,0,0,1-3.85-.37l-.19,0-.19,0-.19,0-.19,0-1.49-.28q-.73-.15-1.44-.33t-1.38-.37q-.68-.2-1.33-.42a28.74,28.74,0,0,1-3.45-1.47,23.58,23.58,0,0,1-3-1.8,20.93,20.93,0,0,1-2.54-2.12,20.42,20.42,0,0,1-2.13-2.45,19.36,19.36,0,0,1-1.4-2.19,19.12,19.12,0,0,1-1.05-2.26,20.21,20.21,0,0,1-.74-2.32,22.68,22.68,0,0,1-.47-2.37,26.39,26.39,0,0,1-.27-4.1,28.58,28.58,0,0,1,.34-4.06,33.16,33.16,0,0,1,.89-4,40.48,40.48,0,0,1,1.38-4c.43-1.06.89-2.11,1.39-3.14s1-2,1.57-3,1.11-1.89,1.69-2.76,1.16-1.69,1.74-2.44l.12-.15.12-.15.12-.15.12-.14c1.63-2.09,3.3-4.06,5-5.92a75.59,75.59,0,0,1,5.44-5.26,74.76,74.76,0,0,1,6-4.69c2.08-1.48,4.27-2.87,6.58-4.2q2.36-1.36,4.84-2.58t5.1-2.27q2.62-1.05,5.39-1.92t5.72-1.51c1.36-.3,2.73-.56,4.1-.76s2.75-.35,4.13-.43,2.76-.1,4.15-.06a39.58,39.58,0,0,1,4.18.37l.28,0,.28,0,.28,0,.28,0,1.41.27,1.31.3,1.23.33L616,257l.23.08.17.06.14,0,.12,0a26.48,26.48,0,0,1,3.26,1.41,22.69,22.69,0,0,1,2.85,1.75,20.62,20.62,0,0,1,2.45,2.08,20.1,20.1,0,0,1,2.06,2.4l0,0,0,0,0,0,0,0,.07.1.07.1.07.1.07.1a19.8,19.8,0,0,1,2.7,5.77,21.82,21.82,0,0,1,.62,3,26.12,26.12,0,0,1,.23,3.07,28.17,28.17,0,0,1-.19,3.79,31.44,31.44,0,0,1-.67,3.75,36.93,36.93,0,0,1-1.11,3.72Q628.6,290.39,627.75,292.23Zm-61.66,22.29.82.25.81.26c.27.09.55.17.83.23a8.26,8.26,0,0,0,.87.17l8.88-11.56,8.82-11.48L595.9,281l8.73-11.35-1.25-.27-1.22-.26-1.2-.27-1.18-.29a4.48,4.48,0,0,0-.64-.12,3.6,3.6,0,0,0-.6,0,3.8,3.8,0,0,0-.6.08,5.24,5.24,0,0,0-.62.18l-4,1.41-4,1.4-4,1.4-4,1.4-.29.1-.29.11-.3.11-.31.12-.23,1.33-.23,1.34-.23,1.36-.24,1.4.86-.31.81-.29.78-.28.76-.27.76-.27.76-.27.76-.27.76-.27.79-.29.79-.29.79-.28.79-.27.74-.27.75-.28c.26-.09.53-.18.82-.27a9.12,9.12,0,0,1,.93-.21l-7.24,9.39-7.25,9.41L570,304l-7.33,9.5.92.27.86.26.83.24.81.23"/><path class="cls-3" d="M659.36,349.53c0,.06,0,.11,0,.16v.15s0,.09,0,.14,0,.09,0,.13c-.08,1.18-.19,2.36-.34,3.54s-.34,2.35-.58,3.52-.54,2.34-.9,3.5a33.57,33.57,0,0,1-1.28,3.47q-.46,1.05-1,2.08t-1.08,2q-.57,1-1.21,2t-1.36,2q-.52.71-1.09,1.4T649.41,375q-.61.68-1.27,1.34t-1.36,1.31c-.69.63-1.4,1.24-2.15,1.81a27.14,27.14,0,0,1-2.38,1.63,25.39,25.39,0,0,1-2.65,1.41,25.79,25.79,0,0,1-3,1.14,24,24,0,0,1-3.4.82,21.37,21.37,0,0,1-3.35.28,20.41,20.41,0,0,1-3.31-.26,21,21,0,0,1-3.25-.79l-.1,0-.1,0-.1,0-.1,0-.13,0-.11,0-.09,0-.08,0-.14-.05-.14-.05-.14-.06-.14-.06q-.53-.21-1-.47t-.92-.53q-.44-.28-.85-.59c-.27-.2-.54-.41-.79-.63q-.78-.66-1.49-1.35t-1.34-1.41q-.63-.72-1.18-1.48t-1-1.54q-.51-.86-1-1.72t-1-1.73q-.47-.87-.92-1.74l-.89-1.75-2-3.92-1.94-3.91-1.92-3.9-1.92-3.9-.06-.1-.06-.1-.07-.1-.07-.1h-.29l-3.62,6.58L594,365.41l-3.66,6.65-3.68,6.7-1.81-.31-1.78-.31-1.79-.31-1.82-.31,5.23-9.46,5.2-9.39,5.17-9.34,5.15-9.31,1.83.23,1.82.23,1.82.23,1.83.23.26.52.25.51.25.5.24.5,2.12,4.53,2.13,4.54,2.13,4.56,2.14,4.57c.31.68.64,1.35,1,2s.71,1.33,1.09,2,.8,1.3,1.25,1.94.93,1.26,1.45,1.88l.61.69.64.67.67.66.69.65a8,8,0,0,0,.7.59,9.07,9.07,0,0,0,.79.52q.42.25.87.46t.95.4l.07,0,.07,0,.07,0,.07,0,.19.06.19.06.19.06.19.06a13,13,0,0,0,1.53.34,12.34,12.34,0,0,0,3.11.11,13,13,0,0,0,1.58-.25l.26-.06.26-.06.26-.07.26-.07a17.61,17.61,0,0,0,2-.72,17.11,17.11,0,0,0,1.76-.9,18,18,0,0,0,1.59-1c.5-.37,1-.76,1.44-1.17q.41-.36.79-.74t.73-.76q.35-.38.67-.77t.61-.79c.35-.48.67-1,1-1.45s.57-1,.83-1.49.5-1,.72-1.52.44-1,.64-1.55a22.83,22.83,0,0,0,.85-2.69,27.34,27.34,0,0,0,.53-2.71c.13-.91.22-1.82.29-2.73s.1-1.82.12-2.73v-1l0,0,0,0,0-.05.05-.07,2.12.15,2.15.15,2.17.15Z"/><path class="cls-1" d="M774.4,339.36a313.63,313.63,0,0,1,34.85,14.22,228.52,228.52,0,0,1,28.24,16.09A159.39,159.39,0,0,1,859.16,387a106.25,106.25,0,0,1,15.13,18,106.29,106.29,0,0,0-15.13-18,159.44,159.44,0,0,0-21.67-17.35,228.56,228.56,0,0,0-28.24-16.09A313.63,313.63,0,0,0,774.4,339.36Z"/><path class="cls-1" d="M798.49,421.07a2.68,2.68,0,0,1,.81.44,1.85,1.85,0,0,1,.5.6,1.31,1.31,0,0,1-.1,1.37l-6.13,8.92a2,2,0,0,1-.62.56,3,3,0,0,1-.85.34,3.6,3.6,0,0,1-1,.09,3.46,3.46,0,0,1-1-.19l-59.39-20.84a2.6,2.6,0,0,1-.79-.44,1.79,1.79,0,0,1-.48-.6,1.32,1.32,0,0,1-.13-.68,1.37,1.37,0,0,1,.26-.68l6.24-8.81a2,2,0,0,1,.62-.55,3,3,0,0,1,.85-.33,3.61,3.61,0,0,1,1-.09,3.38,3.38,0,0,1,1,.18Z"/><path class="cls-1" d="M778.24,437.38,774,443.5,769.67,442l-7.22,10.43,12.27,7.41,5.69,26.77a5.79,5.79,0,0,1,.11,1,5,5,0,0,1-.06.94,4.49,4.49,0,0,1-.24.89,4.21,4.21,0,0,1-.42.82,4.59,4.59,0,0,1-1.68,1.5,7.41,7.41,0,0,1-2.74.78,14.62,14.62,0,0,1-3.86-.17,28.8,28.8,0,0,1-5-1.35l-9.69-3.47-3.88,5.65-66.44-23.82,4-5.58L682.6,461a25.84,25.84,0,0,1-4.87-2.26,10.42,10.42,0,0,1-2.79-2.37,4.18,4.18,0,0,1-1-2.31,3.21,3.21,0,0,1,.63-2.07,4.49,4.49,0,0,1,.52-.61,5.7,5.7,0,0,1,.66-.55,7.24,7.24,0,0,1,.79-.49,9,9,0,0,1,.91-.43L710.42,437,726,439.48l7.29-10.36-4.32-1.52,4.28-6.06Z"/><path class="cls-1" d="M881.68,419.41q.46,1.23.83,2.45t.69,2.43q.31,1.21.56,2.42t.46,2.41q-.21-1.2-.46-2.41t-.56-2.42q-.31-1.21-.69-2.43T881.68,419.41Z"/><path class="cls-1" d="M774,339.24A288.36,288.36,0,0,1,826.83,363c14.8,8.72,26.72,18.05,35.83,27.58s15.48,19.34,19,28.84,4.28,18.83,2.25,27.38l-.08.34-.09.34-.09.34-.09.34,0,.14,0,.13,0,.13,0,.13c-1.36,0-2.59,0-3.75.09a23.18,23.18,0,0,0-3.39.47,22.18,22.18,0,0,0-3.47,1.08,36.55,36.55,0,0,0-4,1.9,36.79,36.79,0,0,1,4.22-.65,28.73,28.73,0,0,1,3.73-.11,27.14,27.14,0,0,1,3.4.34,32.86,32.86,0,0,1,3.23.71q-.46,1-.93,1.87t-1,1.79q-.49.87-1,1.7t-1,1.61a38,38,0,0,1-4.89,6,31.34,31.34,0,0,1-5.78,4.54,34.45,34.45,0,0,1-6.88,3.18,48.83,48.83,0,0,1-8.18,2,71,71,0,0,1-5.42,7c-2.3,2.65-5.06,5.55-8.17,8.49a125.29,125.29,0,0,1-10.28,8.75,97.21,97.21,0,0,1-11.75,7.72l-9.38,3.61,6.58-6.18a114.15,114.15,0,0,0,10-7.75c3.11-2.69,6-5.46,8.64-8.17s5-5.38,7.11-7.87,3.92-4.82,5.43-6.85a75.42,75.42,0,0,1-13.07-9.79A33.63,33.63,0,0,1,826,453.87a25.21,25.21,0,0,1-2.23-11.23,40.29,40.29,0,0,1,2.72-12.83l.51.07.5.08.49.08.48.09.94.2.92.23.91.26.9.29c.67.24,1.31.49,1.95.75s1.26.54,1.89.84,1.26.61,1.91.95,1.32.69,2,1.08l.29.16.3.16.3.17.31.17a29.11,29.11,0,0,0-2.93-2.74,27.47,27.47,0,0,0-3.05-2.15,31.1,31.1,0,0,0-3.22-1.7c-1.1-.51-2.24-1-3.42-1.38l-.46-.16-.33-.11-.24-.08-.2-.07c.07-.6.13-1.48.16-2.54s.06-2.27.06-3.52,0-2.53-.06-3.72-.1-2.28-.19-3.14l.19,0,.19,0,.19,0,.19,0q1.73.25,3.35.54t3.15.64q1.53.35,3,.75t2.85.88l1.18.42.93.35.77.3.69.29,1,.44.85.39.76.36.71.36.17.09.17.09.17.09.17.09c-1.1-1-2.17-1.81-3.21-2.57s-2.07-1.45-3.08-2.06-2-1.14-3-1.62-2-.89-3-1.26l-.15-.05-.15-.05-.15-.05-.15-.05c-.69-.23-1.37-.45-2-.64s-1.34-.37-2-.54-1.34-.32-2-.46l-2.07-.41-.16,0-.16,0-.16,0-.16,0a44.69,44.69,0,0,0-4.34-11.6,92,92,0,0,0-7.63-12,148.4,148.4,0,0,0-9.52-11.53c-3.33-3.66-6.75-7.11-10-10.19a26.71,26.71,0,0,1,2.85-.41,20.85,20.85,0,0,1,3,0,24.69,24.69,0,0,1,3.3.42,38.92,38.92,0,0,1,3.91,1l-1.26-.66-1.2-.57-1.15-.49-1.11-.42a26.9,26.9,0,0,0-2.65-.73c-.86-.19-1.71-.33-2.59-.43s-1.77-.17-2.72-.22-2-.06-3-.07q-2.74-2.37-6.15-5.26l-7.44-6.33q-4-3.44-8.64-7.45T760,334.74l3.59,1.09,3.54,1.11,3.48,1.13Z"/><path class="cls-4" d="M774.09,296.06l190.79,64.36L817.68,585l-198.8-72.68,40.46-56.38,39.32-54.79,38.23-53.26ZM853.8,475.18a48.83,48.83,0,0,0,8.18-2,34.45,34.45,0,0,0,6.88-3.18,31.34,31.34,0,0,0,5.78-4.54,38,38,0,0,0,4.89-6q.52-.78,1-1.61t1-1.7q.49-.87,1-1.79t.93-1.87a32.86,32.86,0,0,0-3.23-.71,27.14,27.14,0,0,0-3.4-.34,28.73,28.73,0,0,0-3.73.11,36.78,36.78,0,0,0-4.22.65,36.55,36.55,0,0,1,4-1.9,22.18,22.18,0,0,1,3.47-1.08,23.18,23.18,0,0,1,3.39-.47c1.17-.08,2.39-.1,3.75-.09l0-.13,0-.13,0-.13,0-.14.09-.34.09-.34.09-.34.08-.34c2-8.55,1.3-17.83-2.24-27.38s-9.83-19.26-19-28.82-21-18.84-35.73-27.54a286.39,286.39,0,0,0-52.59-23.69l-3.64-1.22L767.17,337l-3.57-1.13-3.6-1.09q5.14,4.6,9.74,8.61t8.64,7.45l7.44,6.33q3.41,2.9,6.15,5.26c1.09,0,2.09,0,3,.07s1.83.1,2.67.2,1.66.22,2.45.39a22.48,22.48,0,0,1,2.38.64c.48.17.94.34,1.38.51s.87.35,1.28.54.83.38,1.25.59l1.27.66a38.92,38.92,0,0,0-3.9-1,24.69,24.69,0,0,0-3.3-.42,20.85,20.85,0,0,0-3,0,26.69,26.69,0,0,0-2.85.41c3.29,3.08,6.71,6.53,10,10.19a148.41,148.41,0,0,1,9.52,11.53,92,92,0,0,1,7.63,12,44.69,44.69,0,0,1,4.34,11.6l.16,0,.16,0,.16,0,.16,0,2.07.41q1,.21,2,.45t1.94.51q1,.27,1.89.59l.3.1.23.08.18.06.15.06c1,.37,2,.79,3,1.26s2,1,3,1.62,2,1.29,3.08,2.06,2.11,1.62,3.21,2.57l-.17-.09-.17-.09-.17-.09-.17-.09-.7-.35-.7-.34-.7-.33-.71-.32-1-.41-.83-.34-.74-.29-.7-.26c-1.14-.39-2.25-.74-3.34-1s-2.16-.59-3.24-.84-2.15-.47-3.25-.67-2.21-.38-3.36-.54l-.19,0-.19,0-.19,0-.19,0c.09.87.15,2,.19,3.14s.06,2.47.06,3.72,0,2.47-.06,3.52-.09,1.94-.16,2.54l.19.06.19.06.19.06.19.07c1.29.46,2.52.95,3.69,1.47a33.21,33.21,0,0,1,3.33,1.72,26.56,26.56,0,0,1,3,2.08,25.83,25.83,0,0,1,2.77,2.57.21.21,0,0,1-.14,0l-.22-.08-.27-.13-.29-.16-2-1.08c-.64-.33-1.26-.64-1.86-.93s-1.19-.55-1.76-.8-1.14-.47-1.7-.67l-1.15-.38-1-.3-1-.24-.95-.2L828,430l-.49-.08-.5-.08-.51-.07a40.29,40.29,0,0,0-2.72,12.83A25.22,25.22,0,0,0,826,453.87a33.63,33.63,0,0,0,7.49,10.21,75.42,75.42,0,0,0,13.07,9.79c-1.51,2-3.33,4.36-5.43,6.85s-4.48,5.16-7.11,7.87-5.52,5.48-8.64,8.17a114.14,114.14,0,0,1-10,7.75l-6.58,6.18,9.38-3.61a97.2,97.2,0,0,0,11.75-7.72,125.28,125.28,0,0,0,10.28-8.75c3.11-2.94,5.87-5.84,8.17-8.49a71,71,0,0,0,5.42-7M766.46,491a28.8,28.8,0,0,0,5,1.35,14.62,14.62,0,0,0,3.86.17,7.41,7.41,0,0,0,2.74-.78,4.59,4.59,0,0,0,1.68-1.5,4.21,4.21,0,0,0,.42-.82,4.49,4.49,0,0,0,.24-.89,5,5,0,0,0,.06-.94,5.79,5.79,0,0,0-.11-1l-5.69-26.77-12.27-7.41L769.67,442,774,443.5l4.23-6.12-45-15.84-4.28,6.06,4.32,1.52L726,439.48,710.42,437,677.5,449.86a9,9,0,0,0-.91.43,7.24,7.24,0,0,0-.79.49,5.7,5.7,0,0,0-.66.55,4.49,4.49,0,0,0-.52.61A3.21,3.21,0,0,0,674,454a4.18,4.18,0,0,0,1,2.31,10.42,10.42,0,0,0,2.79,2.37A25.84,25.84,0,0,0,682.6,461l7.8,2.79-4,5.58,66.44,23.82,3.88-5.65,9.69,3.47m-36.88-81a1.37,1.37,0,0,0-.26.68,1.32,1.32,0,0,0,.13.68,1.79,1.79,0,0,0,.48.6,2.6,2.6,0,0,0,.79.44l59.39,20.84a3.46,3.46,0,0,0,1,.19,3.6,3.6,0,0,0,1-.09,3,3,0,0,0,.85-.34,2,2,0,0,0,.62-.56l6.13-8.92a1.31,1.31,0,0,0,.1-1.37,1.85,1.85,0,0,0-.5-.6,2.68,2.68,0,0,0-.81-.44l-59.26-20.7a3.38,3.38,0,0,0-1-.18,3.61,3.61,0,0,0-1,.09,3,3,0,0,0-.85.33,2,2,0,0,0-.62.55L729.58,410"/><path class="cls-1" d="M532.56,106.44l577,188L841.64,720.93,219.93,485.51ZM817.68,585,964.88,360.42,774.09,296.06l7.7-10.74,7.66-10.67L797.07,264l7.57-10.55q-10.29-1.71-20.42-3.3t-20.12-3.08q-10-1.49-19.91-2.93l-19.79-2.85-22.14-3.17L680.17,235l-22-3.16-22-3.15-23.59-3.39L589,221.93l-23.47-3.37-23.41-3.36q-20.1,24.61-40.38,49.71-20.47,25.33-41.18,51.15-20.91,26.06-42.12,52.63Q397,395.5,375.26,422.83l16.5,10.89,16.3,10.8,16.2,10.76L440.46,466l18.29,12.16,18.41,12.25,18.54,12.33,18.67,12.42,16.85,11.21,17,11.28L565.25,549l17.17,11.42q5.07-6.07,9.8-12.13t9.23-12.08q4.49-6,8.83-12t8.61-12L817.68,585"/><path class="cls-1" d="M682.22,360q-.77,2.61-1.8,5.17t-2.34,5.11q-1.31,2.55-2.89,5.1t-3.45,5.14a83.36,83.36,0,0,1-5.84,7,87.94,87.94,0,0,1-6.89,6.67,94.41,94.41,0,0,1-8,6.21,103.21,103.21,0,0,1-9.13,5.66q-2.85,1.57-5.84,3t-6.13,2.59q-3.14,1.19-6.45,2.17t-6.79,1.7q-3,.62-6,1t-6,.55q-3,.15-6,0t-6.05-.54l-.22,0-.22,0-.22,0-.22,0q-1.37-.22-2.64-.47t-2.47-.55q-1.2-.3-2.33-.64t-2.22-.72q-2.08-.76-3.94-1.63t-3.54-1.87a37,37,0,0,1-3.19-2.12,35.8,35.8,0,0,1-2.87-2.38l-.57-.53-.55-.54-.54-.55-.53-.57a35.23,35.23,0,0,1-3.42-4.36,32.75,32.75,0,0,1-2.53-4.58,33.37,33.37,0,0,1-1.73-4.76,37,37,0,0,1-1-4.93,39.46,39.46,0,0,1-.37-5.34,42.22,42.22,0,0,1,.33-5.3,47.67,47.67,0,0,1,1-5.27q.63-2.62,1.54-5.23.6-1.72,1.31-3.42t1.53-3.37q.82-1.67,1.74-3.32t1.94-3.27q.43-.68.88-1.36t.92-1.35l1-1.33,1-1.32.89-1.16.91-1.15.93-1.14.95-1.14a4,4,0,0,1,.48-.49,3.72,3.72,0,0,1,.57-.4,4.42,4.42,0,0,1,.69-.32,6.35,6.35,0,0,1,.84-.24q3.25-.68,6.33-1.6t6-2q2.93-1.11,5.72-2.4t5.47-2.72q3-1.59,5.75-3.32t5.35-3.57q2.57-1.85,5-3.82t4.59-4c.39-.37.78-.74,1.16-1.12l1.13-1.13,1.12-1.14,1.14-1.13.22-.18.27-.17.3-.14.31-.09q3.71-.73,7.4-1.1a68,68,0,0,1,7.35-.34,60.61,60.61,0,0,1,7.3.5,56.77,56.77,0,0,1,7.23,1.42l.14,0,.13,0,.13,0,.13,0,.67.19.66.2.65.21.65.21.44.15.4.14.37.13.35.13q2,.75,3.78,1.65a39.43,39.43,0,0,1,3.46,1.93,37.59,37.59,0,0,1,3.14,2.2A37,37,0,0,1,673.7,321l.12.12.12.12.12.12.12.12a35.34,35.34,0,0,1,3.29,3.76,32.44,32.44,0,0,1,4.48,8.12,35,35,0,0,1,1.32,4.32,38,38,0,0,1,.89,5.58,40.1,40.1,0,0,1,.07,5.58,45.19,45.19,0,0,1-.67,5.59A53.61,53.61,0,0,1,682.22,360Zm-35.44,17.65q.71-.65,1.36-1.31t1.27-1.34q.61-.68,1.17-1.37t1.09-1.4q.72-1,1.36-2t1.21-2q.57-1,1.08-2t1-2.08a33.56,33.56,0,0,0,1.28-3.47c.36-1.16.65-2.33.9-3.5s.43-2.35.58-3.52.26-2.36.34-3.54c0,0,0-.09,0-.13s0-.09,0-.14v-.15c0-.05,0-.11,0-.16l-2.2-.16-2.17-.15-2.15-.15-2.12-.15-.05.07,0,0,0,0,0,0v.27q0,.13,0,.26t0,.26,0,.25c0,.91-.06,1.82-.12,2.73s-.15,1.82-.29,2.73a27.34,27.34,0,0,1-.53,2.71,22.83,22.83,0,0,1-.85,2.69c-.2.52-.41,1-.64,1.55s-.46,1-.72,1.52-.53,1-.83,1.49-.62,1-1,1.45q-.29.4-.61.79t-.67.77q-.35.38-.73.76t-.79.74c-.46.41-.94.8-1.44,1.17a18,18,0,0,1-1.59,1,17.11,17.11,0,0,1-1.76.9,17.61,17.61,0,0,1-2,.72l-.26.07-.26.07-.26.06-.26.06a13,13,0,0,1-1.58.25,12.34,12.34,0,0,1-3.11-.11,13,13,0,0,1-1.53-.34l-.19-.06-.19-.06-.19-.06-.19-.06-.07,0-.07,0-.07,0-.07,0q-.49-.18-.95-.4t-.87-.46a9.07,9.07,0,0,1-.79-.52,8,8,0,0,1-.7-.59l-.69-.65-.67-.66-.64-.67-.61-.69c-.52-.61-1-1.24-1.45-1.88s-.86-1.28-1.25-1.94-.75-1.32-1.09-2-.67-1.34-1-2l-2.14-4.57L612.79,352l-2.13-4.54L608.54,343l-.24-.5-.25-.5-.25-.51-.26-.52-1.83-.23-1.82-.23-1.82-.23-1.83-.23-5.15,9.31-5.17,9.34-5.2,9.39-5.23,9.46,1.82.31,1.79.31,1.78.31,1.81.31,3.68-6.7,3.66-6.65,3.64-6.61,3.62-6.58h.29l.07.1.07.1.06.1.06.1,1.92,3.9,1.92,3.9,1.94,3.91,2,3.92.89,1.75q.45.87.92,1.74t1,1.73q.49.87,1,1.72t1,1.54q.55.75,1.18,1.48t1.34,1.41q.71.69,1.49,1.35c.26.22.52.43.79.63s.56.4.85.59.6.37.92.53.65.32,1,.47l.14.06.14.06.14.05.14.05.08,0,.08,0,.08,0,.08,0,.15.05.13,0,.11,0,.11,0a21,21,0,0,0,3.25.79,20.41,20.41,0,0,0,3.31.26,21.37,21.37,0,0,0,3.35-.28,24,24,0,0,0,3.4-.82,25.79,25.79,0,0,0,3-1.14,25.39,25.39,0,0,0,2.65-1.41,27.15,27.15,0,0,0,2.38-1.63c.75-.58,1.47-1.18,2.15-1.81"/><polygon class="cls-3" points="841.64 720.93 684.56 970.94 38.56 705.43 219.93 485.51 841.64 720.93"/><path class="cls-4" d="M1120.27,291.95a2.65,2.65,0,0,1,.27.62,2.32,2.32,0,0,1,.09.64,2.22,2.22,0,0,1-.09.63,2.37,2.37,0,0,1-.27.6L692,979.16a4.53,4.53,0,0,1-.6.76,5.25,5.25,0,0,1-.77.65,5.91,5.91,0,0,1-.91.51,6.36,6.36,0,0,1-1,.36,6.61,6.61,0,0,1-1.09.2,7,7,0,0,1-2.2-.14,6.44,6.44,0,0,1-1-.33L28.28,710.79a4.56,4.56,0,0,1-.79-.42,3.87,3.87,0,0,1-.65-.54,3.29,3.29,0,0,1-.48-.64A2.88,2.88,0,0,1,26,707.7a3.18,3.18,0,0,1,.11-.78,3.68,3.68,0,0,1,.31-.77,4.33,4.33,0,0,1,.49-.73l500-604.15a3.4,3.4,0,0,1,.5-.49,4.42,4.42,0,0,1,.63-.42,5.39,5.39,0,0,1,.73-.33,6.1,6.1,0,0,1,.81-.24,6.83,6.83,0,0,1,.87-.13,7,7,0,0,1,.88,0,6.67,6.67,0,0,1,.86.09,5.82,5.82,0,0,1,.81.2l584.74,190.13a6.07,6.07,0,0,1,.83.34,5.28,5.28,0,0,1,.73.44,4.28,4.28,0,0,1,.6.52A3.29,3.29,0,0,1,1120.27,291.95Zm-278.64,429,267.94-426.46-577-188L219.93,485.51,38.56,705.43l646,265.5,157.08-250"/></g><polyline class="cls-5" points="30 710 67 910 678 1165 1080 512"/><polyline class="cls-5" points="143.36 852.2 674 1067 1106 383"/></svg>