<svg id="Calque_1" data-name="Calque 1" xmlns="http://www.w3.org/2000/svg" viewBox="0 0 700 200"><defs><style>.cls-1{fill:#fff;}</style></defs><title>references</title><path class="cls-1" d="M63.48,20.39H48.16c-.48-1.21-1-2.44-1-2.44A3.1,3.1,0,0,0,44.3,16H31.23a3.12,3.12,0,0,0-2.86,1.88l-3,7a3.26,3.26,0,0,0-.25,1.23V45.8a3.1,3.1,0,0,0,3.11,3.1H63.48a3.1,3.1,0,0,0,3.11-3.1V23.5A3.11,3.11,0,0,0,63.48,20.39ZM51.69,35.8H47.45V40a1.53,1.53,0,1,1-3.06,0V35.8H40.15a1.54,1.54,0,0,1,0-3.07h4.24V28.5a1.53,1.53,0,1,1,3.06,0v4.23h4.24a1.54,1.54,0,1,1,0,3.07Z"/><path class="cls-1" d="M95.28,44.29h-.19a6.48,6.48,0,0,1-5.56-3.23,1.46,1.46,0,0,1-.16-.62,1.24,1.24,0,0,1,1.26-1.21,1.27,1.27,0,0,1,1.1.55,5,5,0,0,0,3.42,2h.16c2,0,3.11-1.11,3.11-2.18,0-4.32-8.44-1-8.46-7.22,0-3.11,3.27-4.16,5.31-4.17h.13a7,7,0,0,1,4.26,1.39,1.13,1.13,0,0,1,.46.94A1.19,1.19,0,0,1,99,31.75a1.45,1.45,0,0,1-.71-.2,5.46,5.46,0,0,0-2.86-.86h-.13c-1.82,0-2.79.82-2.82,1.76-.06,3.53,8.44.66,8.46,7.12v.13c0,3-2.88,4.58-5.61,4.59"/><path class="cls-1" d="M122.53,29.74l-3.79,13.58a1.25,1.25,0,0,1-1.2.91h-.26a1.43,1.43,0,0,1-1.24-.94c-.79-2.79-2.88-10.57-3.07-11.06-.17.52-2.23,8.32-3,11.08a1.31,1.31,0,0,1-1.2.94h-.29a1.25,1.25,0,0,1-1.21-.91l-3.83-13.55a1.51,1.51,0,0,1-.06-.36,1.19,1.19,0,0,1,1.26-1.2,1.17,1.17,0,0,1,1.17.9L108.66,39l2.9-9.9a1.27,1.27,0,0,1,1.39-.88h0c1,0,1.26.38,1.39.87l3,9.92,2.8-9.9a1.14,1.14,0,0,1,1.14-.91,1.18,1.18,0,0,1,1.26,1.19.88.88,0,0,1,0,.36"/><path class="cls-1" d="M127.39,24.57a1.19,1.19,0,0,1-1.23-1.23v-.72a1.18,1.18,0,0,1,1.23-1.23,1.19,1.19,0,0,1,1.24,1.23v.71a1.2,1.2,0,0,1-1.24,1.24m0,19.63A1.18,1.18,0,0,1,126.21,43l0-13.56a1.24,1.24,0,1,1,2.47,0l0,13.57a1.18,1.18,0,0,1-1.23,1.23"/><path class="cls-1" d="M138.22,44.18H138a6.49,6.49,0,0,1-5.55-3.24,1.4,1.4,0,0,1-.17-.61,1.23,1.23,0,0,1,1.27-1.2,1.26,1.26,0,0,1,1.1.54,4.91,4.91,0,0,0,3.41,2h.16c2,0,3.12-1.11,3.11-2.18.06-4.32-8.44-1.05-8.45-7.22,0-3.11,3.26-4.16,5.31-4.17h.13a7,7,0,0,1,4.25,1.39,1.13,1.13,0,0,1,.46.94,1.18,1.18,0,0,1-1.17,1.17,1.72,1.72,0,0,1-.71-.19,5.36,5.36,0,0,0-2.86-.87h-.13c-1.81,0-2.79.82-2.82,1.76-.05,3.53,8.44.66,8.46,7.11v.14c0,3-2.88,4.58-5.6,4.59"/><path class="cls-1" d="M152.78,44.14h-.19A6.48,6.48,0,0,1,147,40.91a1.58,1.58,0,0,1-.16-.62,1.24,1.24,0,0,1,1.26-1.2,1.27,1.27,0,0,1,1.11.55,4.93,4.93,0,0,0,3.41,2h.16c2,0,3.11-1.11,3.11-2.18.06-4.32-8.44-1.05-8.45-7.21,0-3.12,3.26-4.17,5.31-4.17h.13a6.91,6.91,0,0,1,4.25,1.38,1.13,1.13,0,0,1,.46.94,1.18,1.18,0,0,1-1.16,1.17,1.58,1.58,0,0,1-.72-.19,5.54,5.54,0,0,0-2.86-.87h-.13c-1.82,0-2.79.82-2.82,1.76-.05,3.54,8.44.66,8.46,7.12v.13c0,3-2.88,4.58-5.61,4.59"/><path class="cls-1" d="M188.54,44.05a1.19,1.19,0,0,1-1.23-1.23l0-9.61a2.52,2.52,0,0,0-2.76-2.72h-.3a2.75,2.75,0,0,0-2.78,2.8l0,9.48a1.24,1.24,0,1,1-2.47,0l0-9.48a2.73,2.73,0,0,0-2.79-2.79h-.3A2.64,2.64,0,0,0,173.1,33l0,9.83a1.23,1.23,0,1,1-2.46,0l0-13.57a1.25,1.25,0,0,1,2.47-.26,4,4,0,0,1,2.78-1h.3a5.27,5.27,0,0,1,4,1.85,5.29,5.29,0,0,1,4-1.87h.29c2.76,0,5.23,1.61,5.24,5.18l0,9.61a1.19,1.19,0,0,1-1.23,1.24"/><path class="cls-1" d="M204.69,44a.49.49,0,0,1-.23,0,3,3,0,0,1-2.21-1.26,5.29,5.29,0,0,1-3.5,1.31h-.29c-2.63,0-5.23-1.64-5.24-4.66V39c.22-5.13,7.42-4.24,8.2-5.34a1,1,0,0,0,.1-.55,2.4,2.4,0,0,0-2.64-2.63h-.23A2.7,2.7,0,0,0,196,32.08a1.24,1.24,0,0,1-1.11.66,1.19,1.19,0,0,1-1.23-1.14,1.22,1.22,0,0,1,.13-.58,5,5,0,0,1,4.83-3h.22A5,5,0,0,1,204,33l0,7.53a1,1,0,0,0,.85,1.07,1.18,1.18,0,0,1,1,1.17,1.2,1.2,0,0,1-1.2,1.27m-3.17-7.79c-2.4.66-5.74.54-5.83,2.81v.26c0,1.4,1.11,2.27,2.76,2.26h.3a2.78,2.78,0,0,0,2.78-2.76Z"/><path class="cls-1" d="M218.13,44a1.13,1.13,0,0,1-1.2-1,3.9,3.9,0,0,1-2.79,1h-.29a5.22,5.22,0,0,1-5.27-5.21l0-5.58A5.23,5.23,0,0,1,213.81,28H214A3.75,3.75,0,0,1,216.86,29V22.39a1.23,1.23,0,1,1,2.46,0l.05,20.41A1.15,1.15,0,0,1,218.13,44m-1.26-11.06a2.6,2.6,0,0,0-2.76-2.5h-.3A2.75,2.75,0,0,0,211,33.18v5.58a2.77,2.77,0,0,0,2.77,2.76h.32a2.59,2.59,0,0,0,2.75-2.57Z"/><path class="cls-1" d="M233,37.13l-7.07,0V38.8a2.75,2.75,0,0,0,2.77,2.75h.32a2.72,2.72,0,0,0,2.53-1.66,1.13,1.13,0,0,1,1.07-.78,1.29,1.29,0,0,1,1.26,1.26,1.14,1.14,0,0,1-.12.55,5.11,5.11,0,0,1-4.73,3.1h-.33a5.23,5.23,0,0,1-5.24-5.21V33.23A5.22,5.22,0,0,1,228.69,28H229a5.16,5.16,0,0,1,5.23,5.24v2.66A1.26,1.26,0,0,1,233,37.13m-1.24-3.89a2.79,2.79,0,0,0-2.74-2.79h-.32A2.77,2.77,0,0,0,226,33.22v1.62h5.84Z"/><path class="cls-1" d="M281.27,23.84a1.73,1.73,0,0,0-1.72,1.83v2.59h1.52a1.17,1.17,0,0,1,1.24,1.23,1.19,1.19,0,0,1-1.23,1.23h-1.53l0,12.24a1.24,1.24,0,0,1-2.47,0l0-12.23h-.72a1.24,1.24,0,0,1,0-2.47h.71v-2.6a4.12,4.12,0,0,1,4.17-4.29,1.23,1.23,0,0,1,0,2.46"/><path class="cls-1" d="M291.73,44.17a4.27,4.27,0,0,1-4.27-4.28l0-9.18H286.3a1.23,1.23,0,0,1,0-2.46h1.13V22.6a1.24,1.24,0,1,1,2.47,0v5.65h1.75a1.24,1.24,0,1,1,0,2.47h-1.75l0,9.15a1.85,1.85,0,0,0,1.89,1.85A1.17,1.17,0,0,1,293,42.93a1.18,1.18,0,0,1-1.23,1.24"/><path class="cls-1" d="M314.9,29.63l-3.79,13.58a1.25,1.25,0,0,1-1.2.91h-.26a1.44,1.44,0,0,1-1.24-.94c-.78-2.79-2.88-10.57-3.08-11.06-.16.52-2.22,8.32-2.95,11.08a1.31,1.31,0,0,1-1.2.94h-.29a1.26,1.26,0,0,1-1.21-.9l-3.83-13.56a1.55,1.55,0,0,1-.07-.35,1.24,1.24,0,0,1,2.44-.3L301,38.88l2.9-9.9a1.27,1.27,0,0,1,1.39-.88h0c1,0,1.26.39,1.39.87l3,9.92,2.8-9.9a1.14,1.14,0,0,1,1.13-.91,1.19,1.19,0,0,1,1.27,1.2,1.42,1.42,0,0,1,0,.35"/><path class="cls-1" d="M329.06,44.07a.61.61,0,0,1-.23,0,3.09,3.09,0,0,1-2.21-1.26,5.42,5.42,0,0,1-3.5,1.31h-.29c-2.63,0-5.23-1.65-5.24-4.66V39c.21-5.13,7.42-4.24,8.2-5.35a1,1,0,0,0,.1-.55,2.39,2.39,0,0,0-2.64-2.62H323a2.73,2.73,0,0,0-2.63,1.63,1.21,1.21,0,0,1-1.1.65,1.17,1.17,0,0,1-1.1-1.71,5,5,0,0,1,4.82-3h.23a5,5,0,0,1,5.11,5l0,7.53a1,1,0,0,0,.85,1.07,1.16,1.16,0,0,1,1,1.16,1.19,1.19,0,0,1-1.2,1.27m-3.17-7.78c-2.4.65-5.74.53-5.83,2.81v.26c0,1.39,1.11,2.26,2.76,2.26h.29a2.79,2.79,0,0,0,2.79-2.77Z"/><path class="cls-1" d="M340.66,31.61a1.46,1.46,0,0,1-1-.45,2,2,0,0,0-1.49-.68c-1.92,0-2.17,1.11-2.17,2.18l0,10.09a1.23,1.23,0,0,1-1.24,1.31,1.21,1.21,0,0,1-1.23-1.3l0-13.5A1.23,1.23,0,0,1,334.78,28a1.17,1.17,0,0,1,1.07.65,3.37,3.37,0,0,1,2.33-.65,4,4,0,0,1,3.38,1.58,1.37,1.37,0,0,1,.3.84,1.17,1.17,0,0,1-1.2,1.17"/><path class="cls-1" d="M354.17,37.13h-7.08V38.8a2.75,2.75,0,0,0,2.76,2.75h.33a2.73,2.73,0,0,0,2.53-1.66,1.13,1.13,0,0,1,1.06-.78,1.29,1.29,0,0,1,1.27,1.26,1.19,1.19,0,0,1-.13.55,5.09,5.09,0,0,1-4.73,3.1h-.32a5.23,5.23,0,0,1-5.24-5.21V33.22A5.21,5.21,0,0,1,349.83,28h.32a5.16,5.16,0,0,1,5.24,5.24v2.66a1.26,1.26,0,0,1-1.23,1.24m-1.25-3.89a2.77,2.77,0,0,0-2.73-2.79h-.32a2.79,2.79,0,0,0-2.79,2.77v1.62h5.84Z"/><path class="cls-1" d="M252.58,44.23h-.19A6.46,6.46,0,0,1,246.83,41a1.4,1.4,0,0,1-.17-.61,1.24,1.24,0,0,1,1.26-1.21,1.28,1.28,0,0,1,1.11.55,4.86,4.86,0,0,0,3.41,2h.17c2,0,3.11-1.11,3.1-2.18.06-4.31-8.44-1-8.45-7.21,0-3.12,3.27-4.17,5.31-4.17h.13A6.83,6.83,0,0,1,257,29.59a1.12,1.12,0,0,1,.46.93,1.18,1.18,0,0,1-1.16,1.18,1.6,1.6,0,0,1-.72-.2,5.51,5.51,0,0,0-2.86-.87h-.13c-1.81,0-2.79.82-2.82,1.76-.05,3.54,8.45.66,8.46,7.12v.13c0,3-2.87,4.59-5.6,4.59"/><path class="cls-1" d="M267.05,44.23h-.32A5.21,5.21,0,0,1,261.49,39l0-5.58a5.23,5.23,0,0,1,5.21-5.24H267a5.22,5.22,0,0,1,5.24,5.21V39a5.22,5.22,0,0,1-5.21,5.24m2.73-10.81A2.74,2.74,0,0,0,267,30.67h-.33a2.76,2.76,0,0,0-2.75,2.76L264,39a2.75,2.75,0,0,0,2.79,2.75h.3A2.76,2.76,0,0,0,269.8,39Z"/><path class="cls-1" d="M510.07,54.14a13.39,13.39,0,0,1-8.44-3.06l2-2.51a9.86,9.86,0,0,0,6.53,2.65c3.28,0,4.83-1.37,4.83-3.69,0-2-1.41-3.06-5.65-4.89-4.79-2-6.8-3.51-6.8-7.34,0-3.65,3.15-6.12,7.48-6.12a11.78,11.78,0,0,1,7.67,2.56l-1.92,2.51a8.67,8.67,0,0,0-6-2.15c-2.51,0-4,1.24-4,3,0,2,1.24,2.83,5.3,4.65,4.51,2.06,7.16,3.38,7.16,7.67C518.28,52.09,514.22,54.14,510.07,54.14Z"/><path class="cls-1" d="M544.37,53.64h-3.15l-4.33-16.06c-.23-.82-.6-2.51-.73-3.38-.14.87-.5,2.56-.73,3.38l-4.34,16.06H528l-6.35-23.95h3.52L529,45.52c.18.82.5,2.51.68,3.37.19-.86.55-2.55.78-3.37l4.29-15.83h3.1l4.29,15.83c.23.82.59,2.51.77,3.37.19-.86.51-2.55.69-3.37l3.74-15.83h3.42Z"/><path class="cls-1" d="M556.12,53.64V29.69h3.43v24Z"/><path class="cls-1" d="M556.12,25.05V21.59l3.43-1v4.44Z"/><path class="cls-1" d="M641.75,71.9V63.2H643v8.7Z"/><path class="cls-1" d="M573.86,54.14a13.41,13.41,0,0,1-8.44-3.06l2-2.51A9.84,9.84,0,0,0,574,51.22c3.29,0,4.84-1.37,4.84-3.69,0-2-1.41-3.06-5.66-4.89-4.79-2-6.79-3.51-6.79-7.34,0-3.65,3.14-6.12,7.48-6.12a11.75,11.75,0,0,1,7.66,2.56l-1.91,2.51a8.67,8.67,0,0,0-6-2.15c-2.51,0-4,1.24-4,3,0,2,1.23,2.83,5.29,4.65,4.52,2.06,7.17,3.38,7.17,7.67C582.08,52.09,578,54.14,573.86,54.14Z"/><path class="cls-1" d="M594.34,54.14a13.39,13.39,0,0,1-8.44-3.06l2-2.51a9.86,9.86,0,0,0,6.53,2.65c3.28,0,4.83-1.37,4.83-3.69,0-2-1.41-3.06-5.65-4.89-4.79-2-6.8-3.51-6.8-7.34,0-3.65,3.15-6.12,7.48-6.12A11.78,11.78,0,0,1,602,31.74L600,34.25a8.67,8.67,0,0,0-6-2.15c-2.51,0-4,1.24-4,3,0,2,1.24,2.83,5.3,4.65,4.51,2.06,7.16,3.38,7.16,7.67C602.55,52.09,598.49,54.14,594.34,54.14Z"/><path class="cls-1" d="M623.26,53.64V50.72a9.6,9.6,0,0,1-7.21,3.42c-4.79,0-8.58-3.65-8.58-12.09s4-12.87,9-12.87a8.53,8.53,0,0,1,6.76,3.2V21.61l3.42-1v33Zm0-17.89a7.85,7.85,0,0,0-6.48-3.6c-4,0-5.93,3.42-5.93,9.86,0,6,2.28,9.16,6.07,9.16a8.13,8.13,0,0,0,6.34-3.46Z"/><path class="cls-1" d="M652.08,42.83h-16c.32,5.11,2.74,8.34,6.66,8.34a10.66,10.66,0,0,0,6.62-2.28L651,51.36c-2.87,1.82-5,2.78-8.57,2.78-4.38,0-9.72-3.19-9.72-12.59,0-7.62,4.2-12.37,9.9-12.37,6.25,0,9.63,4.93,9.63,11.78A10.57,10.57,0,0,1,652.08,42.83Zm-9.54-10.68c-3.55,0-6,2.56-6.43,7.89H649C648.75,35.39,646.74,32.15,642.54,32.15Z"/><path class="cls-1" d="M673.06,34.57a8,8,0,0,0-5.75-2.42c-3.74,0-6.62,3.38-6.62,9.35s2.51,9.67,6.76,9.67A7.43,7.43,0,0,0,673,48.62l2,2.19a10.14,10.14,0,0,1-7.71,3.33c-5.25,0-10.08-4-10.08-12.36,0-8.85,5.29-12.6,10.31-12.6A11.13,11.13,0,0,1,675.11,32Z"/><path class="cls-1" d="M452.56,17.63v36l20-5.81v-12l-10,2.91v-12l10-2.91v-12Zm29.95,27.29,10-2.91V30l-10,2.9Zm0-36v12l10-2.91V6Z"/><path class="cls-1" d="M614.68,65a2.9,2.9,0,0,0-2.09-.87c-1.35,0-2.4,1.22-2.4,3.39S611.1,71,612.64,71a2.71,2.71,0,0,0,2-.93l.74.8a3.69,3.69,0,0,1-2.8,1.21c-1.9,0-3.66-1.46-3.66-4.49,0-3.21,1.92-4.57,3.75-4.57a4,4,0,0,1,2.75,1Z"/><path class="cls-1" d="M624.47,68h-5.79c.11,1.86,1,3,2.42,3a3.88,3.88,0,0,0,2.4-.83l.58.9a5.2,5.2,0,0,1-3.12,1c-1.59,0-3.53-1.16-3.53-4.57,0-2.77,1.53-4.49,3.6-4.49,2.27,0,3.49,1.79,3.49,4.27A3.25,3.25,0,0,1,624.47,68ZM621,64.1c-1.29,0-2.18.92-2.33,2.86h4.68C623.26,65.27,622.54,64.1,621,64.1Z"/><path class="cls-1" d="M631.76,64.49a2.46,2.46,0,0,0-1.31-.33c-1.21,0-1.89,1-1.89,2.63V71.9h-1.24V63.2h1.24v1.08A2.54,2.54,0,0,1,630.71,63a3.4,3.4,0,0,1,1.36.21Z"/><path class="cls-1" d="M636.4,64.24v5.67c0,.78.21,1,.87,1a2.85,2.85,0,0,0,1.23-.25l-.08,1.08a3.92,3.92,0,0,1-1.61.3c-1.08,0-1.66-.53-1.66-2V64.24h-1.07v-1h1.07V60.27l1.25-.36V63.2h2.15v1Z"/><path class="cls-1" d="M641.64,61.52V60.26l1.24-.35v1.61Z"/><rect class="cls-1" x="641.64" y="63.2" width="1.24" height="8.7"/><path class="cls-1" d="M653.11,61.52V60.26l1.24-.35v1.61Z"/><rect class="cls-1" x="653.11" y="63.2" width="1.24" height="8.7"/><path class="cls-1" d="M649.25,61c-.52,0-.9.18-.9.91V63.2h1.71v1h-1.71V71.9h-1.24V64.24h-1.19v-1h1.19V62a1.87,1.87,0,0,1,2.06-2.14,3.21,3.21,0,0,1,1.09.15V61.2A2.22,2.22,0,0,0,649.25,61Z"/><path class="cls-1" d="M664.12,68h-5.8c.12,1.86,1,3,2.42,3a3.86,3.86,0,0,0,2.4-.83l.58.9a5.14,5.14,0,0,1-3.11,1c-1.59,0-3.53-1.16-3.53-4.57,0-2.77,1.52-4.49,3.59-4.49,2.27,0,3.5,1.79,3.5,4.27A4.12,4.12,0,0,1,664.12,68Zm-3.46-3.87c-1.3,0-2.19.92-2.34,2.86H663C662.91,65.27,662.18,64.1,660.66,64.1Z"/><path class="cls-1" d="M672.34,71.9V70.84a3.48,3.48,0,0,1-2.62,1.24c-1.74,0-3.11-1.33-3.11-4.39S668.07,63,669.89,63a3.08,3.08,0,0,1,2.45,1.16V60.27l1.24-.36v12Zm0-6.5A2.82,2.82,0,0,0,670,64.1c-1.44,0-2.16,1.24-2.16,3.57S668.66,71,670,71a2.93,2.93,0,0,0,2.3-1.26Z"/><path class="cls-1" d="M25.24,133l25-13a7.38,7.38,0,0,1,1.41-.39c.6,1.64.3,3.25.34,4.8s-.07,3-.11,4.62c-1.9.94-3.71,1.86-5.54,2.73-3.5,1.67-7,3.3-10.5,5a18.16,18.16,0,0,0-2.1,1.39c6.09,3.23,12.16,5.67,18,8.78a52.62,52.62,0,0,1,.08,9.57,10,10,0,0,1-1.7-.5q-11.91-6.17-23.79-12.38a9.3,9.3,0,0,1-1.16-.92c0-2.06-.06-4.21-.05-6.35C25.11,135.27,25.19,134.2,25.24,133Z"/><path class="cls-1" d="M54.8,165.33v7.61c-3.26,2.13-6.79,3.72-10.2,5.51s-6.52,3.63-10.14,5.1a27.27,27.27,0,0,1-.16-6.94c.78-1.17,2-1.45,3-2,3-1.47,6-2.86,9-4.31a19.12,19.12,0,0,0,1.84-1.16c-4.6-2.7-9.37-4.41-13.82-6.93-.07-.89-.17-1.74-.18-2.59,0-1.38,0-2.77.05-4.37a4.63,4.63,0,0,1,1.34.14C42,158.71,48.38,162,54.8,165.33Z"/><path class="cls-1" d="M126.91,133.34a19.26,19.26,0,0,1-1.4,7.8c-3.38,8.39-13.79,8.36-18.5,4.35A10.88,10.88,0,0,1,103.9,141a21,21,0,0,1-.43-14.26c2.58-8.13,11.13-9.67,16.82-6.93a10.52,10.52,0,0,1,5.2,5.53A18.55,18.55,0,0,1,126.91,133.34Zm-20.92.23a16.13,16.13,0,0,0,1.06,6.63c1.71,4.19,4.37,5.37,7.64,5.37,3.5,0,6.07-1.3,7.67-5.3a19,19,0,0,0,1.09-8.88,15.56,15.56,0,0,0-1.6-6.2,7.92,7.92,0,0,0-8.75-3.91,8.05,8.05,0,0,0-5.85,5A16.35,16.35,0,0,0,106,133.57Z"/><path class="cls-1" d="M354.1,126.57c.59-1.85.29-3.45.34-5s0-3,0-4.45a3.17,3.17,0,0,1,2.68-.33,3.48,3.48,0,0,1,.31.87c.06,1,.08,1.93.08,2.9v26.3c-.94.89-1.79.49-2.7.55-.24-.76-.45-1.45-.67-2.13-.23,0-.48,0-.64.11-.62.42-1.17,1-1.81,1.34a7.38,7.38,0,0,1-10.72-3,17.35,17.35,0,0,1-1.39-4.27,21,21,0,0,1,0-7.71,15.53,15.53,0,0,1,1.41-4.27,7.27,7.27,0,0,1,10.27-2.84C352.17,125.2,353,125.83,354.1,126.57Zm.35,9.18h0c0-1.51-.05-3,0-4.53a3.32,3.32,0,0,0-1.27-2.82,12.07,12.07,0,0,0-2.39-1.64c-2.86-1.39-5.72-.48-7,2.45a15.72,15.72,0,0,0,.11,13.16,4.83,4.83,0,0,0,6.17,2.75,9.32,9.32,0,0,0,2.82-1.49,3.74,3.74,0,0,0,1.58-3.36C354.4,138.77,354.45,137.26,354.45,135.75Z"/><path class="cls-1" d="M168.88,133.14q.44-3.52.89-7a5.21,5.21,0,0,1,.21-1c2-6.53,8-7.64,12.63-5.75a5.93,5.93,0,0,1,3.13,2.7,17,17,0,0,1,1.74,4.14,31.61,31.61,0,0,1,.06,13.79,14.82,14.82,0,0,1-1.23,3.33,8,8,0,0,1-7.6,4.58,8.09,8.09,0,0,1-7.73-4.41,16,16,0,0,1-1.74-6.17c-.12-1.39,0-2.8,0-4.2Zm16.19.46-.37,0c0-1.51.1-3,0-4.51a11.57,11.57,0,0,0-1.84-5.78,4.94,4.94,0,0,0-8.4,0,10.55,10.55,0,0,0-1.5,3.53,30.35,30.35,0,0,0,0,13.11,8.28,8.28,0,0,0,1.91,4,4.91,4.91,0,0,0,7.4,0,8.27,8.27,0,0,0,1.76-3.37C184.54,138.29,184.74,135.93,185.07,133.6Z"/><path class="cls-1" d="M212.65,133.53c-.1,1.41-.12,3.14-.37,4.84a20.44,20.44,0,0,1-1.08,4c-1.86,5.06-7.24,6.68-12,4.71a7.22,7.22,0,0,1-3.34-2.94,14.34,14.34,0,0,1-2-6.08,39.84,39.84,0,0,1,.06-10,19.16,19.16,0,0,1,1.05-4c1.36-3.7,4.31-5.49,8.3-5.45a8.13,8.13,0,0,1,8,5.4C212.46,127,212.47,130.09,212.65,133.53Zm-3.1-.24-.3,0a32.14,32.14,0,0,0,0-3.54,14.2,14.2,0,0,0-1.75-6.15c-2.17-3.46-6.57-3.55-8.75-.1a10.56,10.56,0,0,0-1.3,3.27,29.67,29.67,0,0,0,.08,13.42,9.83,9.83,0,0,0,1.41,3.21,4.92,4.92,0,0,0,8.2.11,9.41,9.41,0,0,0,1.52-3.51C209.09,137.78,209.26,135.52,209.55,133.29Z"/><path class="cls-1" d="M296.2,136.66a9.72,9.72,0,0,0,1.28,5.9,5.91,5.91,0,0,0,9.17,1.51,27.22,27.22,0,0,0,2.09-2.29l1.86.49c.06.41.18.67.11.81a8.82,8.82,0,0,1-9.39,4.74c-4.29-.57-6.76-3-7.87-7a18.41,18.41,0,0,1,.14-10.53c1.68-5.41,6.09-7.35,11.47-6.31a7,7,0,0,1,3.38,1.83c2.56,2.34,3.72,6.67,2.74,10.54C306.33,136.75,301.38,136.17,296.2,136.66Zm.06-2.81c2,.64,4.07.33,6.09.32s4,.42,5.91-.41a7.09,7.09,0,0,0-.85-4.5,5.12,5.12,0,0,0-4.79-3.23,5.42,5.42,0,0,0-5.08,2.83A8.81,8.81,0,0,0,296.26,133.85Z"/><path class="cls-1" d="M78.29,142.45l2.7-1.12a9.57,9.57,0,0,1,.8,1.09,6.11,6.11,0,0,0,4.67,3.12A5.9,5.9,0,0,0,91.55,144a4.89,4.89,0,0,0-.76-8c-1.28-.77-2.7-1.34-4.06-2s-2.76-1.22-4.08-1.94a6.29,6.29,0,0,1-3.58-6.36,6.74,6.74,0,0,1,4.09-6.11,11.19,11.19,0,0,1,9.4-.06c1.75.73,2.49,1.66,3.32,3.75a6.15,6.15,0,0,1-1.07.66,8.14,8.14,0,0,1-1.38.28c-.27-.27-.57-.56-.85-.86-2.15-2.29-4.6-2.89-7.29-1.81a4.28,4.28,0,0,0-2.76,3.69,4.15,4.15,0,0,0,1.75,4.24A21,21,0,0,0,87.15,131c1.95.92,4,1.69,5.86,2.72,2.74,1.51,3.77,4,3.58,7.08a7,7,0,0,1-4.67,6.43,12,12,0,0,1-8.86.18A7.58,7.58,0,0,1,78.29,142.45Z"/><path class="cls-1" d="M330.2,133a17,17,0,0,0,.1-2.7c-.23-1.9-.89-3.62-3-4.2a5.28,5.28,0,0,0-5.88,1.57,26.89,26.89,0,0,0-1.57,2.25l-2-.69c-.05-.34-.17-.57-.1-.73a6.84,6.84,0,0,1,4.76-4.46,10.54,10.54,0,0,1,7.57.54,4.72,4.72,0,0,1,2.47,2.87,15.72,15.72,0,0,1,.82,4.09c.08,5,0,9.92,0,14.88a5.73,5.73,0,0,1-.24.85l-2.54.14c-.16-1.15-.3-2.17-.43-3.16-1.21-.23-1.6.73-2.22,1.25a8,8,0,0,1-6.28,2,5.67,5.67,0,0,1-5.05-3.91c-1.11-2.94,0-7.47,3.66-9a14.41,14.41,0,0,1,5.32-1.2A16.74,16.74,0,0,0,330.2,133Zm0,2.82a12.75,12.75,0,0,0-7.77.53,5.1,5.1,0,0,0-1.62,1,4.73,4.73,0,0,0-1,5.6c.8,1.69,2.36,2.44,4.57,2.12s3.62-1.71,5.08-3.14c1.07-1,.85-2.36.86-3.62C330.37,137.62,330.28,136.88,330.22,135.85Z"/><path class="cls-1" d="M220.16,126.06l-2.61-.18a7,7,0,0,1,4.33-6.41,10,10,0,0,1,9.06.29,7,7,0,0,1,3.75,7.85,12.72,12.72,0,0,1-3.46,6.48c-2.3,2.42-4.67,4.78-7,7.19-1,1-1.89,2-2.76,3,.23.92.83.84,1.34.84,3,0,6,0,9.06,0,1,0,1.91.09,2.94.15l.08,1.71c-2.21.62-12.28.78-17.5.29-.78-1.43-.27-2.53.82-3.64,2.81-2.83,5.57-5.72,8.31-8.62a50.14,50.14,0,0,0,3.35-3.94,7.55,7.55,0,0,0,1.6-4.82c-.07-2.64-1.3-4.39-3.68-5.09a5.66,5.66,0,0,0-6.28,2.19A28.46,28.46,0,0,0,220.16,126.06Z"/><path class="cls-1" d="M240.72,147.26a3.11,3.11,0,0,1,1-3.61c2.74-2.76,5.43-5.57,8.09-8.4,1.25-1.33,2.43-2.74,3.58-4.17a7.69,7.69,0,0,0,1.63-4.16,5.07,5.07,0,0,0-3.37-5.64,5.61,5.61,0,0,0-6.77,2.33c-.44.72-.74,1.53-1.18,2.45l-2.56-.24a6.58,6.58,0,0,1,3.48-5.93,10.24,10.24,0,0,1,11,.58,7.34,7.34,0,0,1,2.44,7.86,13.2,13.2,0,0,1-3.37,5.82c-2.32,2.42-4.67,4.8-7,7.19a13.61,13.61,0,0,0-2.59,3.11c.36.78,1,.64,1.46.65,2.91,0,5.83,0,8.74,0,.95,0,1.91.09,2.95.14l.11,1.69C256.15,147.6,246.17,147.77,240.72,147.26Z"/><path class="cls-1" d="M149.06,126.07l-2.6-.27a6.89,6.89,0,0,1,4.13-6.22,10,10,0,0,1,9.62.37,7.15,7.15,0,0,1,3.24,8.39,13.2,13.2,0,0,1-3.37,5.82c-2.32,2.41-4.67,4.79-7,7.18a13.73,13.73,0,0,0-2.58,3.11c.36.78,1,.64,1.46.65,2.92,0,5.83,0,8.75,0,1,0,1.91.09,2.94.14l.1,1.7c-2.18.64-12.29.8-17.51.3a2.63,2.63,0,0,1,.67-3.38c2.78-2.87,5.56-5.73,8.3-8.63,1.26-1.34,2.43-2.75,3.58-4.17a7.76,7.76,0,0,0,1.63-4.17,5.07,5.07,0,0,0-3.38-5.63,5.58,5.58,0,0,0-6.59,2.07A23.68,23.68,0,0,0,149.06,126.07Z"/><path class="cls-1" d="M362.57,124.39l3-.18a10.21,10.21,0,0,1,.78,1.48c1.77,5.2,3.5,10.41,5.25,15.61.15.47.35.92.51,1.35,1-.21,1-.94,1.18-1.53,1.64-5,3.26-10,4.94-15,.71-2.09.77-2.08,3.48-1.51-.17.71-.27,1.44-.51,2.13q-4.08,11.73-8.2,23.47c-.18.51-.36,1-.58,1.51-1.56,3.44-3.35,4.26-7.37,3.31v-1.67c.3-.2.47-.4.65-.42,1.2-.13,2.44-.29,3.1-1.43a13.88,13.88,0,0,0,1.69-3.78,5.83,5.83,0,0,0-.68-2.77c-2-5.68-4.09-11.34-6.12-17C363.33,126.91,363,125.89,362.57,124.39Z"/><path class="cls-1" d="M129.28,183.53c-.67-1-.44-2.07-.46-3.13,0-2.69,0-5.39,0-8.09a9.75,9.75,0,0,0-.44-2.85,2.64,2.64,0,0,0-3.43-1.58,5.53,5.53,0,0,0-3.86,5.31c0,2.59,0,5.18,0,7.77,0,.84-.13,1.69-.22,2.8-.64-.26-1.18-.32-1.45-.63a2.1,2.1,0,0,1-.25-1.23q0-7,0-13.93a3.28,3.28,0,0,1,.2-1.25,1,1,0,0,1,.72-.52,1,1,0,0,1,.8.37,10.84,10.84,0,0,1,.53,1.74c.54-.27,1-.45,1.4-.7.64-.39,1.23-.89,1.89-1.22a4.14,4.14,0,0,1,5.28.85c.3.29.55.62.76.86,1,.07,1.43-.69,2.09-1a12.07,12.07,0,0,1,3-1.19,3.76,3.76,0,0,1,4.62,3.37,7.92,7.92,0,0,1,.1,1.29c0,3.88,0,7.77,0,11.65a6.6,6.6,0,0,1-.21,1.17c-.83.45-1.41.31-1.55-.52a15.89,15.89,0,0,1-.15-2.58c0-2.59,0-5.18,0-7.77a11.54,11.54,0,0,0-.39-2.87,2.63,2.63,0,0,0-3.28-1.87,9.14,9.14,0,0,0-2.33,1.08,3.45,3.45,0,0,0-1.76,3.22c.07,2.81,0,5.61,0,8.42a14.61,14.61,0,0,1-.16,2.57C130.46,183.76,129.84,183.69,129.28,183.53Z"/><path class="cls-1" d="M325.53,167.82c.7-1.17.39-2.26.45-3.29s0-2.16.16-3.22a.87.87,0,0,1,.64-.58,1.46,1.46,0,0,1,1.06.46,3.52,3.52,0,0,1,.27,1.56c0,6.36,0,12.72,0,19.08,0,.1,0,.21,0,.32-.05.64,0,1.32-.85,1.53-1.06.29-1.19-.61-1.55-1.22,0-.08-.16-.12-.29-.22-.7.44-1.38,1-2.14,1.35a5.15,5.15,0,0,1-6.61-1.59c-2.35-2.94-2.41-11.27,0-14.17a5.1,5.1,0,0,1,6.37-1.46C323.88,166.79,324.66,167.31,325.53,167.82Zm.44,7.35c0-1.19,0-2.37,0-3.55a3.23,3.23,0,0,0-1.17-2.55c-2.81-2.61-6.1-1.75-7.28,1.9a4.66,4.66,0,0,0-.27,1.26c0,1.82-.07,3.65.06,5.47a6.56,6.56,0,0,0,.77,2.44,3.82,3.82,0,0,0,4.25,2.17,4.14,4.14,0,0,0,3.62-3.92C326,177.32,326,176.24,326,175.17Z"/><path class="cls-1" d="M388.7,171.26c.81-1.37.4-2.91.51-4.39s-.29-2.8.45-4.06c.77-.26,1.37-.16,1.51.68a11.4,11.4,0,0,1,.14,1.93q0,7.77,0,15.52a10.39,10.39,0,0,1-.14,1.93c-.17.85-.77.9-1.59.6-1-3.14.3-6.58-.85-9.85a11.93,11.93,0,0,0-1.6-.24c-2.58,0-5.16,0-7.7,0-1.09,1.77-.56,3.53-.66,5.2s0,3.2-.06,4.93l-1.6.18c-.23-.3-.46-.46-.47-.63-.24-6.67-.12-13.33-.07-20.22l1.92-.12c.65,2.88-.11,5.72.51,8.38A24.35,24.35,0,0,0,388.7,171.26Z"/><path class="cls-1" d="M277.3,167.88c1-2.55,0-4.92,1-7.24.48.24,1,.34,1.26.67a2.37,2.37,0,0,1,.18,1.25q0,9.85,0,19.73a6.63,6.63,0,0,1-.17,1.12c-1.48,1-1.61-.67-2.55-1.11-.42.29-.93.65-1.45,1-3.59,2.24-6.87,0-7.95-2.71a15,15,0,0,1-1-6.34,16.22,16.22,0,0,1,.83-4.42c1.39-3.92,4.65-5,8.25-2.93C276.11,167.14,276.55,167.42,277.3,167.88Zm.47,7.29c0-1.18.07-2.37,0-3.55a4.73,4.73,0,0,0-4-4,3.85,3.85,0,0,0-4.11,2.48,12.77,12.77,0,0,0,.05,9.77,3.84,3.84,0,0,0,4.08,2.53c2.63-.46,4-2.2,4-4C277.76,177.33,277.76,176.25,277.77,175.17Z"/><path class="cls-1" d="M68.43,162.75a27.24,27.24,0,0,1,8.78,0,5,5,0,0,1,4.38,4.85,15.34,15.34,0,0,1,0,2.25,5.15,5.15,0,0,1-4.72,4.89c-1.17.16-2.36.13-3.54.23-.83.07-1.66.21-2.52.32-.76,2.78,0,5.5-.58,8.27l-1.4.17c-.24-.31-.46-.46-.48-.63C68.07,180.68,68.16,165.34,68.43,162.75Zm2.14,1.77a36.6,36.6,0,0,0,.12,8.3,13.5,13.5,0,0,0,5.2.2c2.25-.24,3.54-1.83,3.63-4.18a4.12,4.12,0,0,0-3.63-4.53A14,14,0,0,0,70.57,164.52Z"/><path class="cls-1" d="M241.81,183.46c-1.45.17-1.45.17-2.36-2a18.2,18.2,0,0,0-1.51,1.06,5.31,5.31,0,0,1-2.9,1.3c-3.57.41-6-2.27-5.29-5.82a5.26,5.26,0,0,1,3.82-4.36,22.7,22.7,0,0,1,3.48-.65c.83-.12,1.67-.14,2.66-.21a18.53,18.53,0,0,0,.18-2,3,3,0,0,0-1.91-3.1,4.09,4.09,0,0,0-4.26.62c-.48.42-.78,1-1.27,1.44a1.41,1.41,0,0,1-1.15.2c-.49-.15-.48-.65-.26-1.06,1.63-3.12,6.14-4.25,8.9-2.16a5.13,5.13,0,0,1,1.51,2,7.82,7.82,0,0,1,.59,2.82c.06,3.67,0,7.33,0,11A3.36,3.36,0,0,1,241.81,183.46Zm-2.07-8.54a8.88,8.88,0,0,0-5.26.26,4.14,4.14,0,0,0-2.22,1.76,3.91,3.91,0,0,0,.39,4.5,3.32,3.32,0,0,0,3.87.57,4.92,4.92,0,0,0,3.41-5.21C239.92,176.27,239.82,175.74,239.74,174.92Z"/><path class="cls-1" d="M160.25,175.23c-1.23.06-2.29.14-3.35.15-1.94,0-3.87,0-5.81,0-1.71,0-2.1.52-1.73,2.24a9.21,9.21,0,0,0,1.11,3,4.08,4.08,0,0,0,6.18.94,19.24,19.24,0,0,0,1.84-1.94l1.24.57a4.9,4.9,0,0,1-2.31,3,6.46,6.46,0,0,1-4,1,6.09,6.09,0,0,1-5.59-4.2,13.81,13.81,0,0,1,.34-10.69,6.27,6.27,0,0,1,8.81-2.67,5.81,5.81,0,0,1,2.35,2.58C160.12,170.82,160.39,172.31,160.25,175.23Zm-2.38-1.74a6,6,0,0,0-.9-4.35,3.82,3.82,0,0,0-6.1-.35,5.62,5.62,0,0,0-1.38,4.84A35.42,35.42,0,0,0,157.87,173.49Z"/><path class="cls-1" d="M200.29,180.49a6.14,6.14,0,0,1,.65-.69,1.92,1.92,0,0,1,.6-.19c.19.08.44.11.55.25a6.89,6.89,0,0,0,2.9,2.46,4.32,4.32,0,0,0,4.5-.89,4,4,0,0,0,1.16-4.13,3.44,3.44,0,0,0-2-2.41c-1.33-.69-2.69-1.34-4-2a13.54,13.54,0,0,1-2.22-1.29c-3.08-2.45-2-6.62,0-8.19,2.43-1.93,7-2,9.23.3a13.3,13.3,0,0,1,1,1.49l-1.71,1a18.66,18.66,0,0,0-1.36-1.48,4.11,4.11,0,0,0-3.63-.93,3.37,3.37,0,0,0-2.92,2.63,3.52,3.52,0,0,0,1.35,4,20.14,20.14,0,0,0,2.55,1.37c1.06.53,2.15,1,3.2,1.55,2.39,1.27,3.2,3.36,2.91,5.95a5.38,5.38,0,0,1-4.17,4.77c-3.31,1.06-7-.18-8.31-2.56A5.45,5.45,0,0,1,200.29,180.49Z"/><path class="cls-1" d="M369.5,178.54c.48.13,1.1.14,1.22.39a2,2,0,0,1,0,1.45c-1.57,3.5-5.32,4.44-8.43,3.84a7.36,7.36,0,0,1-5.53-4.05,15.35,15.35,0,0,1-.2-13.71c2-4.18,6-5,9.49-4.33,2.26.45,3.47,1.67,4.81,4.54l-1.57.62c-.48-.6-.92-1.18-1.39-1.74a5.31,5.31,0,0,0-8.4.33,6.18,6.18,0,0,0-.83,1.37,14.57,14.57,0,0,0,0,11.92,5.44,5.44,0,0,0,7.52,2.88,6.87,6.87,0,0,0,2-1.6A13.53,13.53,0,0,0,369.5,178.54Z"/><path class="cls-1" d="M107.94,180.71c.85-2.67,1.57-4.91,2.28-7.15s1.33-4.32,2-6.46c.31-.93.63-1,2.14-.62-.18.71-.31,1.43-.54,2.12q-2.76,8.43-5.57,16.85a14.31,14.31,0,0,1-1.28,3,3.29,3.29,0,0,1-3.85,1.64c-.31-.07-.51-.54-.91-1,.55-.32.87-.55,1.22-.72,2.49-1.22,3.43-3.19,2.58-5.79-1.42-4.4-2.93-8.77-4.4-13.15-.3-.91-.56-1.84-.84-2.72,1.32-.72,1.74-.69,2.15.13a11.29,11.29,0,0,1,.57,1.5c1.11,3.48,2.19,7,3.32,10.45A14.13,14.13,0,0,0,107.94,180.71Z"/><path class="cls-1" d="M94.3,181.24l-2,1.57a5.7,5.7,0,0,1-4,1.09,4,4,0,0,1-3.67-2.7,5.56,5.56,0,0,1,2.94-7.28,19,19,0,0,1,4.07-.88c.83-.14,1.68-.15,2.7-.23a8.59,8.59,0,0,0,.22-1.93c-.15-1.44-.65-2.82-2.21-3.23s-3.22-.41-4.43,1a4.62,4.62,0,0,1-.8,1A1.38,1.38,0,0,1,86,170c-.59-.29-.44-.89-.18-1.39a4.91,4.91,0,0,1,3.81-2.65,11,11,0,0,1,2.57,0,4.36,4.36,0,0,1,4.08,3.53,9.4,9.4,0,0,1,.27,2.24c0,3.54,0,7.09,0,10.64a9.8,9.8,0,0,1-.3,1.44c-.56-.18-1.17-.19-1.41-.49A6.55,6.55,0,0,1,94.3,181.24Zm.08-6.31a8.83,8.83,0,0,0-5.66.39,3.77,3.77,0,0,0-2.2,4.79,3,3,0,0,0,3.75,2.15,5.31,5.31,0,0,0,4.35-5.55A15.3,15.3,0,0,0,94.38,174.93Z"/><path class="cls-1" d="M278.54,124.36h2.72c.18,1.13.34,2.15.56,3.49,2.3-1.77,4.18-3.85,7.34-3.76l.22,2.55a18.13,18.13,0,0,1-2.23.67,7.75,7.75,0,0,0-3.49,1.6,4.87,4.87,0,0,0-2.17,4.38c.14,3.66.05,7.32,0,11,0,.95-.1,1.9-.16,3h-2.72c-.09-.95-.25-1.79-.25-2.63C278.44,138,278.22,131.33,278.54,124.36Z"/><path class="cls-1" d="M297.22,183.36c-2.21,1.07-1.58-1.3-2.73-1.8-.4.3-.87.7-1.38,1a7.22,7.22,0,0,1-1.94,1.09c-3.12.75-4.82-.22-5.77-2.19a5.91,5.91,0,0,1,1.73-7A9.34,9.34,0,0,1,292,173l2.82-.2a4.13,4.13,0,0,0-.2-3.87c-.87-1.69-3.76-2.13-5.4-.83-.58.46-1,1.17-1.52,1.64a1.32,1.32,0,0,1-1.15.2c-.2-.09-.36-.75-.25-1.05a4.42,4.42,0,0,1,2.38-2.5,7.37,7.37,0,0,1,5.34-.29,3.85,3.85,0,0,1,2.67,2.61,7.76,7.76,0,0,1,.45,1.86C297.32,174.9,297.23,179.19,297.22,183.36Zm-2.49-8.46a8.31,8.31,0,0,0-5.29.39A3.9,3.9,0,0,0,287,178.1a3.47,3.47,0,0,0,1.08,3.53,3.16,3.16,0,0,0,3.33.49C294.73,181,295.83,178.67,294.73,174.9Z"/><path class="cls-1" d="M178.57,183.34c-1.23.53-1.87.37-2-.64a17,17,0,0,1-.08-2.26c0-2.69,0-5.38,0-8.07a12.22,12.22,0,0,0-.2-2.57,2.69,2.69,0,0,0-3.2-2,6.24,6.24,0,0,0-4.16,2.81,4.44,4.44,0,0,0-.53,2.14c-.06,2.58,0,5.17,0,7.75a15.7,15.7,0,0,1-.14,2.57c-.13.67-.73.66-1.44.45a6.33,6.33,0,0,1-.32-1.44q0-7.11,0-14.22a2.32,2.32,0,0,1,.27-1.23c.19-.28.65-.38,1.21-.68.31,1,.56,1.72.87,2.7l2.51-1.68a5.76,5.76,0,0,1,3-1.1,3.67,3.67,0,0,1,4,2.62,5,5,0,0,1,.34,1.56C178.58,174.44,178.57,178.84,178.57,183.34Z"/><path class="cls-1" d="M260.59,183.54H259c-.08-.94-.2-1.78-.21-2.62,0-2.8,0-5.6,0-8.4a13.77,13.77,0,0,0-.17-2.57,2.64,2.64,0,0,0-3.39-2.12,10.62,10.62,0,0,0-2.84,1.46,4,4,0,0,0-1.74,3.6c.09,2.59,0,5.17,0,7.76,0,.95-.1,1.9-.15,2.74-.92.41-1.49.31-1.64-.54a10.28,10.28,0,0,1-.14-1.92q0-6.15,0-12.28a5.65,5.65,0,0,1,.12-1.6,1.35,1.35,0,0,1,.78-.85c.63-.16.95.27,1,.9,0,.41.16.82.23,1.17,1.18.31,1.63-.63,2.32-1.06a6.65,6.65,0,0,1,3.55-1.37,3.58,3.58,0,0,1,3.74,2.49,6.86,6.86,0,0,1,.42,2.19c0,4,0,8,0,12A5.67,5.67,0,0,1,260.59,183.54Z"/><path class="cls-1" d="M70.3,147.31H67.77a3.75,3.75,0,0,1-.32-1q0-12.78,0-25.57a8.26,8.26,0,0,1,.24-1.37h2.53a4,4,0,0,1,.32,1q0,12.78,0,25.57A8.41,8.41,0,0,1,70.3,147.31Z"/><path class="cls-1" d="M334.15,179.51a22.28,22.28,0,0,0,1.86,2.06,4,4,0,0,0,5.08.27,3,3,0,0,0,.08-4.94,13,13,0,0,0-2.33-1.07,33.58,33.58,0,0,1-3.27-1.36,4.22,4.22,0,0,1-2.26-4,4.35,4.35,0,0,1,2.77-4c2.94-1.31,5.8-.6,7.39,1.9.37.59.37.59-.72,1.61-.42-.43-.86-.84-1.26-1.3a3.66,3.66,0,0,0-3.54-1.09,3,3,0,0,0-2.48,2.26,2.6,2.6,0,0,0,1.43,3,23.7,23.7,0,0,0,2.37,1c1,.43,2,.8,3,1.31a4.24,4.24,0,0,1,2.28,4.31,4.57,4.57,0,0,1-3,4.23,6.51,6.51,0,0,1-8.07-2.1C333,180.86,333.05,180.63,334.15,179.51Z"/><path class="cls-1" d="M226,183.06a2.71,2.71,0,0,1-3.34.9,3,3,0,0,1-2.29-2.05,13.68,13.68,0,0,1-.49-3.18c-.08-2.15,0-4.31,0-6.47,0-.85-.09-1.7-.13-2.55l-2.54-1.38c.72-.38,1.06-.56,1.4-.72s.59-.24,1.1-.45c.07-1,.1-2,.21-3.09s.56-1.61,1.9-1.48c.07.79.12,1.6.21,2.41s.17,1.45.26,2.26l3.71.79c-1,1.51-2.64.67-3.75,1.69a11.29,11.29,0,0,0-.21,1.67c0,2.58-.05,5.17,0,7.76s.38,3,3.13,3.49A5.57,5.57,0,0,1,226,183.06Z"/><path class="cls-1" d="M305.94,168.78c1.55-1.13,2.71-2.5,4.72-2.77a3.79,3.79,0,0,1,.54.93c.07.27-.12.6-.2,1-.82.26-1.65.47-2.42.8-2,.89-3.28,2.27-3.15,4.7s0,4.73,0,7.09a12.91,12.91,0,0,1-.1,2.25c-.17,1-.84,1.13-1.79.69a5.69,5.69,0,0,1-.22-1.16q0-7.26,0-14.51c0-.65,0-1.32.76-1.6.58-.2,1,.25,1.38,1.35C305.59,167.87,305.74,168.23,305.94,168.78Z"/><path class="cls-1" d="M185.82,169.8l-2.37-1.24c.22-.32.36-.73.56-.77a2,2,0,0,0,1.8-2.27,7.14,7.14,0,0,1,.24-2.22c.13-.38.74-.6,1.28-1,.78,1.63.14,3.2.74,4.83l3.65,1c-1.05,1.43-2.72.59-3.71,1.71a5.33,5.33,0,0,0-.21,1.06c0,2.8-.07,5.6,0,8.39.06,2.52.6,3,3.27,3.36a4.61,4.61,0,0,1,.82.3c-.25.34-.39.78-.66.88-2.79,1-5-.29-5.29-3.22a38.19,38.19,0,0,1-.11-3.86C185.8,174.47,185.82,172.22,185.82,169.8Z"/><path class="cls-1" d="M348.74,185.76a49.22,49.22,0,0,1,0-7.19,7.34,7.34,0,0,1,4.05-.08,30.05,30.05,0,0,1,.06,6.77C351.62,186.05,350.34,185.49,348.74,185.76Z"/><path class="cls-1" d="M453.11,165.36c.5-2.14,1-4.28,1.51-6.42.21-.92.41-1.84.62-2.78h3.31l-.77,3.86h5c2,0,2,0,2.47-2,.4-1.87.4-1.87,2.3-1.87,3.54,0,7.08,0,10.62,0a1.32,1.32,0,0,1,1,.47c1.83,2.91,4.61,3.92,7.85,3.89a10.76,10.76,0,0,0,8.35-3.82,4.51,4.51,0,0,1,1.05-.68l.25.23-.65,3.19c1.4.26,2.77.59,4.15.74a16.43,16.43,0,0,0,7-.5,6.91,6.91,0,0,0,4-3.11,1.14,1.14,0,0,1,.83-.4c.18,0,.49.26.57.47a5.35,5.35,0,0,0,5,3.54,27.24,27.24,0,0,0,5.16-.38c.3,0,.67-.5.8-.84a10,10,0,0,0,.51-2.11c.11-.77.52-.83,1.18-.59l-.79,3.77h3.05c1.11,0,2.22,0,3.32,0,.56,0,.78-.19.87-.73a25.3,25.3,0,0,1,.58-2.58c.07-.23.38-.57.58-.57,2.75,0,5.5,0,8.37,0l-.82,3.88c2.22,0,4.36,0,6.49,0,.19,0,.46-.29.53-.5.2-.69.33-1.41.49-2.12.33-1.4.33-1.4,1.91-1.13L549,160c2.28,0,4.42,0,6.57,0,.18,0,.46-.36.52-.61.24-.85.37-1.73.62-2.58.07-.26.39-.62.61-.63,1.35-.06,2.7,0,4.15,0l-.81,3.88c2.24,0,4.38,0,6.52,0,.19,0,.47-.35.54-.59.25-.91.42-1.85.67-2.76.06-.2.35-.49.52-.48a1.1,1.1,0,0,1,.83.37c1.85,3.44,4.78,4.66,8.64,3.51a4.58,4.58,0,0,1,1.77-.07c1.91.14,3.85.05,5.86.05l.92-3.83h1.33l-.79,3.77h7c.24-1,.51-2.06.7-3.11.1-.53.29-.75.86-.74,1.29,0,2.57,0,4,0-.28,1.32-.52,2.52-.79,3.78a4.16,4.16,0,0,0,.58.1c1.9,0,3.79,0,5.69,0,.49,0,.74-.12.83-.66.14-.87.39-1.72.55-2.59.1-.49.34-.65.84-.67a2.36,2.36,0,0,1,2.59,1.15,6,6,0,0,0,3.67,2.54,12.28,12.28,0,0,0,7.37-.08,1.17,1.17,0,0,0,1-1.07,5.88,5.88,0,0,1,.31-1.38c.15-.4.35-1,.63-1.08a1.46,1.46,0,0,1,1.84.64,7.9,7.9,0,0,0,6,3.55,16.81,16.81,0,0,0,7.22-.6,1.36,1.36,0,0,0,.74-.8c.28-.9.45-1.83.67-2.8h3.43c-.77,3.54-1.52,7-2.29,10.51H453.11Z"/><path class="cls-1" d="M675.11,143q-.95,4.2-1.88,8.4c-.35,1.54-.67,3.08-1,4.74h-1c-3.29,0-6.58,0-9.87,0-.65,0-.92.16-1.06.84-.63,3-1.34,6-2,9.06-.11.48-.25.71-.78.7-4,0-8,0-12.05,0a2.19,2.19,0,0,1-.37-.07c.23-1.11.42-2.23.71-3.31.05-.2.52-.39.8-.39,2.37,0,4.74,0,7.11,0h1l1.6-7c.2-.89.43-1.78.58-2.68.11-.61.37-.82,1-.82,3.35,0,6.7,0,10.05,0,.7,0,1-.19,1.12-.89.39-2,.86-3.94,1.33-6H658.6c.84-3.8,1.65-7.48,2.48-11.22h-7.77c-.38,1.68-.77,3.39-1.15,5.1s-.8,3.44-1.15,5.18a.87.87,0,0,1-1.08.83c-1-.06-2,0-3.2,0,.24-1.13.45-2.17.67-3.19q1.23-5.5,2.45-11c.09-.45.19-.72.75-.72,5.09,0,10.18,0,15.4,0-.84,3.77-1.68,7.47-2.54,11.31h10.62c.34,0,.69,0,1,.07Z"/><path class="cls-1" d="M463.93,135.89c3,0,5.93-.19,8.81.05s5.42,1.79,6.14,4.93a8.25,8.25,0,0,1-2.74,8.73,11.07,11.07,0,0,1-6.41,2.29,30.47,30.47,0,0,1-3.31.06c-.64,0-.86.21-1,.82-.42,2.1-.91,4.18-1.39,6.3h-5.16Zm2.61,11.79c1.73,0,3.37.19,4.93-.52a4.29,4.29,0,0,0,2.33-5c-.31-1.54-1.39-2.19-3.67-2.21-1.89,0-1.9,0-2.32,1.84S467,145.68,466.54,147.68Z"/><path class="cls-1" d="M486.9,159.77c-4-.1-6.93-2-7.66-5.45a10.57,10.57,0,0,1,3.14-10.21,9.7,9.7,0,0,1,10-2.33,6.45,6.45,0,0,1,4.87,5.8c.49,3.77-1.39,9.82-7.21,11.58A30.2,30.2,0,0,1,486.9,159.77Zm5.44-10.8-.25-.09c0-1.4-.33-2.68-1.78-3.28a3.5,3.5,0,0,0-3.93.83,4.68,4.68,0,0,0-.92,1.19,9.12,9.12,0,0,0-1.22,4.9,3.07,3.07,0,0,0,4.72,2.7,4.54,4.54,0,0,0,1.82-1.84A39.76,39.76,0,0,0,492.34,149Z"/><path class="cls-1" d="M629.63,152.27a3,3,0,0,0,2.41,3.21,11.17,11.17,0,0,0,5.62-.29l1.37-.35c-.29,1.29-.52,2.46-.83,3.61a1,1,0,0,1-.6.6,14.74,14.74,0,0,1-7.77.18,6.88,6.88,0,0,1-5.24-6.74c-.21-5.48,3-10,8.1-10.92a11.51,11.51,0,0,1,4.22,0c3.51.68,5.48,3.62,5.14,7.4-.07.81-.28,1.61-.4,2.42s-.42.91-1.13.9c-3.29,0-6.58,0-9.87,0Zm7.58-3.41c.46-2.6-1.18-4.28-3.57-3.72-1.95.45-3,1.84-3.65,3.72Z"/><path class="cls-1" d="M600.26,159.05c.58-2.65,1.14-5.21,1.69-7.76.21-1,.46-2,.61-3a2.22,2.22,0,0,0-2.55-2.78,3.71,3.71,0,0,0-3.44,2.43,44.11,44.11,0,0,0-1.5,5.16c-.44,1.71-.81,3.44-1.15,5.17-.13.66-.4.86-1.07.84-1.38-.06-2.77,0-4.27,0,1.29-5.8,2.56-11.51,3.84-17.24h4.75l-.38,1.89.92-.73a7.52,7.52,0,0,1,5.48-1.67c3,.3,4.79,2.17,4.69,5.22a32.27,32.27,0,0,1-.81,4.93c-.24,1.27-.55,2.53-.84,3.79s-.55,2.45-.84,3.74Z"/><path class="cls-1" d="M566.93,159.07h-5.15c.63-2.87,1.26-5.67,1.85-8.47a16.76,16.76,0,0,0,.45-3,1.86,1.86,0,0,0-1.82-2,3.6,3.6,0,0,0-4,2.09,29.72,29.72,0,0,0-1.53,4.85c-.5,1.95-.88,3.94-1.36,5.9-.07.27-.43.65-.66.66-1.48.06-3,0-4.59,0,.37-1.68.71-3.27,1.07-4.85.87-3.91,1.76-7.82,2.6-11.73.12-.55.31-.73.86-.72,1.32,0,2.64,0,4,0l-.32,1.88.79-.62a7.69,7.69,0,0,1,6.31-1.64,4.6,4.6,0,0,1,3.92,4.65,20.82,20.82,0,0,1-.53,4.21C568.27,153.22,567.59,156.11,566.93,159.07Z"/><path class="cls-1" d="M585.37,159.07h-4.55l.24-1.51-.76.56a7.2,7.2,0,0,1-6.57,1.09,4.24,4.24,0,0,1-3.24-3.58,5.3,5.3,0,0,1,2-5.3c2.22-1.73,4.86-2,7.55-1.93.84,0,1.69.11,2.52.17a2,2,0,0,0-1.61-3.11,12.88,12.88,0,0,0-5.35.28c-.58.12-1.15.26-1.85.42.27-1.26.5-2.43.79-3.58a.86.86,0,0,1,.56-.51,19,19,0,0,1,8-.38c3.59.71,5.27,3.07,4.59,6.67S586.15,155.5,585.37,159.07Zm-3.44-7.53c-1.35,0-2.64-.07-3.92,0a4.1,4.1,0,0,0-1.75.65,2.2,2.2,0,0,0-.94,2.57,1.93,1.93,0,0,0,2,1.24A4.57,4.57,0,0,0,581.93,151.54Z"/><path class="cls-1" d="M541.51,145.66l-1,4.45c-2.31,0-4.55,0-6.79,0-.7,0-1,.14-1.2.93-.48,2.47-1.07,4.93-1.65,7.38-.07.27-.35.68-.55.68-1.57.06-3.15,0-4.82,0l1.37-6.36c1.19-5.43,2.37-10.85,3.58-16.26.07-.29.39-.73.6-.73,4.29-.05,8.58,0,13,0-.31,1.41-.58,2.73-.93,4,0,.19-.53.36-.81.37-2.43,0-4.86,0-7.4,0l-1.19,5.53Z"/><path class="cls-1" d="M511.71,146c-1.2-.24-2.3-.54-3.42-.66a13.75,13.75,0,0,0-2.72.07c-.64.06-1.27.42-1.19,1.11a2.18,2.18,0,0,0,.87,1.4,27.85,27.85,0,0,0,2.83,1.29,4.57,4.57,0,0,1,2.73,3,5,5,0,0,1-2.75,6.1,17,17,0,0,1-4.19,1.06,16.42,16.42,0,0,1-6.79-.76l.81-3.67a34.86,34.86,0,0,0,3.48.61,20.24,20.24,0,0,0,3.48-.09c.69-.07,1.38-.53,1.3-1.27a2.21,2.21,0,0,0-1-1.43,29.14,29.14,0,0,0-2.83-1.3,4.35,4.35,0,0,1-2.79-3.85,5,5,0,0,1,2.45-4.8,10.32,10.32,0,0,1,5.93-1.29,32.59,32.59,0,0,1,4,.52c.2,0,.52.41.49.58C512.25,143.76,512,144.88,511.71,146Z"/><path class="cls-1" d="M522.09,137.06l-1,4.73h5.48l-.83,3.83h-5.52L519,151c-.18.8-.36,1.6-.52,2.41a1.57,1.57,0,0,0,1.63,2.1,10.75,10.75,0,0,0,1.7,0c.53-.05,1.05-.18,1.7-.29-.26,1.17-.48,2.27-.77,3.35a.89.89,0,0,1-.56.53,10.64,10.64,0,0,1-5.71,0,4.43,4.43,0,0,1-3.12-5.59c1-4.91,2.19-9.79,3.32-14.68a1,1,0,0,1,.5-.67C518.73,137.74,520.33,137.43,522.09,137.06Z"/><path class="cls-1" d="M622.17,155c-.24,1-.47,2.2-.78,3.35a1,1,0,0,1-.64.57,10.59,10.59,0,0,1-7.42-.32c-2.64-1.16-3.74-3.4-3.86-6.14-.32-7.18,5.59-12.16,12.77-10.77.77.15,1.52.37,2.38.57-.29,1.34-.55,2.59-.84,4-.68-.18-1.3-.37-1.93-.5-5.36-1.18-7.86,3.48-7,7.24a2.79,2.79,0,0,0,2.68,2.3C619,155.34,620.55,155.13,622.17,155Z"/><path class="cls-1" d="M541.49,159.06c1.28-5.75,2.56-11.46,3.83-17.19h5.1c-1.28,5.74-2.54,11.44-3.82,17.19Z"/><path class="cls-1" d="M546.06,137.29a3,3,0,0,1,3.11-3,2.57,2.57,0,0,1,2.65,2.53,3,3,0,0,1-3.06,3A2.54,2.54,0,0,1,546.06,137.29Z"/></svg>